<?xml version="1.0" encoding="UTF-8" standalone="no"?>
<svg
   xmlns:dc="http://purl.org/dc/elements/1.1/"
   xmlns:cc="http://creativecommons.org/ns#"
   xmlns:rdf="http://www.w3.org/1999/02/22-rdf-syntax-ns#"
   xmlns:svg="http://www.w3.org/2000/svg"
   xmlns="http://www.w3.org/2000/svg"
   xmlns:sodipodi="http://sodipodi.sourceforge.net/DTD/sodipodi-0.dtd"
   xmlns:inkscape="http://www.inkscape.org/namespaces/inkscape"
   version="1.1"
   width="4.5in"
   height="4.1458302in"
   viewBox="0 0 432 397.99971"
   id="svg39"
   sodipodi:docname="leaf-light-grey.svg"
   inkscape:version="0.92.3 (2405546, 2018-03-11)">
  <metadata
     id="metadata45">
    <rdf:RDF>
      <cc:Work
         rdf:about="">
        <dc:format>image/svg+xml</dc:format>
        <dc:type
           rdf:resource="http://purl.org/dc/dcmitype/StillImage" />
        <dc:title></dc:title>
      </cc:Work>
    </rdf:RDF>
  </metadata>
  <defs
     id="defs43" />
  <sodipodi:namedview
     pagecolor="#ffffff"
     bordercolor="#666666"
     borderopacity="1"
     objecttolerance="10"
     gridtolerance="10"
     guidetolerance="10"
     inkscape:pageopacity="0"
     inkscape:pageshadow="2"
     inkscape:window-width="1280"
     inkscape:window-height="961"
     id="namedview41"
     showgrid="false"
     units="in"
     inkscape:zoom="2.7805596"
     inkscape:cx="184.60734"
     inkscape:cy="154.22282"
     inkscape:window-x="-8"
     inkscape:window-y="-8"
     inkscape:window-maximized="1"
     inkscape:current-layer="g913" />
  <g
     id="layer1"
     transform="translate(0,-960.00029)">
    <g
       style="fill:#000b00;fill-opacity:0.47926268;stroke-linejoin:miter;opacity:0.621"
       id="g14"
       transform="translate(-92.067797,408.55085)">
      <path
         d="m 436.62512,688.9938 v 9.5e-4 c -1.12216,0.57095 -1.06012,1.01679 0.29633,2.30645 1.22653,1.16615 1.4096,1.6347 0.99495,2.7098 -0.15688,0.4068 -0.12075,0.6302 0.23314,1.07933 0.7467,0.94777 2.4978,2.64612 2.75174,2.64612 0.12719,0 0.20114,0.55115 0.14798,1.54529 -0.0736,1.37706 -0.1615,1.63596 -0.82541,2.47696 -1.24131,1.5725 -4.01892,4.2586 -6.26612,6.0758 -1.1824,0.95615 -3.13283,2.66696 -4.33975,3.8103 -1.20651,1.1429 -2.77768,2.59916 -3.47158,3.26 -1.52882,1.45586 -4.03083,3.6301 -5.24998,4.59374 -2.3161,1.83062 -4.07885,3.64606 -5.48269,5.60986 -2.25853,3.1594 -3.53388,4.42785 -5.20795,5.2503 -0.78178,0.38404 -1.76093,0.8381 -2.15908,1.0369 -0.40665,0.2031 -1.0178,0.43674 -1.3549,0.50833 -0.36172,0.0769 -0.8841,0.3457 -1.2065,0.57147 -0.3128,0.21906 -0.65666,0.4019 -0.78343,0.4019 -0.10595,0 -0.82587,0.339 -1.60879,0.741 -0.78348,0.4022 -1.63004,0.7411 -1.90515,0.7411 -0.59308,0 -2.28733,1.05735 -3.53559,2.223 -1.31354,1.2266 -1.66522,1.30005 -2.83651,0.6135 -0.67041,-0.3929 -1.14627,-0.52634 -1.54523,-0.4443 -0.32178,0.0661 -1.01614,0.2115 -1.56683,0.3175 -0.55027,0.1059 -1.14407,0.31603 -1.33347,0.4655 -0.21292,0.1681 -0.6352,0.2344 -1.2703,0.1484 -0.614,-0.0832 -1.2427,-0.0264 -1.75677,0.16954 -1.53976,0.5871 -3.36603,0.81936 -6.28769,0.84656 -1.62967,0.0152 -3.83099,0.1715 -4.91084,0.33874 -1.92622,0.29826 -1.93245,0.29116 -2.8581,1.35486 -0.49284,0.56635 -1.03987,1.1826 -1.1853,1.33374 -0.40507,0.42086 -0.83372,1.33196 -0.99498,2.1167 -0.15632,0.76062 -0.25399,0.78491 -2.51919,0.99496 -0.93125,0.0863 -1.54141,0.0377 -1.7146,-0.1056 -0.44077,-0.36476 -2.41275,-0.6495 -5.46193,-0.7834 -3.217,-0.14124 -3.0275,0.0213 -3.8315,-3.1329 -0.29678,-1.16434 -0.69424,-2.6056 -0.88898,-3.1968 -0.39794,-1.2081 -0.25518,-2.98756 0.23255,-3.17525 0.61301,-0.23585 0.81161,-1.54559 0.65643,-4.44535 -0.0986,-1.84237 -0.0668,-3.11294 0.0846,-3.6835 0.1239,-0.4668 0.24347,-1.9266 0.25415,-3.2389 0.0105,-1.29155 0.15575,-2.9624 0.31753,-3.70506 0.30392,-1.3952 0.27329,-1.60774 -0.48691,-3.64114 -0.15002,-0.4013 -0.30717,-1.1228 -0.35992,-1.6084 -0.053,-0.4883 -0.24521,-1.1897 -0.42331,-1.5876 -0.18188,-0.40645 -0.46591,-1.14333 -0.63524,-1.6729 -0.16917,-0.529 -0.43895,-1.2511 -0.57146,-1.58756 -0.14266,-0.36224 -0.33764,-0.82574 -0.42349,-1.05814 -0.78215,-2.11746 -1.94513,-3.74996 -3.70453,-5.2288 -0.23034,-0.1936 -0.67222,-0.6189 -0.97396,-0.953 -0.29102,-0.3222 -0.91138,-0.8874 -1.35468,-1.22765 -0.46688,-0.3584 -1.16504,-0.93042 -1.54544,-1.29125 -0.44544,-0.42255 -1.03781,-0.7158 -1.54544,-0.8042 -0.46637,-0.0812 -1.01587,-0.2121 -1.2065,-0.318 -0.1903,-0.10565 -0.69627,-0.34375 -1.10054,-0.52905 -1.6279,-0.7461 -2.64654,-1.41845 -3.02746,-2.03235 -0.3809,-0.61383 -1.4185,-0.93176 -1.4185,-0.42346 0,0.3811 -1.10073,0.67743 -2.4768,0.67743 -0.7408,0 -1.3826,0.0797 -1.46045,0.19073 -0.0708,0.101 -0.50799,0.40204 -0.97397,0.6351 -0.67736,0.3388 -1.37552,0.4524 -3.40838,0.5291 -3.02677,0.1141 -3.1702,0.1503 -3.49277,0.82536 -0.14293,0.29914 -0.59708,0.73359 -0.99475,0.97419 -0.40686,0.24615 -0.74124,0.61385 -0.74124,0.8042 0,0.4447 -0.63504,1.07971 -1.07932,1.07971 -0.69864,0 -2.50775,1.1181 -2.75216,1.71484 -0.13696,0.3344 -0.31751,0.6134 -0.38089,0.6134 -0.38132,0 -3.45701,2.5777 -4.42435,3.70514 -2.10212,2.45006 -2.07452,2.43421 -2.96372,2.43421 -0.7834,0 -0.85568,0.0388 -1.22808,0.95255 -0.32645,0.80105 -0.4657,0.9526 -0.97358,0.9526 l -0.61407,0.0106 0.4447,0.45534 c 0.67725,0.741 0.73935,1.31126 0.21176,2.0323 -0.50998,0.69705 -0.42331,1.10055 0.23273,1.10055 0.31754,0 0.40231,0.14835 0.40231,0.71979 0,0.40271 -0.0874,0.79966 -0.21177,0.86823 -0.29903,0.16473 -0.27834,0.89413 0.0212,1.07977 0.14508,0.0899 0.33628,-0.023 0.44428,-0.21198 0.2307,-0.40366 0.59307,-0.4447 0.59307,-0.0848 0,0.1483 0.28809,0.53703 0.63503,0.8894 1.02925,1.0452 2.32866,2.7517 2.32866,3.0272 0,0.12684 0.26041,0.5447 0.57147,0.9102 0.5358,0.6296 0.56347,0.8043 0.55027,2.7098 -0.008,1.1219 0.081,2.2458 0.19076,2.4554 0.12298,0.23473 0.75738,0.9152 1.43944,1.54565 1.83717,1.69815 1.83555,1.69245 1.33348,6.05415 -0.112,0.97307 -0.0605,1.05504 0.74102,1.79954 0.97663,0.90716 1.73862,2.47596 2.26508,4.65686 0.21454,0.88874 0.66392,1.98523 1.03735,2.54065 1.27762,1.90009 2.03211,3.21765 2.03211,3.55635 0,0.4871 1.08536,1.8957 1.73599,2.28624 0.30217,0.1814 0.9939,0.40946 1.54544,0.4867 1.71356,0.23993 1.52259,1.26736 -0.4447,2.28626 -0.97522,0.50506 -1.26677,0.76257 -1.3125,1.1857 -0.0389,0.3599 -0.30107,0.6466 -0.8468,0.9314 -0.42841,0.2236 -1.04041,0.5666 -1.35465,0.7834 -0.29972,0.2068 -0.67746,0.3811 -0.84662,0.3811 -0.14834,0 -0.78866,0.5028 -1.39746,1.14295 -1.44474,1.51905 -2.28686,2.11375 -3.42938,2.43465 -1.27093,0.3569 -2.2457,0.8223 -3.38699,1.5876 -0.72189,0.48404 -1.3121,0.7022 -2.43442,0.8254 -0.80405,0.0883 -1.65158,0.1602 -1.84177,0.1483 -1.1651,-0.0729 -2.56028,-0.0126 -3.76808,0.1692 -0.761,0.1146 -2.666,0.3703 -4.23402,0.57185 -1.56491,0.20115 -3.06964,0.48645 -3.32361,0.65589 -0.2543,0.16966 -0.65604,0.29666 -0.86777,0.29666 -0.91018,0 -2.11676,0.76205 -3.66214,2.3075 -1.84161,1.84176 -4.2976,3.4079 -5.39834,3.4079 -0.38112,0 -0.95582,-0.0963 -1.2703,-0.2115 -0.32104,-0.11764 -1.29117,-0.22995 -2.1803,-0.254 -1.46072,-0.0395 -1.77688,0.0452 -3.26002,0.74067 -0.9089,0.42623 -1.71498,0.78338 -1.79936,0.78338 -0.12717,0 -1.77622,0.74515 -2.41342,1.07975 -0.20966,0.11014 -0.61405,0.1904 -0.91019,0.1904 -0.27513,0 -0.82573,0.1274 -1.2067,0.2967 -0.95248,0.4233 -4.86883,1.6084 -5.24975,1.6084 -0.16978,0 -0.82132,0.2426 -1.43988,0.52947 -0.84244,0.39068 -1.50284,0.52913 -2.4768,0.52913 -1.71458,0 -4.343,-0.5426 -5.82142,-1.20656 -1.01944,-0.45784 -1.99426,-0.8349 -5.3981,-2.11704 -1.48628,-0.5599 -2.47655,-0.78463 -6.98593,-1.5241 -3.36574,-0.55186 -5.54627,-0.805 -8.99688,-1.07975 -1.86312,-0.14835 -3.49107,-0.42865 -4.65708,-0.78295 -0.99329,-0.3018 -2.13541,-0.64497 -2.54061,-0.7622 -0.39944,-0.11555 -1.01552,-0.3399 -1.37607,-0.48665 -0.88813,-0.36151 -6.4333,-2.01975 -9.94923,-2.9425 -1.16218,-0.305 -2.30765,-0.63505 -2.54039,-0.74105 -0.23294,-0.106 -0.89015,-0.3358 -1.48184,-0.52946 -0.57263,-0.18744 -1.14209,-0.42438 -1.2701,-0.52914 -0.10516,-0.086 -0.87455,-0.51645 -1.6938,-0.95255 -3.43608,-1.82905 -4.66794,-3.08771 -5.29216,-5.2923 -0.68849,-2.43155 -2.34909,-4.61565 -5.12297,-6.66839 -0.97324,-0.72022 -1.8129,-1.42306 -1.90535,-1.56646 -0.0985,-0.1529 -0.63419,-0.57276 -1.18532,-0.9526 -1.01549,-0.6999 -1.86648,-1.7337 -3.83169,-4.76323 -0.57518,-0.88672 -1.37589,-1.86273 -1.79936,-2.18027 -0.42332,-0.31753 -0.9007,-0.7492 -1.07975,-0.9526 -0.75258,-0.855 -1.96873,-1.43964 -2.98469,-1.43964 -0.84681,0 -1.10106,0.10584 -1.6514,0.65619 -0.99487,0.99485 -0.91496,1.88721 0.3813,3.83191 1.03217,1.54844 1.85883,2.39648 4.31857,4.4873 1.35056,1.14804 1.89664,1.98934 1.79938,2.83698 -0.0509,0.44376 -0.23546,0.60602 -1.03757,0.84662 -0.89134,0.26734 -1.07602,0.26348 -2.45561,-0.16919 -1.85933,-0.58313 -2.58145,-1.27097 -4.86882,-4.6781 -1.73466,-2.58387 -2.92192,-4.02143 -3.64113,-4.40332 -0.63568,-0.33759 -2.24359,-0.29651 -2.56138,0.0847 -0.21149,0.2538 -0.1709,0.44534 0.25372,0.99496 0.29521,0.38214 0.80481,1.22774 1.12234,1.86279 0.31751,0.63501 0.75419,1.42371 0.97356,1.73595 0.47936,0.6824 0.52928,1.4393 0.0634,1.4393 -0.31751,0 -2.43958,-1.4114 -5.27114,-3.49275 -2.1221,-1.55985 -4.06444,-2.4347 -5.44051,-2.4347 -1.22771,0 -1.61886,0.20648 -2.07451,1.0586 -0.20091,0.37575 -0.40264,0.40795 -2.18028,0.29635 -2.60432,-0.16354 -3.0379,10e-4 -3.21762,1.33365 -0.0744,0.55185 -0.24417,1.22205 -0.38112,1.50281 -0.28652,0.58734 -0.0423,1.07994 0.71964,1.46088 0.50819,0.25406 2.77401,1.31106 5.58866,2.60382 0.8265,0.37964 2.20087,1.18684 3.06946,1.77834 1.58681,1.0805 2.70996,1.60886 3.51416,1.60886 0.868,0 2.65021,0.58684 3.45059,1.14289 0.44878,0.31175 1.70826,1.48855 2.79435,2.58295 1.64468,1.6573 2.2805,2.15014 3.78929,2.87853 0.98955,0.47773 1.84726,0.92667 1.90533,0.99537 0.17493,0.2068 3.15425,2.1379 3.30242,2.1379 0.21176,0 9.24681,6.05875 9.92843,6.66837 0.71526,0.63973 2.47681,1.58758 2.9211,1.58758 0.16937,0 0.68968,0.28705 1.16432,0.63505 0.47844,0.35086 1.5667,0.82565 2.41344,1.05856 0.84686,0.23294 3.02714,1.12201 4.82646,1.98994 1.79963,0.8681 4.19006,1.9933 5.29254,2.4982 2.17876,0.99794 3.85132,1.8233 6.98573,3.49275 4.338,2.31045 6.15947,3.21985 7.53641,3.76789 0.80333,0.31976 1.6377,0.68626 1.88415,0.84706 0.24084,0.1571 0.80416,0.3812 1.2701,0.5082 0.46564,0.1269 1.94756,0.6982 3.28122,1.2909 1.3335,0.5926 2.85438,1.2373 3.38701,1.4185 0.52588,0.1788 1.05469,0.40714 1.16432,0.48667 0.12372,0.0897 1.30935,0.4975 2.64597,0.91058 3.32052,1.02619 3.09288,0.94299 5.8428,1.52405 1.35698,0.28674 2.74888,0.66223 3.11188,0.8466 0.97073,0.49306 2.58197,0.5872 4.5937,0.31795 0.99437,-0.13305 2.41347,-0.29572 3.15444,-0.35995 1.46051,-0.12656 7.26001,0.2773 7.98071,0.5715 0.31665,0.1293 0.5835,0.57477 0.82559,1.31244 0.20264,0.61736 0.43903,1.2113 0.55026,1.33376 0.10077,0.11094 0.19077,0.35984 0.19077,0.55064 0,0.57146 0.99433,2.62506 1.79938,3.72546 1.1001,1.5038 1.6094,1.96704 2.58258,2.41345 0.8262,0.37905 0.892,0.48675 1.01614,1.41845 0.21436,1.60847 0.27399,1.8425 0.76223,2.45545 0.42213,0.52995 0.551,0.58015 1.54524,0.48665 1.71539,-0.1613 2.51751,-0.3626 3.30221,-0.783 0.40082,-0.2147 0.974,-0.44455 1.27008,-0.5291 0.29657,-0.0846 0.77854,-0.34593 1.10097,-0.57146 0.31276,-0.21881 1.18633,-0.59039 1.94753,-0.82614 0.74163,-0.22977 1.86917,-0.73025 2.49823,-1.10055 1.63592,-0.96302 3.3031,-1.48935 4.42414,-1.35495 2.05425,0.24636 4.97323,0.7458 5.3769,0.91024 0.73927,0.30106 1.7125,1.41926 1.99015,2.30786 0.14567,0.46625 0.87998,2.12134 1.63001,3.6831 1.30347,2.7141 1.86679,4.1481 3.68354,9.56855 0.8084,2.41205 1.7353,4.36151 2.68853,5.61025 0.2749,0.3601 0.48669,0.8678 0.48669,1.1005 0,0.4019 -0.12716,0.46595 -0.97396,0.46595 -2.13788,0 -3.82466,0.74395 -4.44536,1.96869 -0.18413,0.36336 -1.38008,1.68956 -2.64617,2.96366 -2.03616,2.0491 -2.34979,2.30697 -2.87913,2.2015 -0.31746,-0.0633 -1.48006,0.0326 -2.58275,0.19037 -1.12012,0.16023 -2.9635,0.29673 -4.10641,0.29673 -1.65144,0 -2.24262,0.088 -2.90034,0.4231 -0.46404,0.2364 -1.12216,0.4235 -1.46066,0.4235 -0.36014,0 -1.14324,0.1906 -1.75699,0.4447 -0.61398,0.2542 -1.58963,0.51725 -2.18069,0.6139 -0.5733,0.0937 -1.43939,0.2753 -1.90516,0.3811 -0.4658,0.10575 -1.65218,0.35435 -2.64614,0.5502 -4.80646,0.9471 -5.08006,1.01704 -6.35071,1.56684 -0.29595,0.12806 -1.05932,0.26441 -1.69357,0.31716 -0.63605,0.0528 -1.78076,0.3103 -2.54018,0.57145 -1.20936,0.4159 -1.50203,0.45965 -2.45585,0.25391 -0.90897,-0.19611 -1.37757,-0.15436 -2.66735,0.16954 -3.0924,0.7766 -8.06196,2.52254 -8.57356,3.0057 -0.63174,0.5966 -1.12174,1.6936 -1.12174,2.541 0,0.3383 -0.12966,0.86603 -0.29653,1.1853 -0.32001,0.6122 -2.21851,2.50355 -3.09087,3.0905 -0.29204,0.1965 -1.51843,1.27584 -2.73054,2.4134 -1.20136,1.1275 -2.28627,2.09596 -2.39203,2.1383 -0.10599,0.0424 -0.63254,0.74245 -1.14333,1.54525 -0.52635,0.82721 -1.14337,1.69335 -1.39726,1.94715 -0.23299,0.2329 -0.6841,0.75744 -0.99477,1.1645 -0.30325,0.39726 -1.16443,1.3974 -1.92656,2.2019 -0.7619,0.8043 -1.52432,1.6935 -1.69339,1.9471 -0.3388,0.5082 -2.43411,2.92196 -3.49296,4.0222 -1.10065,1.14366 -2.09909,2.32646 -2.68857,3.1968 -0.29973,0.4426 -0.78889,1.053 -1.05835,1.35494 -0.25994,0.29126 -1.22823,1.43952 -2.1173,2.54016 -0.8889,1.1004 -1.91046,2.28113 -2.26486,2.625 -0.36529,0.35443 -0.65623,0.7198 -0.65623,0.8254 0,0.10637 -0.19034,0.3599 -0.42351,0.5719 -0.23273,0.2115 -1.02347,1.2224 -1.75697,2.28624 -1.61658,2.3446 -3.61995,4.93236 -5.37693,6.96429 l -1.31248,1.52447 0.10577,1.4392 c 0.0634,0.78346 0.21105,1.7151 0.31752,2.05354 0.48616,1.54546 0.26745,2.12526 -2.51921,6.45686 -0.91812,1.4271 -2.21447,2.97185 -4.06444,4.8688 -1.49468,1.5327 -3.36027,3.64566 -4.14901,4.69973 -1.28599,1.71857 -1.61048,2.00782 -2.94271,2.66737 -0.80588,0.399 -1.80357,0.9685 -2.20167,1.2913 -0.38516,0.3123 -1.0956,0.89564 -1.58763,1.2701 -0.48183,0.36663 -1.24602,0.97753 -1.71458,1.3337 -1.11927,0.85074 -3.72387,3.19895 -6.3509,5.7158 -2.43239,2.3304 -3.15776,2.851 -6.35066,4.53014 -1.27385,0.66993 -2.56136,1.43956 -2.85793,1.69361 -0.29629,0.25385 -1.31416,1.01365 -2.26506,1.67199 -0.97565,0.67542 -1.75697,1.29169 -1.75697,1.37646 0,0.0848 -0.75592,0.93763 -1.6938,1.88355 -1.45419,1.46665 -1.69362,1.82035 -1.69362,2.435 0,1.31215 0.61441,1.51695 5.16539,1.75675 3.09123,0.1629 5.44469,-0.18424 6.58382,-0.9737 0.72406,-0.50186 1.10109,-0.6076 2.75193,-0.6982 2.20206,-0.1209 4.20896,-0.6192 4.97503,-1.18617 0.29252,-0.21649 0.89126,-0.90843 1.33347,-1.54523 0.61614,-0.88726 1.14294,-1.35485 2.1169,-1.88397 l 1.31249,-0.71978 4.33977,-0.14801 c 9.7377,-0.31751 10.41513,-0.38147 11.17735,-0.95258 l 0.67744,-0.50826 v -2.0959 c 0,-1.54525 0.0897,-2.314 0.38091,-3.0057 0.21687,-0.5152 0.58397,-1.77594 0.78342,-2.8153 0.20268,-1.0562 0.51628,-2.17634 0.67722,-2.49824 0.26244,-0.5249 2.19372,-2.86506 3.51417,-4.27612 0.22491,-0.24034 0.6528,-0.76508 0.95257,-1.16454 0.84356,-1.12416 2.70996,-3.0485 4.53032,-4.6997 l 1.651,-1.4821 0.57167,0.46633 c 0.33893,0.25357 0.92382,0.7702 1.33368,1.14337 1.24126,1.1302 3.30242,2.66693 3.55657,2.66693 0.12675,0 1.14628,-0.60888 2.26506,-1.37609 1.10432,-0.75724 2.07449,-1.37564 2.13788,-1.37564 0.16977,0 1.09672,-0.74595 2.0959,-1.6724 0.4617,-0.4281 1.41368,-1.21295 2.11691,-1.736 1.858,-1.38204 7.46904,-5.95296 8.46799,-6.90114 0.67328,-0.63906 4.56811,-3.2052 5.82141,-3.83191 2.17612,-1.08815 2.70975,-1.41785 3.68353,-2.39179 0.50806,-0.50812 1.4559,-1.40216 2.11691,-1.96876 0.67293,-0.5768 1.54346,-1.6311 2.03211,-2.4346 0.46392,-0.76296 1.4021,-1.9853 2.0957,-2.7098 1.21155,-1.26544 1.31247,-1.3337 2.28626,-1.3337 0.55046,0 1.39966,-0.0955 1.86316,-0.2115 0.4683,-0.1172 2.11688,-0.2751 3.6831,-0.3387 1.56665,-0.0636 3.01657,-0.20844 3.21805,-0.31794 0.54053,-0.29382 1.33493,-0.23476 2.01115,0.12754 0.50914,0.2728 1.07903,0.3126 3.25978,0.1904 2.73072,-0.15296 3.1782,-0.27125 4.74189,-1.4397 0.36288,-0.2712 1.0783,-0.57935 1.60903,-0.67744 1.4171,-0.26186 5.1018,-0.19219 7.72678,0.1056 1.29169,0.14654 2.79386,0.32214 3.34479,0.38154 0.82498,0.089 1.67145,-0.108 4.76306,-1.10054 2.05277,-0.65906 4.04431,-1.35236 4.38197,-1.5249 2.5627,-1.30951 3.47197,-1.54523 6.18154,-1.54523 2.85769,0 3.19513,0.0861 4.21258,1.18537 0.57016,0.616 0.80442,0.7202 1.65122,0.7202 0.52906,0 1.14862,-0.0726 1.35486,-0.17 0.19665,-0.0929 0.88934,-0.4227 1.52426,-0.71897 0.63519,-0.29638 1.68934,-0.79233 2.34961,-1.10138 0.65233,-0.30529 1.43966,-0.55025 1.75699,-0.55025 0.31771,0 0.97198,-0.1944 1.43966,-0.4231 0.48493,-0.23716 1.01615,-0.4235 1.18531,-0.4235 0.38131,0 1.62759,-1.0191 3.62014,-2.9217 1.77593,-1.6957 1.22773,-1.52336 5.31353,-1.6508 2.70958,-0.0845 5.40156,-0.33533 5.60987,-0.5295 0.10935,-0.1019 0.55027,-0.19035 0.97358,-0.19035 0.4447,0 0.85867,-0.0901 0.93158,-0.21155 0.30825,-0.5139 2.08355,-0.2032 3.06945,0.5503 0.1789,0.1367 1.03727,0.46575 1.90515,0.71984 0.86814,0.25421 1.73713,0.52692 1.90519,0.61386 0.44598,0.23056 2.15713,0.60696 3.95865,0.86777 3.1734,0.45947 9.29266,0.1651 12.76516,-0.61347 2.47589,-0.5551 4.40217,-1.062 5.99097,-1.6096 0.93018,-0.32063 1.46048,-0.3142 4.9748,-0.1052 2.18008,0.1297 5.14397,0.26034 6.6046,0.29635 2.85758,0.0703 6.3934,0.40145 8.25645,0.8042 1.27023,0.27465 1.86578,0.58911 3.59875,2.0747 1.2307,1.05499 1.94754,1.35495 3.81027,1.63001 l 1.16413,0.16954 0.14837,1.58723 c 0.0848,0.86823 0.25223,2.24417 0.38111,3.07013 0.12545,0.80404 0.26782,2.56134 0.33872,3.89424 0.11944,2.2451 0.10433,2.4338 -0.33872,3.02806 -0.42514,0.57024 -0.46868,0.84681 -0.38111,2.1587 0.10318,1.54541 0.51383,2.68444 1.37607,3.85308 0.44989,0.60976 0.48669,0.84696 0.48669,3.53556 0,1.58725 -0.10217,3.13394 -0.23275,3.4716 -0.12338,0.31895 -0.24332,2.1593 -0.29633,4.0858 -0.053,1.9263 -0.19695,4.14764 -0.31753,4.974 -0.47252,3.23865 -0.49125,3.9814 -0.10596,5.39874 0.2074,0.76296 0.44022,1.88422 0.52904,2.47663 0.41905,2.7948 1.65144,3.68157 5.71626,4.12817 1.3335,0.14646 3.9158,0.2807 5.71548,0.29596 3.15442,0.0267 5.50086,0.32587 7.0915,0.93176 1.96616,0.74894 3.24099,1.50141 3.93746,2.34984 0.95475,1.16304 1.7994,1.42165 4.95405,1.5664 2.37045,0.1088 3.30087,0.23824 5.92697,0.82546 2.20074,0.49214 6.68708,0.46134 7.70575,-0.0633 0.42103,-0.21677 1.12063,-0.5528 1.56643,-0.7406 0.7611,-0.3205 1.24396,-1.03586 1.05857,-1.5248 -0.0474,-0.125 -0.52045,-0.56196 -1.05857,-0.95216 -0.54187,-0.39294 -1.64154,-1.34418 -2.4766,-2.13831 -1.7688,-1.68213 -2.965,-2.36639 -5.0596,-2.94293 -0.82708,-0.22766 -1.71285,-0.49005 -1.94753,-0.5922 -1.56534,-0.68136 -2.03375,-0.88577 -3.0061,-1.2701 -2.56281,-1.01294 -6.75364,-3.5134 -10.52109,-6.28736 -3.9379,-2.89947 -3.72588,-2.66774 -3.72588,-4.23374 v -1.3549 l 0.74098,0.0102 c 0.40232,-0.0102 0.74102,0.0534 0.74102,0.1586 0,0.0851 0.38276,0.26896 0.82542,0.4027 0.46802,0.1414 1.18878,0.50274 1.63043,0.8042 0.42665,0.2912 0.93097,0.5295 1.14292,0.5295 0.19033,0 0.42533,0.0613 0.50787,0.1483 0.29898,0.315 1.77908,0.6911 3.11206,0.8254 1.39758,0.14083 1.44202,0.13253 3.83188,-1.0373 2.71216,-1.3276 3.77417,-2.0706 4.53012,-3.2181 0.38742,-0.58814 0.43643,-5.8182 0.0636,-6.8795 -0.17746,-0.5052 -0.27066,-2.8794 -0.31754,-7.40945 -0.0379,-3.66241 -0.17672,-8.14959 -0.29672,-9.94965 -0.76898,-11.53674 -0.93139,-18.8403 -0.4443,-19.32775 0.12674,-0.12685 0.23276,-0.44385 0.23276,-0.719 0,-0.25435 0.11984,-0.97589 0.27514,-1.58801 0.20462,-0.8064 0.27109,-2.34979 0.23312,-5.52554 -0.0468,-3.91574 -0.10346,-4.447 -0.46588,-4.974 -0.56938,-0.8279 -0.94768,-2.92026 -0.67743,-3.8535 0.61872,-2.13646 -0.14868,-3.7033 -2.37103,-4.974 -0.44462,-0.2542 -1.24812,-0.8911 -1.79959,-1.3976 -1.26886,-1.1655 -2.76776,-2.25375 -4.29736,-3.04855 -0.63004,-0.3274 -5.61631,-1.76941 -5.61631,-1.76941 -0.72348,0.32483 -1.686,0.43086 -3.1896,0.20266 -0.86746,-0.1317 -3.17566,-0.2235 -5.12363,-0.2324 -2.66703,-0.0122 -3.66116,-0.0861 -4.06421,-0.3179 -0.29559,-0.17006 -0.84619,-0.3067 -1.2489,-0.31716 -0.40219,-0.0104 -1.01622,-0.0845 -1.37607,-0.1903 -0.35998,-0.10578 -1.31275,-0.31629 -2.1383,-0.44471 -0.80445,-0.12513 -1.67415,-0.31223 -1.90515,-0.40273 -2.79636,-1.0949 -7.6206,-2.01304 -10.58426,-1.98954 -2.3291,0.0185 -5.58918,0.40064 -6.98594,0.8042 -1.3132,0.37944 -4.4893,0.51354 -5.75823,0.23314 -0.55147,-0.1219 -0.76954,-0.3563 -1.22773,-1.33367 -0.49464,-1.05503 -0.5567,-1.37683 -0.46566,-2.79449 0.0571,-0.88944 0.264,-2.21994 0.46566,-2.9845 0.20046,-0.76001 0.4141,-1.67077 0.4657,-2.01154 0.0542,-0.35827 0.16394,-0.82745 0.25394,-1.05816 0.24852,-0.63714 1.64154,-4.9505 1.92654,-6.03374 0.13834,-0.52577 0.34455,-1.1506 0.4657,-1.3757 0.32348,-0.60093 0.79041,-2.64604 0.80441,-3.49315 0.007,-0.42305 0.0814,-0.84945 0.16935,-0.95215 0.29296,-0.34204 1.25839,-3.68194 1.52422,-5.29235 0.1361,-0.82435 0.32685,-1.81849 0.42332,-2.22309 0.66578,-2.79236 0.91873,-3.73906 1.12191,-3.97986 0.1363,-0.1615 0.34034,-1.1639 0.4871,-2.22265 0.14957,-1.0791 0.32627,-2.17859 0.38113,-2.47699 0.0931,-0.50636 0.53436,-3.13206 0.99496,-6.13896 0.3436,-2.24306 0.64093,-3.6803 0.84658,-4.0642 0.11192,-0.2089 0.18565,-0.86825 0.19035,-1.4821 0.0165,-2.1591 0.19925,-2.5552 2.77335,-6.0969 0.91867,-1.26405 2.15948,-2.54017 2.47702,-2.54017 0.12678,0 0.63205,-0.38428 1.14291,-0.8678 1.85977,-1.76033 3.21837,-2.83477 3.8107,-3.09088 0.33905,-0.1466 1.00595,-0.6037 1.48167,-1.01611 0.4771,-0.41364 1.0793,-0.74064 1.31246,-0.74064 0.25436,0 0.92944,-0.2372 1.50284,-0.50826 0.59072,-0.27924 1.48205,-0.63507 1.98993,-0.78344 0.86779,-0.25355 1.12213,-0.46546 2.77334,-2.18025 l 0.74063,-0.78345 0.064,-5.65185 c 0.0208,-3.11205 0.0481,-6.0758 0.0424,-6.56245 -0.016,-1.37615 0.55315,-1.83696 6.7524,-5.44066 0.8287,-0.48174 2.4079,-1.78369 3.66272,-2.98484 1.22223,-1.17 2.82156,-2.6174 3.57754,-3.2389 1.74184,-1.4321 4.57498,-4.3797 6.32971,-6.5624 0.76429,-0.9507 2.02579,-2.5245 2.81531,-3.4716 0.79856,-0.958 2.52057,-3.36525 3.83148,-5.33516 2.64774,-3.97864 3.04414,-4.47064 8.12928,-9.90684 1.35009,-1.4433 1.73796,-1.40096 5.4407,0.5715 0.50949,0.27144 1.2908,0.325 3.8103,0.3175 4.61444,-0.0137 6.09816,-0.18864 6.77399,-0.8254 0.42511,-0.4006 0.53043,-0.6775 0.48709,-1.2493 -0.0834,-1.10106 -0.97204,-1.6217 -3.28165,-1.9264 -2.98277,-0.3935 -2.97024,-0.378 -3.2384,-1.12205 -0.38812,-1.07685 -1.35527,-2.90015 -1.52444,-2.90015 -0.0844,0 -0.38363,-0.35784 -0.67746,-0.8042 -0.27765,-0.4218 -0.87332,-1.1593 -1.31247,-1.63037 -0.4291,-0.46033 -1.41568,-1.80073 -2.1595,-2.94253 -1.6696,-2.5629 -2.9195,-3.898 -4.5297,-4.76285 -0.67564,-0.36291 -1.56376,-0.89385 -1.98994,-1.18535 -1.18268,-0.80903 -2.17944,-0.8565 -6.47806,-0.4023 -0.90906,0.0961 -1.54407,0.0175 -2.5402,-0.2967 -2.15832,-0.6807 -2.54018,-0.71947 -3.34478,-0.3171 v 9.5e-4 z"
         id="path12"
         inkscape:connector-curvature="0"
         style="fill:#000b00;fill-opacity:0.47926268" />
    </g>
    <g
       style="fill:#000000;fill-opacity:1;stroke-linejoin:miter"
       id="g16" />
    <g
       style="fill:#000000;fill-opacity:1;stroke-linejoin:miter"
       id="g20"
       transform="translate(-92.067797,408.55085)">
      <path
         d="m 397.09482,530.7541 0.41681,1.2513 0.41681,1.25125 -0.83362,-2.50255"
         id="path18"
         inkscape:connector-curvature="0" />
    </g>
    <g
       style="fill:#000000;fill-opacity:0;stroke-linejoin:miter"
       id="g32"
       transform="translate(-92.067797,408.55085)">
      <path
         d="m 380.2507,818.62024 v 0 2.6e-4 l -2.52972,-2.5263 c 0.20459,-3e-4 0.42517,-3e-4 0.62812,-3e-4 v 0 c 11.63222,0 28.29738,-0.35196 28.29738,14.4245 v 0 c 0,0.74124 -0.0442,1.50955 -0.13211,2.30545 v 0 c -0.61724,5.59149 -3.4934,13.07721 -6.10043,19.91215 v 0 c -2.59404,6.80105 -4.91556,12.9444 -5.37144,17.0738 v 0 c -0.36208,3.2799 0.50886,3.2593 0.95878,3.31593 h -3e-5 c 0.13385,0.0169 0.29602,0.0275 0.49008,0.0275 v 0 c 6.40473,0 23.18287,-9.5566 37.8302,-18.0018 v 0 c 7.57071,-4.365 14.48133,-8.3596 18.19207,-9.7851 h -2e-5 c 0.98892,-0.38 1.98452,-0.67434 2.88757,-0.71646 h 1.9e-4 c 0.0741,-0.003 0.14876,-0.005 0.22494,-0.005 v 0 c 1.51114,0 3.37976,0.94751 3.37976,3.21332 v 0 c 0,0.41035 -0.0696,0.78325 -0.1535,1.09265 l -2.43834,-0.6609 v 0 l 2.47725,0.4955 -3e-5,2e-4 -0.039,0.1656 c -1.2699,4.68374 -14.53305,17.4045 -24.68415,25.7736 v 0 c -4.41947,3.6436 -8.50723,6.67327 -11.99107,9.2558 v 0 c -2.66206,1.9734 -4.92934,3.6549 -6.7753,5.1768 v 0 c -3.72902,3.0744 -4.72618,4.74744 -4.71367,5.78425 v 0 c 0.0416,3.44482 8.32572,8.1314 20.15259,14.18341 1.24208,0.63564 1.7337,2.15774 1.09811,3.39978 -0.63559,1.24206 -2.15771,1.73376 -3.39978,1.09816 v 0 c -9.63552,-4.9307 -22.81387,-11.22676 -22.90313,-18.6204 v 0 c -0.0459,-3.8026 3.15136,-6.9402 6.55175,-9.7437 h 3e-5 c 1.96772,-1.6223 4.35148,-3.3884 6.9805,-5.3373 h 3e-5 c 3.48835,-2.58585 7.47895,-5.5445 11.78583,-9.0954 v 0 c 10.82854,-8.9275 22.2818,-20.4681 23.02174,-23.1971 l -0.039,0.16563 3e-5,-2.3e-4 2.47725,0.4954 v 0 l -2.4383,-0.6608 c 0.003,-0.0106 -0.0224,0.074 -0.0224,0.22905 v 0 c 0,1.37675 1.32968,1.83929 1.67282,1.83929 v 0 c 0.007,0 0.01,-1.4e-4 0.01,-1.8e-4 h 1.5e-4 c -0.0827,0.004 -0.47157,0.0634 -1.31094,0.38584 h -3e-5 c -3.23566,1.24307 -9.67853,4.9476 -17.48022,9.44576 v 0 c -13.7212,7.9112 -32.19056,18.67724 -40.35395,18.67724 v 0 c -0.37533,0 -0.75027,-0.0204 -1.12106,-0.067 v 0 c -5.08383,-0.6399 -5.74927,-5.2654 -5.34985,-8.8834 v 0 c 0.54443,-4.9319 3.18838,-11.80673 5.67266,-18.32004 v 0 c 2.70768,-7.09881 5.26992,-13.8714 5.79922,-18.66586 v 0 c 0.0693,-0.62765 0.1016,-1.2106 0.1016,-1.7511 v 0 c 0,-8.6559 -8.9042,-9.372 -23.2448,-9.372 v 0 c -0.2061,0 -0.41664,10e-5 -0.62126,4e-4 -0.67059,9e-4 -1.31404,-0.26484 -1.78857,-0.7387 -0.47452,-0.4739 -0.74115,-1.117 -0.74115,-1.7876 v 0 -2.6e-4 c 0,-1.39524 1.13104,-2.52631 2.52631,-2.52631 1.39523,0 2.52627,1.13107 2.52627,2.52631 z"
         id="path30"
         inkscape:connector-curvature="0"
         style="fill:#000000;fill-opacity:0" />
    </g>
    <g
       id="g901"
       transform="matrix(0.36181141,0,0,0.36181141,-4.5212237,911.18593)"
       style="opacity:0.36">
      <path
         inkscape:connector-curvature="0"
         id="path833"
         d="m 203.04335,649.31516 c -22.88658,-3.03549 -42.23929,-11.83537 -42.23929,-19.20664 0,-4.25651 3.49635,-4.13796 7.13124,0.24182 1.59223,1.91852 8.51369,5.44852 15.381,7.84443 10.21734,3.5647 19.94158,4.3321 53.5185,4.22348 43.22486,-0.13984 58.37391,-3.0507 65.32096,-12.55137 3.83618,-5.24628 7.83061,-1.86159 4.4239,3.74859 -3.96134,6.52355 -17.75938,12.21689 -35.99466,14.85209 -16.30825,2.35672 -52.71832,2.81364 -67.54165,0.8476 z"
         style="fill:#000000;fill-opacity:1;fill-rule:nonzero;stroke:none;stroke-width:22.64026642;stroke-miterlimit:4;stroke-dasharray:none;stroke-opacity:1" />
      <path
         inkscape:connector-curvature="0"
         id="path837"
         d="M 203.04335,632.96318 C 163.60556,625.6853 132.9748,609.2875 104.08271,579.98581 75.308272,550.80343 58.543212,517.84069 52.572532,478.70868 c -2.62258,-17.1885 -0.23194,-20.52418 19.23854,-26.84371 7.12923,-2.31393 15.67763,-6.65653 18.99643,-9.65022 9.507938,-8.57656 16.310918,-11.18873 24.928778,-9.57201 5.80965,1.0899 8.85966,0.41681 11.26965,-2.48705 4.93878,-5.95086 20.62249,-13.29046 28.2712,-13.23025 3.70358,0.0291 11.46852,2.20146 17.25546,4.82735 5.78693,2.62588 12.99814,4.77434 16.02491,4.77434 3.02676,0 8.05185,2.06377 11.16687,4.58615 5.57314,4.51286 5.81652,4.50819 15.22574,-0.29204 7.45176,-3.80161 12.54381,-4.60783 23.07272,-3.6531 9.36958,0.8496 14.91351,0.19933 18.08759,-2.12163 6.58988,-4.81865 18.91912,-4.11749 26.03597,1.48062 3.37535,2.65504 8.16782,4.82735 10.64998,4.82735 2.48214,0 6.71093,1.53947 9.39725,3.42106 9.50051,6.65441 21.90183,7.18878 35.0971,1.51234 15.11414,-6.50193 27.20155,-5.08183 39.42464,4.63185 4.67512,3.71532 14.21608,8.61202 21.20211,10.88156 19.09123,6.20212 21.79586,9.49481 19.81055,24.11771 -4.25599,31.34777 -16.20631,59.69787 -36.66464,86.98072 -29.75627,39.68241 -75.31676,65.3805 -126.30694,71.24258 -25.01675,2.87606 -30.40431,2.75322 -51.71309,-1.17912 z m 68.28806,-7.43657 c 29.70418,-5.98605 71.28938,-28.15131 89.41291,-47.65781 l 5.63946,-6.0698 -26.1557,-0.90636 c -25.54577,-0.88523 -26.3613,-0.74938 -34.97245,5.82553 -13.68008,10.44525 -37.87861,20.72661 -55.18658,23.4474 -28.09551,4.41659 -60.75504,-4.31343 -83.1483,-22.22587 -9.56299,-7.64946 -9.59665,-7.65611 -34.99829,-6.91751 -13.98434,0.40662 -25.96221,1.27283 -26.61748,1.92491 -2.98802,2.97342 35.30025,30.57844 55.49908,40.01362 12.83866,5.99715 33.42642,12.57398 45.85981,14.65008 14.53856,2.42761 47.56001,1.36336 64.66754,-2.08419 z m 1.11012,-37.22541 c 7.63601,-2.87972 19.2802,-9.50158 25.876,-14.71524 l 11.99231,-9.47939 28.43169,-0.0355 c 17.93007,-0.0223 30.6403,-1.15311 34.4112,-3.06113 8.22518,-4.1618 27.87021,-42.32744 33.87761,-65.81616 2.64133,-10.32756 4.52943,-19.0289 4.19574,-19.3363 -0.33373,-0.30743 -8.38788,1.42858 -17.8982,3.85774 -34.35716,8.77563 -63.83543,10.77435 -158.90675,10.77435 -94.56298,0 -124.46014,-2.0011 -158.303348,-10.59568 -16.63847,-4.22539 -16.68796,-4.22311 -16.6594,0.76518 0.0889,15.52871 18.92249,60.7917 31.70896,76.20654 4.82522,5.8171 6.13805,6.05228 36.491328,6.53674 30.80493,0.49169 31.67473,0.6542 40.20883,7.51238 11.75421,9.44595 27.80779,17.51625 42.41688,21.32342 16.54913,4.31277 45.07243,2.50617 62.15715,-3.93687 z m 34.43102,-103.93962 c 54.42127,-3.53719 96.53785,-10.51858 103.72662,-17.19407 3.22615,-2.99581 -1.69686,-5.88093 -18.08237,-10.59717 -7.30137,-2.10155 -14.36137,-5.1547 -15.68889,-6.78475 -8.99677,-11.04716 -25.39239,-14.28195 -38.29128,-7.55471 -8.83805,4.60937 -30.24653,4.55547 -36.39054,-0.0917 -2.57688,-1.94907 -7.68675,-3.54375 -11.35524,-3.54375 -3.89642,0 -9.17916,-2.50919 -12.70417,-6.03419 -7.36351,-7.36351 -10.93534,-7.53525 -19.33316,-0.92951 -5.93051,4.66493 -7.41061,4.84679 -17.18166,2.11107 -9.93392,-2.78133 -11.63826,-2.53071 -24.03473,3.53432 l -13.34261,6.52793 -7.48801,-6.30075 c -4.62292,-3.88993 -9.14802,-5.77389 -11.82647,-4.92378 -2.38614,0.75734 -7.96477,-0.8339 -12.39696,-3.53607 -4.77447,-2.91085 -12.26092,-4.9167 -18.37055,-4.92205 -8.65469,-0.007 -11.96886,1.51816 -20.62065,9.49311 -7.53151,6.94231 -11.25581,8.90295 -13.8247,7.27798 -7.00076,-4.42841 -16.21344,-2.47485 -22.269388,4.72224 -4.05645,4.82081 -10.53861,8.31982 -20.68964,11.16806 -17.99116,5.04806 -22.9859,9.6429 -14.1386,13.00664 15.87908,6.03721 46.909298,10.53695 106.682368,15.47016 23.21379,1.91589 102.2558,1.3995 137.62063,-0.89909 z"
         style="fill:#000000;fill-opacity:1;fill-rule:nonzero;stroke:none;stroke-width:22.64026642;stroke-miterlimit:4;stroke-dasharray:none;stroke-opacity:1" />
      <path
         inkscape:connector-curvature="0"
         id="path839"
         d="m 351.68715,547.57709 c -1.14659,-1.38154 0.0655,-3.79826 6.20918,-12.38012 4.19863,-5.8649 10.04413,-15.1635 12.99002,-20.66354 5.71556,-10.67111 8.51333,-13.36467 10.89764,-10.49175 1.77351,2.13696 -0.91563,8.58128 -9.49579,22.75589 -10.0188,16.55125 -17.68919,24.2881 -20.60105,20.77952 z"
         style="fill:#000000;fill-opacity:1;fill-rule:nonzero;stroke:none;stroke-width:11.32013321;stroke-miterlimit:4;stroke-dasharray:none;stroke-opacity:1" />
      <path
         inkscape:connector-curvature="0"
         id="path841"
         d="m 221.3106,473.65885 c -1.6243,-1.13771 -5.68245,-2.95826 -9.01809,-4.04568 -4.45673,-1.45288 -6.06482,-2.58436 -6.06482,-4.26733 0,-3.17197 4.42495,-3.57152 12.61704,-1.13926 6.34967,1.88524 7.15581,1.86679 15.74363,-0.36034 7.79624,-2.02185 9.19,-2.10514 10.05173,-0.60066 1.11699,1.95011 -1.01275,5.24081 -3.39183,5.24081 -0.82083,0 -4.69164,1.62235 -8.60179,3.60523 -8.40699,4.26325 -7.63846,4.15699 -11.33587,1.56724 z"
         style="fill:#000000;fill-opacity:1;fill-rule:nonzero;stroke:none;stroke-width:11.32013321;stroke-miterlimit:4;stroke-dasharray:none;stroke-opacity:1" />
      <path
         inkscape:connector-curvature="0"
         id="path847"
         d="m 123.86105,460.09793 c -2.15722,-2.59843 -3.92222,-5.57557 -3.92222,-6.61585 0,-2.45237 4.65512,-2.48118 8.12572,-0.0502 2.19284,1.53593 3.54954,1.60924 8.18428,0.4422 9.25512,-2.33047 16.04915,2.79254 7.12471,5.37236 -1.93705,0.55996 -5.53025,2.05342 -7.98492,3.3188 -6.10569,3.14752 -7.03055,2.94957 -11.52757,-2.46722 z"
         style="fill:#000000;fill-opacity:1;fill-rule:nonzero;stroke:none;stroke-width:11.32013321;stroke-miterlimit:4;stroke-dasharray:none;stroke-opacity:1" />
      <path
         inkscape:connector-curvature="0"
         id="path849"
         d="m 226.33513,394.58121 c -2.18892,-2.18892 -1.69429,-3.80947 2.32957,-7.63226 5.55079,-5.2734 8.68214,-12.2176 8.68214,-19.25382 0,-4.98308 -1.11826,-8.20301 -6.20659,-17.87129 -5.19532,-9.87157 -6.20659,-12.82998 -6.20659,-18.15709 0,-8.73685 3.06572,-16.97067 8.41078,-22.58951 7.63597,-8.02706 12.93544,-4.93957 6.17423,3.59714 -9.16806,11.57563 -9.63434,21.53241 -1.60912,34.36105 8.83861,14.12887 8.72919,27.49359 -0.33253,40.61818 -3.78647,5.48416 -9.2924,8.87709 -11.24189,6.9276 z"
         style="fill:#000000;fill-opacity:1;fill-rule:nonzero;stroke:none;stroke-width:11.32013321;stroke-miterlimit:4;stroke-dasharray:none;stroke-opacity:1" />
      <path
         inkscape:connector-curvature="0"
         id="path851"
         d="m 184.56116,384.09926 c -0.37913,-0.61345 0.67496,-3.68125 2.34245,-6.81735 4.37111,-8.22094 3.98393,-13.37602 -1.79557,-23.90657 -2.65505,-4.83762 -4.82735,-10.31557 -4.82735,-12.17322 0,-8.2688 5.70037,-18.74303 10.20049,-18.74303 2.61348,0 2.33565,3.85559 -0.69711,9.67407 -3.3868,6.49772 -2.5248,12.98649 2.68982,20.24772 2.9185,4.06394 4.07037,7.12467 4.46298,11.85896 0.69309,8.35771 -0.22205,11.59416 -4.73027,16.72872 -3.69473,4.20807 -6.31618,5.28151 -7.64544,3.1307 z"
         style="fill:#000000;fill-opacity:1;fill-rule:nonzero;stroke:none;stroke-width:11.32013321;stroke-miterlimit:4;stroke-dasharray:none;stroke-opacity:1" />
      <path
         inkscape:connector-curvature="0"
         id="path853"
         d="m 275.62082,383.37849 c 0,-1.00987 1.48219,-4.07588 3.29376,-6.81334 4.63346,-7.00161 4.24961,-12.39119 -1.55191,-21.79039 -7.14071,-11.56887 -7.00546,-21.75657 0.40099,-30.20371 2.04829,-2.3361 5.73811,-2.79876 6.93074,-0.86904 0.4225,0.68361 -0.6316,3.63147 -2.34244,6.5508 -4.32675,7.38304 -3.9683,11.47506 1.94332,22.18429 5.64159,10.22002 6.48609,17.18317 2.92032,24.07862 -3.69,7.13565 -11.59478,11.81437 -11.59478,6.86277 z"
         style="fill:#000000;fill-opacity:1;fill-rule:nonzero;stroke:none;stroke-width:11.32013321;stroke-miterlimit:4;stroke-dasharray:none;stroke-opacity:1" />
      <path
         inkscape:connector-curvature="0"
         id="path855"
         d="m 91.212912,526.09814 c -2.5144,-3.02968 -9.89287,-19.59209 -9.89287,-22.20649 0,-1.47302 0.59785,-3.04771 1.32856,-3.49932 2.17351,-1.34329 5.3942,3.07737 10.04591,13.78879 3.40663,7.8444 4.0737,10.46591 2.99418,11.76667 -1.72135,2.07409 -2.84781,2.11193 -4.47578,0.15035 z"
         style="fill:#000000;fill-opacity:1;fill-rule:nonzero;stroke:none;stroke-width:11.32013321;stroke-miterlimit:4;stroke-dasharray:none;stroke-opacity:1" />
    </g>
    <g
       id="g913"
       transform="rotate(14.480276,-1321.4094,564.58887)"
       inkscape:transform-center-x="1.0172151"
       style="opacity:1;">
      <path
         id="path2"
         d="m 366.16403,650.05757 c -2.17093,-6.36764 -10.3403,-3.75088 -15.19492,-4.61117 -4.01663,-0.7118 -7.63076,-3.67782 -11.63866,-4.71431 -7.57613,-1.95933 -18.49999,1.75172 -22.77687,8.3556 -4.35739,6.72844 -4.79901,16.32872 -3.01044,23.92392 0.65766,2.79295 2.18393,5.2875 2.86628,8.08241 1.26147,5.16692 1.76908,11.81938 1.49499,17.1347 -0.25427,4.93058 -6.23315,12.8216 -3.3112,17.45767 11.70885,-6.36379 36.73736,-0.86114 43.38604,7.11474 1.28186,-1.06137 0.98023,-3.36777 1.16483,-4.85138 0.48849,-3.92579 0.51081,-8.80724 2.523,-12.28526 5.01271,-8.66466 11.35707,-16.57992 16.93134,-24.8938 2.53466,-3.78031 6.04435,-8.08596 7.11479,-12.60856 1.11441,-4.7101 0.67957,-12.1443 -2.8602,-15.73192 -4.1618,-4.21772 -10.71857,-4.06189 -15.93754,-2.51593 m -19.17923,-3.73633 c -6.30201,1.96024 -10.65842,11.55914 -10.66876,17.7813 -0.0751,1.99819 -0.77657,5.64798 1.29318,6.78922 -0.90459,-7.15811 0.51145,-17.86665 7.16779,-22.26024 4.58661,-3.02773 15.01033,-3.52845 18.89312,0.95644 2.4092,2.78309 2.4273,7.16359 2.00637,10.63515 -0.687,5.66156 -5.48181,9.38302 -7.69962,14.22504 4.04541,-1.13865 8.68762,-10.15474 8.90003,-14.22504 0.21369,-4.09163 -1.73385,-8.34395 3.38522,-9.72217 10.23556,-2.75632 13.85746,6.64278 13.45947,14.7546 -0.44104,3.01422 -2.12638,7.54089 -3.77804,10.16249 -3.6998,5.87171 -7.333,12.24355 -11.92866,17.458 -1.46582,1.66336 -5.83097,8.89291 -8.54472,5.62083 -0.9285,-1.11958 0.27545,-2.68918 0.86967,-3.68105 2.05034,-3.42112 4.37937,-6.54417 6.36603,-10.02219 -3.97202,1.95369 -4.85138,8.4972 -9.0523,10.98917 -2.201,1.30547 -6.57519,-0.63107 -7.0097,-3.2349 -0.44422,-2.66203 1.18908,-6.1824 2.48355,-8.40086 -2.90223,2.14249 -2.16899,6.21893 -4.65222,8.1655 -1.30127,1.02 -3.67427,0.25688 -5.08093,-0.0933 -1.51238,-0.37599 -3.84788,-0.54947 -4.94353,-1.77218 -0.81406,-0.90878 -0.5163,-2.59251 -0.51824,-3.7137 -0.005,-2.51945 -0.32782,-5.00883 -0.96988,-7.43582 0,0 0.72482,8.16227 -0.92399,10.24268 -1.56248,1.97145 -7.95276,1.35596 -8.44256,-0.87322 l -0.65564,-7.42968 c -0.85059,2.33388 -0.11187,4.84751 -0.96019,7.10637 -0.51177,1.36335 -3.42791,3.27662 -4.3409,1.24664 -0.82505,-1.8347 -0.36025,-5.04019 -0.55206,-7.05982 -0.26762,-2.81785 -1.19277,-5.97193 -1.90609,-8.729 0,0 0.92039,8.55248 0.96863,12.60856 0.021,1.76389 -0.50938,5.70003 -1.72249,3.88246 -1.34394,-3.48998 -0.92453,-5.58268 -1.79957,-9.16674 -0.65655,-2.68918 -2.10152,-5.94833 -2.78794,-8.61779 -1.79947,-6.99807 -1.07632,-15.31648 2.54098,-21.66085 4.65966,-8.1726 17.21973,-11.39296 25.43113,-7.51825 1.70765,0.80585 4.10327,1.35911 5.17274,2.99198 m -20.36766,12.93185 0.25174,0.42927 c 0.38182,-4.79675 3.43406,-11.17894 8.47716,-12.3913 -4.97424,-2.06777 -10.3846,7.9602 -8.729,11.96197 m 47.20125,-3.55627 c 1.07076,2.61056 2.11711,5.01013 1.57139,7.9185 -0.20573,2.31868 -1.69941,4.98846 -2.21798,7.27643 3.39235,-2.82099 4.98781,-12.29398 0.64659,-15.19493 m -16.48811,64.01266 c -12.08351,-6.35794 -29.53958,-9.70341 -42.9984,-6.14263 0.23052,-5.04407 3.45087,-9.49456 3.84949,-14.54833 0.13488,-1.71088 -0.43448,-4.8627 0.86889,-6.23897 1.99749,-2.10918 6.87329,-1.55021 9.50686,-1.51885 8.67436,0.10313 18.22226,1.72124 25.86369,6.00426 1.94398,1.08983 5.02371,2.07977 6.2658,4.03053 1.10568,1.73643 -1.06105,3.85273 -1.62359,5.48214 -1.29576,3.75315 -1.72995,8.95692 -1.73254,12.93185 m -2.79153,0.39888 c 12.91854,-7.90325 -58.41443,-14.76451 -20.68576,-8.38212 8.64172,0.35772 12.8038,4.11135 20.68576,8.38212 z"
         inkscape:connector-curvature="0"
         style="stroke-width:0.32329622;opacity:0.318"
         sodipodi:nodetypes="cccccccccccccccccccccccccccccccscccccccccccsccccsccccccccccccccccccccccc" />
      <path
         inkscape:connector-curvature="0"
         id="path909"
         d="m 355.5561,718.16607 c -5.63658,-2.59631 -12.66264,-4.65721 -19.3004,-5.66124 -4.82402,-0.72967 -13.26262,-0.74605 -17.21846,-0.0334 -1.64512,0.29636 -3.13657,0.53885 -3.31433,0.53885 -0.65427,0 -0.28364,-1.82716 1.33774,-6.59484 1.48762,-4.37437 1.68497,-5.28251 1.89123,-8.7025 0.36219,-6.00564 0.97866,-6.44322 9.00756,-6.39375 11.42148,0.0704 18.52722,1.65762 27.46482,6.13495 4.34493,2.1766 6.2143,3.60755 6.2143,4.75684 0,0.25756 -0.4909,1.44683 -1.0909,2.64282 -1.4099,2.81036 -2.15054,6.13013 -2.37882,10.66243 -0.10076,2.00072 -0.27072,3.6269 -0.37768,3.61371 -0.10694,-0.0132 -1.11273,-0.44692 -2.23506,-0.96388 z"
         style="fill:#ffffff;fill-opacity:1;fill-rule:nonzero;stroke:none;stroke-width:3.03301072;stroke-miterlimit:4;stroke-dasharray:none;stroke-opacity:1" />
    </g>
  </g>
</svg>
