<?xml version="1.0" encoding="UTF-8" standalone="no"?>
<svg
   xmlns:dc="http://purl.org/dc/elements/1.1/"
   xmlns:cc="http://creativecommons.org/ns#"
   xmlns:rdf="http://www.w3.org/1999/02/22-rdf-syntax-ns#"
   xmlns:svg="http://www.w3.org/2000/svg"
   xmlns="http://www.w3.org/2000/svg"
   xmlns:sodipodi="http://sodipodi.sourceforge.net/DTD/sodipodi-0.dtd"
   xmlns:inkscape="http://www.inkscape.org/namespaces/inkscape"
   id="svg8"
   version="1.1"
   viewBox="0 0 323 106"
   height="106mm"
   width="323mm"
   sodipodi:docname="logo.svg"
   inkscape:version="0.92.3 (2405546, 2018-03-11)">
  <sodipodi:namedview
     pagecolor="#ffffff"
     bordercolor="#666666"
     borderopacity="1"
     objecttolerance="10"
     gridtolerance="10"
     guidetolerance="10"
     inkscape:pageopacity="0"
     inkscape:pageshadow="2"
     inkscape:window-width="1280"
     inkscape:window-height="961"
     id="namedview7"
     showgrid="false"
     width="298mm"
     inkscape:zoom="0.2973261"
     inkscape:cx="752.78432"
     inkscape:cy="-44.101228"
     inkscape:window-x="-8"
     inkscape:window-y="-8"
     inkscape:window-maximized="1"
     inkscape:current-layer="svg8" />
  <defs
     id="defs2" />
  <metadata
     id="metadata5">
    <rdf:RDF>
      <cc:Work
         rdf:about="">
        <dc:format>image/svg+xml</dc:format>
        <dc:type
           rdf:resource="http://purl.org/dc/dcmitype/StillImage" />
        <dc:title />
      </cc:Work>
    </rdf:RDF>
  </metadata>
  <g
     id="layer1"
     transform="translate(81.800848,0.28813203)"
     style="fill:none;fill-opacity:1;stroke:#000000;stroke-opacity:1;stroke-width:2.48179174;stroke-miterlimit:4;stroke-dasharray:none">
    <path
       id="path1377"
       d="M -80.282145,54.339292 V 0.0997119 H 81.64286 243.56786 V 54.339292 108.57886 H 81.64286 -80.282145 Z m 62.044794,39.55959 c 5.774875,-0.59558 9.7494513,-1.85852 11.5073063,-3.6565 0.837245,-0.85635 1.057235,-2.0347 0.46509,-2.49119 -0.531556,-0.40978 -1.643301,0.008 -1.736738,0.65293 -0.162582,1.12185 -3.2132733,2.34321 -7.8391743,3.13845 -3.79164,0.65183 -12.543044,0.78916 -16.685649,0.26185 -5.8547,-0.74525 -10.01399,-2.16436 -10.357739,-3.53396 -0.128612,-0.51243 -0.30243,-0.60817 -0.983822,-0.54189 -0.687133,0.0668 -0.8421,0.2069 -0.912979,0.8252 -0.469165,4.09263 12.793094,6.76325 26.543705,5.34511 z m 92.246958,-1.72335 c 2.744002,-0.91932 3.461081,-1.33486 2.740025,-1.58779 -0.37488,-0.1315 -0.262131,-0.38394 0.701953,-1.57161 0.631711,-0.77823 1.368628,-1.69803 1.637596,-2.04402 0.268965,-0.34599 0.643046,-1.31124 0.831292,-2.14501 0.188245,-0.83377 0.647528,-2.35217 1.020625,-3.37423 1.059071,-2.90119 1.354209,-5.33624 0.851815,-7.02798 -0.227105,-0.76475 -0.611756,-1.69756 -0.854781,-2.07292 -1.021062,-1.57708 -4.439291,-5.33032 -4.954601,-5.44021 -0.30711,-0.0655 -1.510872,-0.16304 -2.67503,-0.21679 l -2.116649,-0.0977 -1.264311,1.3455 c -2.343489,2.49399 -5.280761,7.42556 -6.15936,10.34134 -0.665858,2.20976 -0.800076,5.93333 -0.272058,7.54766 0.649465,1.98561 2.340145,4.52306 4.062542,6.09724 1.450684,1.32584 1.529128,1.36059 2.746079,1.21646 0.689004,-0.0816 2.356194,-0.51806 3.704863,-0.96991 z m -3.935889,-8.15011 c 0.341905,-5.27735 2.836138,-9.23327 5.673886,-8.99895 0.858782,0.0709 1.068822,0.22249 1.483162,1.07037 0.422013,0.86358 0.444222,1.17309 0.176662,2.46192 -0.528373,2.54517 -3.031379,6.62905 -4.548825,7.42183 -0.392956,0.2053 -1.214252,0.37327 -1.825101,0.37327 h -1.110636 z m 27.483806,8.15011 c 2.744006,-0.91932 3.461086,-1.33486 2.740026,-1.58779 -0.374881,-0.1315 -0.26213,-0.38394 0.70195,-1.57161 2.04405,-2.51812 2.14812,-2.69002 2.38009,-3.93175 0.12586,-0.67366 0.57345,-2.12213 0.99466,-3.21882 1.12949,-2.94085 1.48604,-5.69145 0.96513,-7.44556 -0.22631,-0.76206 -0.60975,-1.69267 -0.85208,-2.06803 -0.80695,-1.24991 -4.41647,-5.30656 -4.83612,-5.43521 -0.227441,-0.0697 -1.455629,-0.15998 -2.729309,-0.20056 l -2.315782,-0.0738 -1.061424,1.19063 c -1.882603,2.11176 -3.355909,4.30513 -4.709652,7.01145 -1.613956,3.22653 -1.863204,4.08946 -2.075537,7.18584 -0.130932,1.90928 -0.07057,2.71564 0.284565,3.80141 0.649464,1.98561 2.340144,4.52306 4.062542,6.09724 1.450684,1.32584 1.529127,1.36059 2.746079,1.21646 0.689004,-0.0816 2.356194,-0.51806 3.704862,-0.96991 z m -4.00382,-7.34302 c 0.01019,-3.37412 1.147855,-6.68974 2.923047,-8.51895 1.808893,-1.86394 3.838269,-1.82814 4.467619,0.0788 0.55717,1.68825 -0.58277,4.88568 -2.787453,7.81856 -1.229064,1.63501 -2.11105,2.14291 -3.721246,2.14291 H 93.54911 l 0.0046,-1.52135 z m 22.384106,7.26784 c 0.454,-0.49541 1.08175,-1.60409 1.39498,-2.46372 1.00267,-2.75174 1.41947,-3.54753 1.85494,-3.54163 0.23256,0.003 1.48837,0.24128 2.79068,0.52917 1.30232,0.28789 2.93496,0.52344 3.6281,0.52344 2.16443,0 6.1195,-1.83426 5.20501,-2.41395 -0.19417,-0.12308 -1.12694,-0.22702 -2.07283,-0.23097 -2.96975,-0.0124 -6.54098,-1.29718 -7.11643,-2.56015 -0.59071,-1.29648 -0.1808,-4.93125 0.75286,-6.67582 0.4967,-0.92808 5.42186,-7.51307 5.93998,-7.94179 0.51376,-0.42512 1.21734,-1.96672 1.21734,-2.66729 0,-0.56798 -2.4552,-2.8521 -3.29128,-3.06194 -0.33234,-0.0834 -1.00053,-0.11311 -1.48488,-0.066 -0.69533,0.0676 -0.99534,0.28876 -1.42568,1.05087 -0.29977,0.53087 -1.06973,1.60244 -1.71103,2.38125 -0.64131,0.77881 -1.6061,2.09206 -2.14399,2.91832 l -0.97798,1.5023 -0.14919,-3.5583 c -0.13382,-3.19167 -0.21907,-3.67753 -0.82739,-4.71556 -1.15756,-1.97523 -3.14098,-3.32885 -4.11436,-2.80791 -0.65676,0.35148 -0.73536,0.62988 -1.06151,3.75952 -0.15648,1.50158 -0.4516,3.56359 -0.65581,4.58224 -0.20422,1.01864 -0.44035,3.24357 -0.52473,4.94428 -0.0844,1.7007 -0.2564,3.36758 -0.38226,3.70416 -0.12586,0.33659 -0.19788,3.17182 -0.16004,6.30051 0.0742,6.13478 0.4991,8.75276 1.7488,10.77481 0.53672,0.86843 0.63946,0.91683 1.65671,0.78039 0.78599,-0.10543 1.31173,-0.39341 1.90999,-1.04621 z m 83.21971,0.0752 c 2.744,-0.91932 3.4611,-1.33486 2.74003,-1.58779 -0.37489,-0.1315 -0.26212,-0.38394 0.70196,-1.57161 2.04404,-2.51812 2.1481,-2.69002 2.38009,-3.93175 0.12584,-0.67366 0.57343,-2.12213 0.99465,-3.21882 1.12951,-2.94085 1.48606,-5.69145 0.96512,-7.44556 -0.2263,-0.76206 -0.60973,-1.69267 -0.85206,-2.06803 -0.80696,-1.24991 -4.41648,-5.30656 -4.83614,-5.43521 -0.22743,-0.0697 -1.45563,-0.15998 -2.72931,-0.20056 l -2.31576,-0.0738 -1.06143,1.19063 c -1.88259,2.11176 -3.35592,4.30513 -4.70967,7.01145 -1.61395,3.22653 -1.86319,4.08946 -2.07552,7.18584 -0.13094,1.90928 -0.0706,2.71564 0.28456,3.80141 0.64947,1.98561 2.34013,4.52306 4.06254,6.09724 1.45069,1.32584 1.52914,1.36059 2.74609,1.21646 0.689,-0.0816 2.35619,-0.51806 3.70485,-0.96991 z m -4.0038,-7.34302 c 0.0103,-3.37412 1.14784,-6.68974 2.92303,-8.51895 1.80891,-1.86394 3.83826,-1.82814 4.46763,0.0788 0.55716,1.68825 -0.58278,4.88568 -2.78747,7.81856 -1.22907,1.63501 -2.11103,2.14291 -3.72123,2.14291 h -0.88657 l 0.005,-1.52135 z m -15.05919,6.24338 c 1.43524,-0.48681 2.37924,-1.28091 2.90877,-2.4469 0.60158,-1.32464 0.62162,-2.04808 0.10494,-3.78795 -0.96755,-3.25809 -4.36893,-6.69717 -8.97879,-9.07834 -4.46703,-2.30738 -5.46927,-3.50311 -4.92722,-5.87847 0.77047,-3.37631 5.66173,-7.4691 8.8829,-7.43283 1.51467,0.0171 4.36398,0.77163 4.36398,1.15569 0,0.42151 0.72401,0.29141 0.89774,-0.16132 0.33492,-0.8728 0.1396,-3.67292 -0.39228,-5.62359 -0.70982,-2.60326 -0.79552,-2.7548 -1.69378,-2.99503 -0.41302,-0.11046 -0.84622,-0.35471 -0.96265,-0.54279 -0.38526,-0.62229 -2.95143,-0.40393 -4.10645,0.34943 -0.56024,0.36541 -1.73299,0.94646 -2.60612,1.2912 -3.06101,1.20861 -7.25828,4.08343 -8.17441,5.59887 -0.2335,0.38625 -0.42455,0.94004 -0.42455,1.23064 0,0.31852 -0.35086,0.73536 -0.88347,1.04961 -0.60336,0.35599 -1.01485,0.88858 -1.29782,1.67978 -0.22789,0.63719 -0.61518,1.6943 -0.86064,2.34915 -0.30257,0.80721 -0.39513,1.56994 -0.28742,2.36853 0.44567,3.30424 3.00519,5.97164 8.8856,9.2601 2.96083,1.65576 3.96875,2.33726 3.96875,2.68343 0,0.48438 -1.34644,0.75723 -5.75289,1.16578 -7.21664,0.6691 -10.12211,1.34579 -10.12211,2.35747 0,0.57482 1.66104,1.21106 4.9331,1.88959 2.25868,0.46837 3.24377,0.80238 3.83584,1.30057 0.43816,0.36869 1.0407,0.67035 1.33896,0.67035 0.29826,0 1.74764,0.35034 3.22084,0.77853 1.47321,0.42819 2.91668,0.8311 3.20772,0.89535 1.09898,0.24261 4.05695,0.16637 4.92146,-0.12685 z m -198.979163,-1.16373 c 10.2481463,-1.42937 19.79723939,-6.15575 27.7222143,-13.72128 3.4464227,-3.29011 8.0287287,-9.8708 9.5640397,-13.73499 0.447188,-1.12553 0.679772,-1.44637 0.863107,-1.19063 0.187757,0.2619 0.21448,0.23614 0.106106,-0.1023 -0.07967,-0.2488 0.146479,-1.28624 0.502558,-2.30541 1.120026,-3.20576 1.976054,-6.40065 2.413966,-9.00945 0.60121,-3.58165 0.590087,-4.86274 -0.04836,-5.56921 -0.816725,-0.90377 -2.92602,-1.8661 -5.815932,-2.65345 -2.348394,-0.63981 -2.787115,-0.85751 -3.90259,-1.93654 -1.485522,-1.437 -3.208338,-2.35933 -5.2583695,-2.81515 -2.134116,-0.47452 -4.0579544,-0.15706 -6.56073811,1.08259 l -2.10510449,1.04268 -2.3313895,-0.1782 c -1.9435441,-0.14856 -2.4726051,-0.29062 -3.1802441,-0.85391 -0.489595,-0.38972 -0.732181,-0.7478 -0.573183,-0.84606 0.15162,-0.0937 -0.06171,-0.17117 -0.474062,-0.17214 -0.412355,-10e-4 -1.370422,-0.11814 -2.1290383,-0.26038 -0.758619,-0.14224 -1.317138,-0.15803 -1.241158,-0.0351 0.396685,0.64185 -0.352224,0.077 -1.249635,-0.94251 -1.078386,-1.22511 -2.777215,-2.01413 -4.312976,-2.00315 -1.00517,0.007 -2.659375,0.74271 -3.759803,1.67175 -0.792091,0.66873 -0.877726,0.68434 -1.85742,0.33869 -2.810666,-0.99167 -5.668259,-0.68447 -8.50019,0.91377 -0.771271,0.43528 -1.534689,0.7096 -1.696482,0.60961 -0.171545,-0.10602 -0.220186,-0.0621 -0.116684,0.10537 0.09762,0.15795 0.05648,0.36197 -0.09141,0.45337 -0.147894,0.0914 -0.268898,0.041 -0.268898,-0.11197 0,-0.48385 -1.590257,-1.71911 -2.852074,-2.2154 -0.802711,-0.31571 -1.539002,-0.42325 -2.169086,-0.31679 -0.787834,0.1331 -1.222478,-5.3e-4 -2.49696,-0.76805 -2.113862,-1.2729 -4.92537,-1.8903 -6.817389,-1.49709 -2.166618,0.45029 -3.916249,1.38349 -5.713455,3.04738 l -1.641142,1.51941 -1.240621,-0.42272 c -1.607959,-0.54789 -2.154541,-0.53305 -3.859198,0.10474 -1.367027,0.51147 -2.99731,1.90301 -3.59077,3.06493 -0.21181,0.4147 -0.950485,0.72383 -3.007845,1.25875 -3.160217,0.82168 -5.927314,2.12229 -6.651133,3.12621 -0.4893,0.67865 -0.491734,0.80263 -0.07533,3.83646 2.268674,16.52919 12.283419,30.15944 27.442703,37.35002 3.271777,1.55192 4.277477,1.93077 7.777512,2.92984 1.828234,0.52185 5.474769,1.23997 7.276042,1.43287 2.55905,0.27406 9.241703,0.14703 11.920427,-0.22659 z m -11.258969,-1.87578 c -0.980424,-0.1091 -4.323188,-0.67366 -6.02067,-1.01683 -3.106082,-0.62794 -10.645972,-3.68058 -10.334732,-4.18418 0.09636,-0.15591 0.03264,-0.18546 -0.152789,-0.0709 -0.623011,0.38505 -6.129401,-3.26564 -9.787409,-6.48897 -3.532298,-3.11256 -3.759046,-2.8316 2.275602,-2.81963 2.879019,0.006 5.871002,-0.11001 6.648848,-0.25717 l 1.414269,-0.26756 1.486014,1.30037 c 6.01019,5.25939 14.238619,7.93008 21.893372,7.10592 6.184551,-0.66587 12.467646,-3.4164 16.8523163,-7.37739 l 0.9914831,-0.89568 3.5064334,0.32339 c 2.5756421,0.23755 4.3488267,0.25099 6.6798694,0.0506 1.7453928,-0.15001 3.2336741,-0.21014 3.3072918,-0.13362 0.2452767,0.25495 -4.3294592,4.35896 -6.8776058,6.16992 -5.8954278,4.18986 -11.7717102,6.7143 -18.7854172,8.07016 -2.209218,0.42708 -10.783983,0.74886 -13.096876,0.49149 z m 1.932506,-8.83779 c -5.862635,-0.68355 -11.156926,-3.07266 -15.470283,-6.98112 l -1.631524,-1.47838 -1.940351,0.27838 c -2.724261,0.39085 -7.443809,0.50579 -9.480974,0.23089 -0.945885,-0.12763 -2.434166,-0.30017 -3.307291,-0.38342 -1.815107,-0.17306 -1.705168,-0.0731 -4.208538,-3.82565 -1.784191,-2.6745 -3.48314,-5.89946 -4.251257,-8.0698 -0.257511,-0.7276 -0.62024,-1.6801 -0.806063,-2.11666 -0.552002,-1.29684 -2.117253,-8.33438 -1.853686,-8.33438 0.06161,0 1.040899,0.29323 2.176198,0.65162 7.896122,2.49264 23.175503,3.84358 43.471472,3.84358 20.8057814,0 36.982475,-1.48666 43.98698,-4.04245 l 1.785938,-0.65165 -0.0042,0.56247 c -0.0069,0.94191 -0.973191,5.19132 -1.722194,7.57393 -1.306904,4.15733 -5.16794,11.45402 -7.22267,13.64962 -0.983303,1.05071 -7.2363069,1.56688 -12.8791155,1.06314 -4.0384022,-0.36051 -3.8917911,-0.39044 -5.6024012,1.14364 -4.4655403,4.00469 -9.4050283,6.20676 -15.4925403,6.90671 -2.433357,0.27979 -2.989898,0.27774 -5.547554,-0.0205 z M 6.9576928,66.765242 c 1.2754584,-1.24699 3.9749072,-5.33553 5.2797292,-7.99657 1.006684,-2.05303 1.135808,-2.49312 0.874657,-2.98108 -0.223962,-0.41848 -0.482013,-0.5389 -0.95929,-0.44767 -0.514458,0.0984 -0.909558,0.63583 -1.863188,2.53462 -1.289719,2.56798 -3.1075574,5.39311 -4.6789046,7.27155 -1.0297875,1.23104 -1.1441563,1.60479 -0.6440885,2.10486 0.5156253,0.51563 1.116928,0.36895 1.9910849,-0.48571 z m -68.6056108,-5.16881 c 0.228675,-0.22868 0.415774,-0.49436 0.415774,-0.59042 0,-0.096 -0.625079,-1.5751 -1.389063,-3.28677 -1.27331,-2.8528 -1.448209,-3.11227 -2.098837,-3.11376 -0.486664,-0.001 -0.764514,0.17086 -0.883916,0.54706 -0.195895,0.61721 0.04743,1.31087 1.522333,4.33985 1.260395,2.58843 1.62988,2.90787 2.433709,2.10404 z m 21.053274,-10.88618 c -4.091839,-0.17424 -13.14985,-0.9351 -16.873538,-1.41734 -8.309685,-1.07616 -14.54022,-2.73056 -13.940128,-3.70153 0.344044,-0.55667 2.756255,-1.54069 5.149082,-2.10047 3.744385,-0.87597 3.804535,-0.90083 4.233334,-1.74963 1.466862,-2.9036 4.120227,-3.74271 6.570345,-2.07781 1.137187,0.77274 1.310396,0.68851 3.070974,-1.49334 3.016004,-3.73769 7.508862,-4.34871 11.235642,-1.52801 1.29036,0.97664 1.437516,1.02472 2.368717,0.77397 1.055997,-0.28435 2.40797,-0.039 3.141991,0.57018 0.22397,0.18588 0.690176,0.78619 1.03601,1.33403 0.852578,1.35057 1.586151,1.31073 3.589121,-0.19493 2.823813,-2.1227 5.598187,-2.45913 8.64362,-1.04816 1.340943,0.62127 1.418495,0.62837 2.027283,0.1858 0.348152,-0.2531 0.636743,-0.55798 0.641318,-0.67752 0.0046,-0.11953 0.157141,-0.36253 0.339042,-0.53999 2.008871,-1.95985 4.672547,-1.48607 5.785068,1.02897 0.558797,1.26325 0.927303,1.40993 2.264746,0.90143 1.073552,-0.40816 2.2893653,-0.0893 3.4924813,0.91584 1.017574,0.85015 1.154584,0.88575 4.1105461,1.06777 l 3.05788199,0.18831 1.5256272,-0.93193 c 1.92511111,-1.17595 3.61651831,-1.6008 5.45740451,-1.3708 2.0729444,0.259 4.3449349,1.62147 5.5334429,3.31831 0.305782,0.43656 1.067779,0.74074 3.01267,1.20263 3.008405,0.71447 5.646071,1.80689 5.646071,2.33838 0,0.2022 -0.589722,0.62132 -1.310494,0.93139 -3.98098,1.71257 -14.9109833,3.24089 -28.5874227,3.99733 -4.2342793,0.2342 -26.2549443,0.28859 -31.2208353,0.0771 z m 14.143694,-2.97762 c 0.62819,-0.43221 1.629659,-0.86379 2.22549,-0.95906 1.23408,-0.19734 1.745888,-0.66506 1.549506,-1.41602 -0.07449,-0.28484 7.94e-4,-0.56375 0.167211,-0.6198 0.166452,-0.056 -0.114077,-0.11427 -0.6234,-0.12939 -0.509323,-0.0151 -1.804138,0.27549 -2.877371,0.64578 -1.6716,0.57674 -2.050886,0.62629 -2.645833,0.34561 -2.596674,-1.22504 -4.639591,-1.12548 -4.479404,0.21831 0.07092,0.59496 0.262618,0.71338 1.577676,0.97463 0.862542,0.17135 1.871708,0.59478 2.38125,0.99915 1.129051,0.89599 1.3433,0.89134 2.724875,-0.0592 z m -25.017942,-2.65858 c 0.696592,-0.47201 1.507281,-0.78893 2.018125,-0.78893 0.974439,0 1.537608,-0.51641 1.283978,-1.17736 -0.270375,-0.70458 -1.329187,-0.98515 -2.513912,-0.66613 -0.571259,0.15382 -1.173364,0.19642 -1.338011,0.0947 -0.183296,-0.11329 -0.226166,-0.0666 -0.110572,0.12044 0.27441,0.44401 -0.340289,0.37459 -0.805887,-0.091 -0.486981,-0.48698 -1.541816,-0.77241 -2.084674,-0.56409 -0.796319,0.30557 -0.781098,1.02349 0.03676,1.73407 0.431555,0.37494 0.990744,1.00913 1.24264,1.40932 0.575025,0.91352 0.830445,0.90554 2.271549,-0.071 z m 97.922168,43.59615 c 2.047544,-0.97414 5.961692,-4.77151 7.368074,-7.14824 0.957951,-1.61891 1.20668,-3.24091 0.558419,-3.64156 -0.597646,-0.36937 -1.466366,-0.0584 -5.016077,1.7954 -1.81901,0.94997 -3.783541,1.96915 -4.365625,2.26483 -1.558568,0.79172 -3.596463,0.76104 -4.479039,-0.0674 -1.44332,-1.35487 -1.495983,-3.90462 -0.162647,-7.8747 1.528765,-4.55199 4.620906,-8.45874 8.011965,-10.12269 2.255276,-1.10663 3.353379,-1.02402 6.331341,0.47634 2.464695,1.24176 2.927255,1.17854 3.420415,-0.46748 0.415025,-1.38523 0.180239,-1.95959 -2.174248,-5.31886 -1.073574,-1.53172 -2.249609,-3.35171 -2.613412,-4.04443 -0.794792,-1.51336 -1.104029,-1.61622 -4.348646,-1.44651 -2.174296,0.11373 -2.66704,0.23965 -4.407475,1.12632 -5.135803,2.61644 -7.834884,5.50107 -10.916949,11.66741 -2.263944,4.52952 -2.906086,10.52615 -1.517438,14.17056 1.095163,2.87417 4.85064,7.36022 7.17528,8.57112 2.603447,1.35613 4.380236,1.37106 7.136062,0.0599 z m 188.184264,-0.39811 c 1.21272,-1.36248 1.60033,-5.8728 0.84635,-9.84757 -0.50218,-2.64725 -1.70765,-6.26053 -2.5922,-7.76991 -0.99933,-1.70522 -3.10102,-3.54519 -4.30872,-3.77214 -0.89966,-0.16907 -2.5015,0.004 -5.29129,0.57123 -0.70242,0.14286 -0.99042,0.0231 -1.88262,-0.78296 -0.57933,-0.52339 -1.45632,-1.14117 -1.94884,-1.37283 -0.49252,-0.23166 -1.3122,-0.64881 -1.82152,-0.927 -0.70173,-0.38328 -1.45989,-0.5059 -3.12989,-0.50621 l -2.20382,-5.3e-4 0.13914,0.7276 c 0.4377,2.28863 0.44022,3.27455 0.0161,6.309 -0.40463,2.89484 -0.4241,3.76986 -0.15145,6.80771 0.41045,4.5735 0.9312,6.97811 1.68736,7.79162 0.78078,0.84005 3.09602,2.1709 3.78214,2.17408 0.29503,0.001 0.81174,0.19531 1.14824,0.431 0.46982,0.32908 0.75192,0.36467 1.21568,0.15336 1.07018,-0.48761 1.67915,-2.26914 2.1123,-6.17954 0.42188,-3.80897 0.88789,-5.39694 2.35593,-8.02838 1.5146,-2.71492 1.90177,-2.37798 2.81866,2.45309 0.82333,4.33823 1.31212,6.09951 2.2869,8.24026 1.47854,3.24716 3.73308,4.8633 4.92156,3.528 z m -90.55301,-5.06205 c 0.94588,-0.25712 3.47436,-0.99438 5.61882,-1.63839 l 3.89904,-1.17091 0.004,-0.81742 c 0.006,-1.28655 -0.65278,-1.43251 -6.42502,-1.42436 -8.63119,0.0122 -11.27669,0.47634 -11.5087,2.01927 -0.0886,0.58903 1.83911,2.92432 2.70207,3.27342 0.93028,0.37633 3.89904,0.25071 5.71022,-0.24161 z M -25.7324,26.756482 c 1.380869,-1.03699 2.799853,-3.67256 3.031824,-5.63119 0.221774,-1.87252 -0.475266,-4.36592 -1.737413,-6.21496 -2.236512,-3.2765 -2.109086,-6.2697301 0.384405,-9.0297201 0.959707,-1.06228 1.026388,-1.2308 0.760841,-1.92281 -0.280834,-0.73184 -1.348147,-0.47322 -2.367603,0.57368 -1.404421,1.44223 -2.281983,3.34067 -2.437013,5.27201 -0.177536,2.2117101 0.261075,3.7667901 1.672077,5.9283101 1.481343,2.26928 1.914689,3.96431 1.48709,5.81677 -0.347678,1.50623 -1.526587,3.38226 -2.544598,4.04928 -0.724403,0.47465 -0.874411,1.18555 -0.358937,1.70102 0.487828,0.48783 0.867455,0.39021 2.109327,-0.54239 z m -10.904625,-2.64584 c 1.183386,-1.15232 1.598631,-2.24042 1.598631,-4.18903 0,-1.26021 -0.158377,-1.91733 -0.703508,-2.91891 -0.38693,-0.71092 -0.785567,-1.29258 -0.885857,-1.29258 -0.100293,0 -0.395256,-0.47214 -0.655473,-1.04919 -0.60836,-1.34911 -0.418502,-2.88093 0.525997,-4.24384 0.823804,-1.1887601 0.719888,-2.1153001 -0.237242,-2.1153001 -1.097092,0 -2.426195,1.9928801 -2.709992,4.0634201 -0.201869,1.47278 0.21857,2.78648 1.524712,4.76412 0.801145,1.21303 1.024697,1.80654 1.024697,2.72048 0,1.30908 -0.489993,2.68784 -1.149641,3.2349 -0.514443,0.42663 -0.582833,1.51865 -0.10713,1.7106 0.649258,0.26198 0.903271,0.16399 1.774806,-0.68467 z m 23.565698,0.326 c 1.540364,-1.09684 2.345962,-3.37194 1.973858,-5.57441 -0.105712,-0.62571 -0.694495,-1.824 -1.397535,-2.84427 -1.048343,-1.52139 -1.215594,-1.94714 -1.220197,-3.10614 -0.0044,-1.09728 0.148346,-1.55206 0.834353,-2.48489 0.660688,-0.8983901 0.783595,-1.2466101 0.576556,-1.6334701 -0.358622,-0.67009 -1.358996,-0.61875 -2.01953,0.10364 -1.902233,2.0803701 -2.103224,5.1331001 -0.48513,7.3683701 2.031598,2.80649 2.213827,4.44561 0.70322,6.32536 -1.098457,1.36688 -1.075597,2.25272 0.06087,2.35882 0.123058,0.0115 0.561147,-0.21937 0.973535,-0.51301 z"
       style="fill:none;stroke-width:2.48179174;fill-opacity:1;stroke:#000000;stroke-opacity:1;stroke-miterlimit:4;stroke-dasharray:none"
       inkscape:connector-curvature="0" />
  </g>
</svg>
