<?xml version="1.0" encoding="UTF-8" standalone="no"?>
<svg
   xmlns:dc="http://purl.org/dc/elements/1.1/"
   xmlns:cc="http://creativecommons.org/ns#"
   xmlns:rdf="http://www.w3.org/1999/02/22-rdf-syntax-ns#"
   xmlns:svg="http://www.w3.org/2000/svg"
   xmlns="http://www.w3.org/2000/svg"
   xmlns:sodipodi="http://sodipodi.sourceforge.net/DTD/sodipodi-0.dtd"
   xmlns:inkscape="http://www.inkscape.org/namespaces/inkscape"
   id="svg8"
   version="1.1"
   viewBox="0 0 323 106"
   height="106mm"
   width="323mm"
   sodipodi:docname="logo.svg"
   inkscape:version="0.92.3 (2405546, 2018-03-11)">
  <sodipodi:namedview
     pagecolor="#ffffff"
     bordercolor="#666666"
     borderopacity="1"
     objecttolerance="10"
     gridtolerance="10"
     guidetolerance="10"
     inkscape:pageopacity="0"
     inkscape:pageshadow="2"
     inkscape:window-width="1280"
     inkscape:window-height="961"
     id="namedview7"
     showgrid="false"
     width="298mm"
     inkscape:zoom="0.5946522"
     inkscape:cx="586.64446"
     inkscape:cy="259.96726"
     inkscape:window-x="-8"
     inkscape:window-y="-8"
     inkscape:window-maximized="1"
     inkscape:current-layer="layer1" />
  <defs
     id="defs2" />
  <metadata
     id="metadata5">
    <rdf:RDF>
      <cc:Work
         rdf:about="">
        <dc:format>image/svg+xml</dc:format>
        <dc:type
           rdf:resource="http://purl.org/dc/dcmitype/StillImage" />
        <dc:title />
      </cc:Work>
    </rdf:RDF>
  </metadata>
  <g
     id="layer1"
     transform="translate(81.800848,0.28813203)"
     style="fill:none;fill-opacity:1;stroke:#000000;stroke-opacity:1;stroke-width:2.48179174;stroke-miterlimit:4;stroke-dasharray:none;">
    <path
       id="path1377"
       d="M -85.436509,54.65552 V -1.8749571 H 80.683194 246.80288 V 54.65552 111.18598 H 80.683194 -85.436509 Z m 63.652076,41.230454 c 5.924474,-0.620736 10.002013,-1.937018 11.8054049,-3.810939 0.8589343,-0.892519 1.0846231,-2.120639 0.4771384,-2.596409 -0.5453263,-0.427087 -1.6858713,0.0084 -1.7817293,0.680507 -0.166793,1.169233 -3.296513,2.44218 -8.042248,3.271008 -3.889864,0.679361 -12.867974,0.822492 -17.117895,0.27291 -6.006366,-0.776727 -10.273404,-2.255776 -10.626058,-3.683223 -0.131944,-0.534074 -0.310265,-0.633857 -1.009308,-0.564778 -0.704934,0.06962 -0.863915,0.215639 -0.93663,0.860055 -0.481318,4.265488 13.124501,7.048906 27.231325,5.570869 z M 72.8522,94.089835 c 2.815086,-0.958149 3.550741,-1.39124 2.811006,-1.654852 -0.384592,-0.137055 -0.268921,-0.400157 0.720137,-1.637991 0.648076,-0.8111 1.404082,-1.769749 1.680018,-2.130353 0.275932,-0.360603 0.659704,-1.366622 0.852827,-2.235607 0.193122,-0.868986 0.664303,-2.451517 1.047064,-3.516747 1.086507,-3.023726 1.389291,-5.561624 0.873882,-7.324817 -0.232988,-0.797051 -0.627603,-1.76926 -0.876924,-2.160474 -1.047513,-1.643691 -4.554292,-5.555454 -5.082951,-5.669985 -0.315066,-0.06826 -1.550011,-0.169927 -2.744327,-0.225947 L 69.96145,67.43124 68.664387,68.833569 c -2.404197,2.599328 -5.41756,7.73919 -6.318919,10.778124 -0.683107,2.303093 -0.820802,6.183933 -0.279106,7.866447 0.66629,2.069475 2.400767,4.714099 4.167783,6.354767 1.488264,1.381839 1.56874,1.418057 2.817217,1.267839 0.706853,-0.08504 2.417232,-0.539941 3.800838,-1.010875 z m -4.037849,-8.494343 c 0.350763,-5.500248 2.909608,-9.623253 5.820869,-9.379036 0.881029,0.07389 1.09651,0.231888 1.521583,1.11558 0.432946,0.900055 0.455731,1.222637 0.181239,2.565902 -0.54206,2.65267 -3.109908,6.909039 -4.666663,7.735304 -0.403136,0.213971 -1.245707,0.389036 -1.87238,0.389036 h -1.139408 z m 28.195779,8.494343 c 2.81509,-0.958149 3.55075,-1.39124 2.811003,-1.654852 -0.384585,-0.137055 -0.268917,-0.400157 0.720137,-1.637991 2.097,-2.624476 2.20377,-2.803638 2.44174,-4.097813 0.12913,-0.702113 0.58831,-2.211762 1.02043,-3.354773 1.15875,-3.065061 1.52454,-5.931838 0.99013,-7.760035 -0.23217,-0.794246 -0.62555,-1.764163 -0.87415,-2.155377 -0.82786,-1.302702 -4.530872,-5.530691 -4.961393,-5.664775 -0.23334,-0.07264 -1.493342,-0.166736 -2.800016,-0.20903 l -2.375774,-0.07692 -1.088919,1.240919 c -1.931373,2.200954 -3.442845,4.486964 -4.831657,7.30759 -1.655766,3.362808 -1.91147,4.262185 -2.129304,7.489345 -0.134324,1.989922 -0.0724,2.83034 0.291936,3.961969 0.666289,2.069475 2.400766,4.714098 4.167784,6.354767 1.488264,1.381839 1.568739,1.418057 2.817216,1.26784 0.706853,-0.08505 2.417231,-0.539942 3.800837,-1.010876 z m -4.10754,-7.653164 c 0.01045,-3.516631 1.177591,-6.972292 2.998769,-8.878762 1.855753,-1.942667 3.937703,-1.905355 4.583351,0.08213 0.57161,1.759554 -0.59786,5.092034 -2.859659,8.148789 -1.260903,1.704066 -2.165738,2.233418 -3.817646,2.233418 h -0.909528 l 0.0047,-1.585607 z m 22.96397,7.574808 c 0.46576,-0.516335 1.10977,-1.671841 1.43112,-2.567778 1.02864,-2.867966 1.45623,-3.697367 1.90298,-3.691217 0.23859,0.0031 1.52694,0.25147 2.86298,0.551521 1.33605,0.300048 3.01099,0.545548 3.72209,0.545548 2.22049,0 6.27802,-1.911734 5.33984,-2.515908 -0.19919,-0.128277 -1.15613,-0.236608 -2.12652,-0.240725 -3.04668,-0.01293 -6.71043,-1.351969 -7.30078,-2.668282 -0.60602,-1.351239 -0.18549,-5.139529 0.77236,-6.957784 0.50957,-0.967279 5.56231,-7.830397 6.09385,-8.277225 0.52707,-0.443075 1.24888,-2.049787 1.24888,-2.779947 0,-0.59197 -2.51881,-2.972564 -3.37655,-3.191266 -0.34094,-0.08692 -1.02645,-0.117887 -1.52334,-0.06879 -0.71334,0.07046 -1.02112,0.300957 -1.46261,1.095255 -0.30754,0.553293 -1.09744,1.670122 -1.75536,2.481826 -0.65792,0.811705 -1.6477,2.180422 -2.19952,3.04158 l -1.00332,1.565753 -0.15306,-3.70859 c -0.13728,-3.326477 -0.22474,-3.832858 -0.84882,-4.91473 -1.18755,-2.058658 -3.22235,-3.46945 -4.22095,-2.926507 -0.67376,0.366325 -0.7544,0.656484 -1.089,3.918309 -0.16054,1.565002 -0.4633,3.714104 -0.6728,4.77578 -0.20951,1.061663 -0.45175,3.380567 -0.53832,5.153109 -0.0866,1.772532 -0.26305,3.509814 -0.39217,3.860611 -0.12911,0.350806 -0.203,3.305787 -0.16418,6.566622 0.0761,6.393892 0.51203,9.122448 1.7941,11.229901 0.55062,0.90511 0.65602,0.955555 1.69963,0.813352 0.80635,-0.109883 1.34571,-0.410027 1.95947,-1.090399 z m 85.37554,0.07838 c 2.81507,-0.958149 3.55075,-1.391239 2.811,-1.654852 -0.3846,-0.137054 -0.26891,-0.400157 0.72015,-1.637989 2.09698,-2.624477 2.20374,-2.803637 2.44174,-4.097815 0.1291,-0.702112 0.58828,-2.211761 1.02042,-3.354771 1.15877,-3.065063 1.52455,-5.931838 0.99012,-7.760036 -0.23216,-0.794247 -0.62552,-1.764162 -0.87414,-2.155377 -0.82786,-1.302702 -4.53088,-5.53069 -4.96141,-5.664775 -0.23332,-0.07264 -1.49335,-0.166736 -2.80002,-0.20903 l -2.37574,-0.07692 -1.08893,1.240918 c -1.93136,2.200953 -3.44286,4.486964 -4.83168,7.307589 -1.65576,3.362809 -1.91146,4.262185 -2.12928,7.489347 -0.13434,1.989921 -0.0724,2.830338 0.29193,3.961969 0.66629,2.069475 2.40075,4.714098 4.16778,6.354766 1.48827,1.381839 1.56875,1.418056 2.81723,1.267839 0.70685,-0.08504 2.41722,-0.539941 3.80083,-1.010876 z m -4.10753,-7.653164 c 0.0106,-3.516631 1.17758,-6.972292 2.99876,-8.878761 1.85576,-1.942668 3.93768,-1.905355 4.58335,0.08213 0.5716,1.759556 -0.59787,5.092034 -2.85967,8.148789 -1.26091,1.704068 -2.16572,2.23342 -3.81764,2.23342 h -0.90953 l 0.005,-1.585606 z m -15.4493,6.50708 c 1.47242,-0.507371 2.44087,-1.335011 2.98412,-2.550249 0.61716,-1.380588 0.63772,-2.134585 0.10766,-3.94794 -0.99262,-3.395701 -4.4821,-6.980036 -9.21139,-9.461779 -4.58275,-2.404835 -5.61095,-3.651069 -5.05486,-6.126756 0.79044,-3.518915 5.8084,-7.78457 9.11302,-7.746769 1.5539,0.01783 4.47703,0.804221 4.47703,1.204503 0,0.439313 0.74276,0.303718 0.921,-0.168133 0.34359,-0.909664 0.14321,-3.828053 -0.40245,-5.861112 -0.72821,-2.713213 -0.81613,-2.871154 -1.73765,-3.121529 -0.42373,-0.115126 -0.86815,-0.369693 -0.9876,-0.565716 -0.39523,-0.648574 -3.02789,-0.420991 -4.21282,0.364189 -0.57476,0.380843 -1.77788,0.986434 -2.67364,1.345736 -3.1403,1.259657 -7.4463,4.2559 -8.38617,5.835347 -0.23954,0.402564 -0.43554,0.979744 -0.43554,1.282617 0,0.331974 -0.35995,0.76642 -0.90636,1.093942 -0.61899,0.371026 -1.04114,0.926112 -1.33144,1.750728 -0.2338,0.664103 -0.63112,1.765863 -0.88294,2.448371 -0.3104,0.841304 -0.40536,1.636249 -0.29486,2.468569 0.45721,3.443799 3.08304,6.223862 9.11578,9.651216 3.03754,1.725694 4.07157,2.435977 4.07157,2.796769 0,0.504838 -1.38133,0.789212 -5.90193,1.215018 -7.40358,0.697361 -10.38432,1.402632 -10.38432,2.457041 0,0.599098 1.70407,1.262211 5.06089,1.9694 2.3172,0.488153 3.3278,0.83627 3.93521,1.355502 0.44951,0.384263 1.06766,0.698664 1.37364,0.698664 0.30599,0 1.79292,0.365136 3.30428,0.811412 1.51137,0.446275 2.99224,0.866203 3.29082,0.933166 1.12745,0.252857 4.16204,0.173397 5.04895,-0.132207 z M -22.448483,91.730888 c 10.513626,-1.489742 20.3100906,-6.415748 28.4403635,-14.30082 3.5357026,-3.429073 8.2367145,-10.287709 9.8117985,-14.31511 0.458772,-1.173068 0.697381,-1.507459 0.885465,-1.240917 0.192621,0.272961 0.220037,0.246112 0.108855,-0.106622 -0.08173,-0.259308 0.150273,-1.340566 0.515577,-2.402782 1.149041,-3.34116 2.027244,-6.670992 2.4765,-9.389979 0.616785,-3.732927 0.605374,-5.068126 -0.04961,-5.804435 C 18.902581,43.228281 16.738644,42.225305 13.773868,41.4047 11.364639,40.737867 10.914553,40.510972 9.7701811,39.386368 8.2461765,37.888674 6.4787307,36.927387 4.3755927,36.452315 2.1861921,35.957753 0.21251614,36.288621 -2.3551026,37.58063 l -2.1596376,1.086719 -2.3917846,-0.185726 c -1.9938919,-0.154835 -2.5366584,-0.302895 -3.2626282,-0.889977 -0.502279,-0.40618 -0.75115,-0.779384 -0.588033,-0.881794 0.155549,-0.09766 -0.06331,-0.1784 -0.486342,-0.179411 -0.423037,-0.001 -1.405923,-0.123129 -2.184192,-0.271377 -0.77827,-0.148249 -1.351258,-0.164706 -1.273309,-0.03658 0.406961,0.66896 -0.36135,0.08025 -1.282008,-0.982319 -1.106321,-1.276854 -2.849159,-2.099199 -4.424704,-2.087756 -1.031209,0.0072 -2.728267,0.774079 -3.857202,1.742359 -0.81261,0.696975 -0.900463,0.713244 -1.905537,0.352996 -2.883477,-1.033555 -5.815095,-0.71338 -8.720388,0.952365 -0.791251,0.453663 -1.574446,0.73957 -1.74043,0.635357 -0.175989,-0.110499 -0.22589,-0.06473 -0.119706,0.10982 0.100145,0.164621 0.05795,0.377259 -0.09378,0.472519 -0.151725,0.09525 -0.275864,0.04273 -0.275864,-0.116699 0,-0.504286 -1.631452,-1.79172 -2.925957,-2.308971 -0.823506,-0.329045 -1.57887,-0.441126 -2.225277,-0.33017 -0.808243,0.138721 -1.254147,-5.52e-4 -2.561645,-0.80049 -2.168621,-1.326664 -5.052962,-1.970141 -6.993994,-1.560323 -2.222744,0.469309 -4.0177,1.441926 -5.861463,3.176092 l -1.683656,1.583584 -1.27276,-0.440574 c -1.649613,-0.571031 -2.210354,-0.555564 -3.959171,0.109165 -1.40244,0.533072 -3.074956,1.983386 -3.683789,3.194382 -0.217297,0.432215 -0.975108,0.754402 -3.085764,1.311915 -3.242083,0.856385 -6.080862,2.211929 -6.823432,3.258251 -0.501976,0.707313 -0.504472,0.836531 -0.07728,3.998498 2.327445,17.227328 12.601624,31.433273 28.153612,38.92756 3.356533,1.617468 4.388286,2.012318 7.978989,3.053586 1.875595,0.543891 5.616595,1.292342 7.46453,1.493389 2.625343,0.285635 9.481111,0.153242 12.229228,-0.23616 z m -11.550635,-1.955006 c -1.005822,-0.113709 -4.43518,-0.702113 -6.176636,-1.059778 -3.186546,-0.654462 -10.921758,-3.836034 -10.602455,-4.360905 0.09886,-0.162496 0.03348,-0.193293 -0.156748,-0.07389 -0.63915,0.401313 -6.288184,-3.403571 -10.040953,-6.763043 -3.623803,-3.244023 -3.856425,-2.951196 2.334551,-2.938722 2.953601,0.0062 6.023092,-0.114656 6.821089,-0.268032 l 1.450905,-0.278861 1.524509,1.355294 c 6.165886,5.481529 14.607474,8.26502 22.460524,7.40605 6.344763,-0.693994 12.790623,-3.560697 17.2888794,-7.688986 l 1.0171676,-0.933511 3.5972682,0.33705 c 2.6423646,0.247583 4.46148394,0.261591 6.8529127,0.05274 1.7906076,-0.156347 3.3174431,-0.219015 3.3929678,-0.139264 0.2516307,0.265718 -4.4416147,4.543067 -7.0557715,6.430517 -6.0481499,4.366825 -12.0766582,6.99789 -19.2720562,8.411017 -2.266449,0.445117 -11.063345,0.780488 -13.436154,0.512247 z m 1.982568,-9.211068 c -6.014508,-0.712422 -11.445948,-3.202439 -15.871044,-7.27598 l -1.673789,-1.540821 -1.990616,0.290138 c -2.794833,0.407358 -7.636642,0.527152 -9.72658,0.240642 -0.970388,-0.133021 -2.497224,-0.312848 -3.392967,-0.399615 -1.862128,-0.180369 -1.74934,-0.0762 -4.317561,-3.987233 -1.830411,-2.787461 -3.573372,-6.148633 -4.361387,-8.410641 -0.264181,-0.75833 -0.636307,-1.751061 -0.826944,-2.20606 -0.566301,-1.351614 -2.172101,-8.686396 -1.901706,-8.686396 0.06321,0 1.067864,0.305615 2.232573,0.679142 8.100673,2.597921 23.775869,4.005919 44.597609,4.005919 21.3447588,0 37.9405129,-1.549451 45.12647,-4.213188 l 1.832204,-0.679174 -0.0043,0.586226 c -0.007,0.981694 -0.998402,5.410585 -1.766808,7.893829 -1.34076,4.332921 -5.301816,11.937798 -7.4097746,14.226133 -1.0087756,1.095089 -7.4237647,1.633061 -13.2127514,1.108043 -4.1430178,-0.375736 -3.9926087,-0.406931 -5.747533,1.191944 -4.58122,4.173834 -9.648667,6.468912 -15.893877,7.198427 -2.496394,0.291607 -3.067352,0.289469 -5.691265,-0.02136 z M 4.0632931,67.6063 C 5.3717925,66.306641 8.1411707,62.045415 9.4797945,59.271982 10.512557,57.132239 10.645026,56.673561 10.37711,56.164991 10.147346,55.728836 9.8826101,55.60333 9.3929696,55.698413 8.8651846,55.800969 8.4598493,56.361098 7.481515,58.340087 6.1583856,61.01653 4.2934557,63.960984 2.6814025,65.918763 1.6249382,67.201797 1.5076067,67.591334 2.0206288,68.112525 2.5496115,68.649934 3.166491,68.497058 4.0632931,67.6063 Z M -66.319559,62.219177 c 0.234599,-0.238338 0.426544,-0.51524 0.426544,-0.615358 0,-0.100054 -0.641271,-1.641626 -1.425046,-3.425592 -1.306296,-2.973292 -1.485725,-3.243721 -2.153208,-3.245275 -0.499271,-10e-4 -0.784319,0.178078 -0.906814,0.570167 -0.20097,0.643278 0.04866,1.366236 1.56177,4.52315 1.293045,2.697757 1.672101,3.030689 2.496754,2.192908 z m 21.598663,-11.345976 c -4.197839,-0.181599 -13.4905,-0.974596 -17.310651,-1.477203 -8.524948,-1.121614 -14.916886,-2.84589 -14.301249,-3.857871 0.352957,-0.580182 2.827657,-1.605763 5.28247,-2.189186 3.841384,-0.912968 3.903092,-0.938879 4.342999,-1.823529 1.504862,-3.026239 4.226962,-3.900789 6.740551,-2.16557 1.166646,0.805378 1.344342,0.717592 3.150529,-1.556413 3.094133,-3.895557 7.70338,-4.532385 11.526703,-1.592549 1.323787,1.017891 1.474755,1.068002 2.430079,0.80666 1.083353,-0.296359 2.470349,-0.04064 3.223385,0.594263 0.229772,0.193731 0.708055,0.819396 1.062848,1.390376 0.874664,1.407613 1.627241,1.36609 3.682098,-0.203163 2.896964,-2.212357 5.743209,-2.562997 8.867534,-1.092432 1.375681,0.64751 1.455242,0.654911 2.079801,0.193649 0.35717,-0.263791 0.653237,-0.581548 0.657931,-0.706137 0.0047,-0.124579 0.161212,-0.377842 0.347825,-0.562798 2.060911,-2.042627 4.79359,-1.548836 5.934932,1.072431 0.573272,1.316605 0.951324,1.46948 2.323414,0.939503 1.101363,-0.4254 2.348672,-0.09307 3.582955,0.954521 1.043934,0.886058 1.1844936,0.923162 4.2170303,1.11287 l 3.137097,0.196264 1.5651489,-0.971292 c 1.97498138,-1.225618 3.7102049,-1.668413 5.5987795,-1.428697 2.1266445,0.269937 4.4574913,1.689955 5.6767876,3.458463 0.3137034,0.455 1.0954407,0.772026 3.0907137,1.253425 3.086339,0.744647 5.792333,1.883206 5.792333,2.437146 0,0.210739 -0.604998,0.647562 -1.344442,0.970728 -4.084108,1.784904 -15.2972549,3.377774 -29.327985,4.166164 -4.343969,0.244091 -26.935083,0.300779 -32.029617,0.08035 z m 14.510089,-3.103385 c 0.644464,-0.450464 1.671876,-0.900273 2.283142,-0.999567 1.266049,-0.205675 1.791116,-0.69315 1.589646,-1.475827 -0.07642,-0.296872 8.14e-4,-0.587561 0.171543,-0.645978 0.170764,-0.05837 -0.117033,-0.119098 -0.63955,-0.134855 -0.522517,-0.01573 -1.850874,0.287124 -2.951909,0.673055 -1.714903,0.6011 -2.104015,0.652741 -2.714375,0.360207 -2.663941,-1.276782 -4.75978,-1.173017 -4.595443,0.227531 0.07275,0.620089 0.269421,0.743511 1.618546,1.015795 0.884887,0.178588 1.920195,0.619901 2.442936,1.04135 1.1583,0.933834 1.378099,0.928987 2.795464,-0.0617 z m -25.666036,-2.770868 c 0.714637,-0.491947 1.546327,-0.822252 2.070404,-0.822252 0.999683,0 1.577441,-0.538222 1.31724,-1.227088 -0.277379,-0.734339 -1.36362,-1.026759 -2.579035,-0.694265 -0.586057,0.160316 -1.203761,0.204716 -1.372672,0.09871 -0.188045,-0.118075 -0.232026,-0.06941 -0.113437,0.125527 0.281519,0.462764 -0.349105,0.390411 -0.826764,-0.09485 -0.499596,-0.507549 -1.581757,-0.805034 -2.138678,-0.587915 -0.816947,0.318476 -0.801332,1.066718 0.03771,1.80731 0.442734,0.390777 1.016409,1.051753 1.274831,1.468846 0.589921,0.952104 0.851957,0.943787 2.330394,-0.074 z m 100.45886,45.437503 c 2.100586,-1.015284 6.116131,-4.973041 7.558945,-7.450157 0.982767,-1.687287 1.23794,-3.377796 0.572885,-3.795367 -0.613128,-0.384971 -1.504353,-0.06087 -5.146019,1.871232 -1.866132,0.990092 -3.881554,2.05232 -4.478717,2.360488 -1.598944,0.825159 -3.689631,0.793184 -4.59507,-0.07025 -1.480709,-1.412095 -1.534737,-4.069539 -0.16686,-8.207302 1.568367,-4.744251 4.740611,-8.816008 8.219517,-10.550238 2.313698,-1.15337 3.440248,-1.067271 6.495354,0.496459 2.528544,1.294208 3.003087,1.228318 3.509022,-0.487225 0.425777,-1.443737 0.184908,-2.042356 -2.230572,-5.54351 -1.101385,-1.596414 -2.307886,-3.493276 -2.681113,-4.215254 -0.815381,-1.577278 -1.132629,-1.684484 -4.461298,-1.507605 -2.230622,0.118534 -2.736131,0.249771 -4.521652,1.173893 -5.268847,2.726948 -8.037848,5.733416 -11.199754,12.160201 -2.322592,4.720831 -2.98137,10.970739 -1.556749,14.769076 1.123534,2.995567 4.976298,7.671091 7.361158,8.933136 2.67089,1.413408 4.493707,1.428968 7.320923,0.06242 z M 237.64123,90.021527 c 1.24413,-1.420028 1.64179,-6.120847 0.86828,-10.263498 -0.5152,-2.759062 -1.75189,-6.524955 -2.65936,-8.098086 -1.02522,-1.777242 -3.18135,-3.694925 -4.42034,-3.931461 -0.92296,-0.176212 -2.5663,0.0042 -5.42836,0.595356 -0.72061,0.148893 -1.01608,0.02408 -1.93139,-0.816029 -0.59434,-0.545497 -1.49405,-1.189369 -1.99932,-1.430814 -0.50528,-0.241445 -1.3462,-0.676214 -1.86871,-0.966153 -0.71991,-0.399469 -1.49771,-0.527268 -3.21097,-0.527591 l -2.26091,-5.53e-4 0.14274,0.758332 c 0.44904,2.385294 0.45163,3.412857 0.0165,6.57547 -0.41511,3.017109 -0.43508,3.929088 -0.15537,7.095245 0.42108,4.76667 0.95532,7.272843 1.73107,8.120712 0.801,0.875531 3.17622,2.262591 3.88011,2.265906 0.30268,10e-4 0.83277,0.20356 1.17799,0.449204 0.48199,0.342979 0.7714,0.380073 1.24717,0.159837 1.09791,-0.508205 1.72265,-2.36498 2.16702,-6.440542 0.43281,-3.969849 0.9109,-5.624889 2.41696,-8.367472 1.55384,-2.82959 1.95104,-2.478418 2.89168,2.5567 0.84466,4.521463 1.34611,6.357133 2.34615,8.588301 1.51684,3.384309 3.82978,5.068709 5.04905,3.677011 z m -92.89881,-5.275854 c 0.97039,-0.26798 3.56436,-1.036379 5.76438,-1.70759 l 4.00004,-1.220365 0.004,-0.851945 c 0.006,-1.34089 -0.66969,-1.493016 -6.59146,-1.484521 -8.85479,0.01271 -11.56882,0.49646 -11.80683,2.104557 -0.0909,0.613909 1.88674,3.047834 2.77206,3.411679 0.95438,0.392224 4.00005,0.261299 5.85814,-0.251815 z M -29.473642,25.907705 c 1.41664,-1.080789 2.872383,-3.827677 3.110363,-5.869032 0.227519,-1.951609 -0.487578,-4.550322 -1.782421,-6.477459 -2.29445,-3.414889 -2.163722,-6.5345427 0.394363,-9.4111054 0.984569,-1.107147 1.052977,-1.2827848 0.780551,-2.0040229 -0.288109,-0.7627505 -1.383071,-0.4932073 -2.428936,0.5979103 -1.440803,1.5031448 -2.341098,3.4817686 -2.500145,5.4946819 -0.182134,2.3051251 0.267839,3.9258851 1.715393,6.1787021 1.519717,2.365126 1.96429,4.131748 1.525614,6.062451 -0.356685,1.569847 -1.566134,3.525114 -2.610517,4.220308 -0.743169,0.494697 -0.897062,1.235623 -0.368235,1.772864 0.500465,0.508434 0.889926,0.406692 2.16397,-0.565298 z m -11.187113,-2.757592 c 1.214042,-1.200989 1.640045,-2.335047 1.640045,-4.365959 0,-1.313439 -0.162481,-1.998313 -0.721733,-3.042196 -0.396953,-0.740947 -0.805917,-1.347174 -0.908805,-1.347174 -0.102891,0 -0.405495,-0.492082 -0.672454,-1.093504 -0.624119,-1.406093 -0.429343,-3.002611 0.539624,-4.4230857 0.845145,-1.2389693 0.738536,-2.2046432 -0.243388,-2.2046432 -1.125512,0 -2.489046,2.0770526 -2.780195,4.2350459 -0.207098,1.534984 0.224232,2.90417 1.56421,4.96534 0.821899,1.264263 1.051242,1.882842 1.051242,2.835383 0,1.364371 -0.502686,2.801366 -1.179423,3.371531 -0.52777,0.44465 -0.597931,1.582794 -0.109905,1.782851 0.666078,0.273044 0.92667,0.170917 1.820782,-0.713589 z m 24.176172,0.339769 c 1.580268,-1.143166 2.406735,-3.514359 2.024992,-5.809854 -0.108451,-0.652138 -0.712486,-1.901039 -1.433739,-2.964402 -1.0755,-1.585648 -1.247084,-2.02938 -1.251806,-3.237333 -0.0045,-1.143626 0.152189,-1.6176143 0.855967,-2.589843 0.677804,-0.9363351 0.803894,-1.2992628 0.591492,-1.7024624 -0.367913,-0.6983923 -1.394201,-0.6448839 -2.071847,0.1080174 -1.95151,2.1682379 -2.157708,5.349905 -0.497697,7.679585 2.084227,2.925027 2.271177,4.633377 0.721437,6.592522 -1.126912,1.424612 -1.10346,2.347867 0.06245,2.458449 0.126246,0.01199 0.575684,-0.228637 0.998754,-0.534679 z"
       style="fill:none;fill-opacity:1;fill-rule:evenodd;stroke:none;stroke-width:2.56626868;stroke-miterlimit:4;stroke-dasharray:none;stroke-opacity:1"
       inkscape:connector-curvature="0" />
    <path
       style="fill:#ffffff;fill-opacity:1;fill-rule:nonzero;stroke:none;stroke-width:15.77392673;stroke-miterlimit:4;stroke-dasharray:none;stroke-opacity:1"
       d="m 455.47535,344.35972 c -7.64931,-2.46759 -23.0812,-18.10427 -29.25818,-29.64645 -21.20661,-39.6262 19.68257,-111.1567 63.5408,-111.1567 h 10.39792 l 11.29283,17.40459 c 11.194,17.25227 12.73039,21.44532 9.64343,26.31845 -1.40381,2.21606 -2.57528,2.13841 -9.64377,-0.63926 -4.42522,-1.73896 -11.45121,-3.49331 -15.61331,-3.89858 -6.33312,-0.61665 -8.8166,0.095 -15.22583,4.36322 -16.23288,10.81019 -28.59993,32.88519 -29.6693,52.95928 -0.73921,13.87642 1.14639,17.50635 9.82548,18.91477 4.58532,0.74409 9.11337,-0.85233 24.06652,-8.48496 25.0731,-12.79823 28.58606,-12.3174 20.84654,2.85331 -3.99851,7.83772 -20.67849,24.98298 -27.97658,28.75697 -6.84415,3.53925 -15.51819,4.41942 -22.22655,2.25536 z"
       id="path938"
       inkscape:connector-curvature="0"
       transform="matrix(0.26458334,0,0,0.26458334,-81.800848,-0.28813203)" />
    <path
       style="fill:#ffffff;fill-opacity:1;fill-rule:nonzero;stroke:none;stroke-width:15.77392673;stroke-miterlimit:4;stroke-dasharray:none;stroke-opacity:1"
       d="m 557.62551,351.8066 c -11.94585,-12.77108 -13.86856,-17.4567 -13.73229,-33.46537 0.11083,-13.02023 0.59145,-14.80723 7.91501,-29.42896 4.28836,-8.56186 10.91274,-19.16155 14.72084,-23.55487 6.70397,-7.73421 7.21955,-7.98786 16.23636,-7.98786 8.78772,0 9.68873,0.40278 15.98781,7.14703 12.53132,13.41694 15.59295,19.28709 15.4821,29.68422 -0.1404,13.16869 -8.11221,37.94478 -15.15688,47.10707 -3.13906,4.08266 -5.70738,8.40353 -5.70738,9.60195 0,2.1291 -19.24383,9.0407 -25.17185,9.0407 -1.62582,0 -6.384,-3.66476 -10.57372,-8.14391 z m 25.42903,-21.35244 c 2.79202,-2.34933 7.39055,-8.90253 10.21896,-14.56266 6.17834,-12.36396 6.80131,-21.85464 1.67045,-25.44844 -10.63433,-7.44858 -24.04578,9.60474 -26.2679,33.40093 l -1.01615,10.88169 h 5.15912 c 3.07129,0 7.21346,-1.72862 10.23552,-4.27152 z"
       id="path940"
       inkscape:connector-curvature="0"
       transform="matrix(0.26458334,0,0,0.26458334,-81.800848,-0.28813203)" />
    <path
       style="fill:#ffffff;fill-opacity:1;fill-rule:nonzero;stroke:none;stroke-width:15.77392673;stroke-miterlimit:4;stroke-dasharray:none;stroke-opacity:1"
       d="m 649.22251,352.57537 c -12.56208,-13.62824 -15.96996,-23.39632 -13.90367,-39.85231 1.72123,-13.70794 9.89234,-31.36928 21.13595,-45.68401 l 7.59499,-9.66951 h 9.93493 c 9.8717,0 9.98467,0.0562 17.74852,8.82869 10.02335,11.32555 14.30875,19.65958 14.30875,27.82693 0,9.63289 -9.19977,38.55613 -14.77464,46.4501 -2.66565,3.77456 -5.31052,8.14432 -5.87747,9.71058 -0.99706,2.75446 -19.94802,9.76467 -26.3972,9.76467 -1.6346,0 -6.03117,-3.31881 -9.77016,-7.37514 z m 24.77198,-22.23107 c 6.32357,-5.32093 12.63196,-15.88242 15.1142,-25.30411 3.37448,-12.80839 -3.02184,-20.21229 -13.00273,-15.05098 -8.60362,4.44911 -14.40971,16.67279 -16.439,34.60937 l -1.14575,10.1271 h 5.13315 c 3.07728,0 7.2186,-1.75478 10.34013,-4.38138 z"
       id="path942"
       inkscape:connector-curvature="0"
       transform="matrix(0.26458334,0,0,0.26458334,-81.800848,-0.28813203)" />
    <path
       style="fill:#ffffff;fill-opacity:1;fill-rule:nonzero;stroke:none;stroke-width:15.77392673;stroke-miterlimit:4;stroke-dasharray:none;stroke-opacity:1"
       d="m 731.82631,351.96265 c -5.74551,-14.89118 -3.45733,-91.20714 3.73116,-124.44249 1.18983,-5.50109 5.94193,-4.69086 12.56488,2.14229 5.33873,5.50817 5.86593,7.0541 7.47692,21.92479 l 1.7332,15.99877 10.71395,-15.19817 c 12.2902,-17.43414 16.10481,-18.98553 25.66931,-10.43966 6.92404,6.18664 6.14701,9.15161 -6.8303,26.06287 -14.03114,18.28454 -16.71074,23.00243 -18.53847,32.64002 -3.18143,16.7756 2.36956,22.87695 23.69272,26.04176 10.86338,1.61236 11.76412,2.02706 8.92,4.10673 -8.07029,5.90114 -22.24167,6.32697 -39.83546,1.197 -2.30899,-0.67325 -4.15719,1.82646 -8.6665,11.72148 -8.38266,18.39453 -15.6021,21.27953 -20.63141,8.24461 z"
       id="path944"
       inkscape:connector-curvature="0"
       transform="matrix(0.26458334,0,0,0.26458334,-81.800848,-0.28813203)" />
    <path
       style="fill:#ffffff;fill-opacity:1;fill-rule:nonzero;stroke:none;stroke-width:15.77392673;stroke-miterlimit:4;stroke-dasharray:none;stroke-opacity:1"
       d="m 829.69847,317.24192 c -3.36977,-3.57299 -5.40489,-7.18043 -4.85671,-8.60897 1.68067,-4.37975 13.30775,-5.9551 40.45645,-5.48142 24.65341,0.43014 26.56668,0.68974 26.56668,3.60454 0,2.53545 -3.56634,4.2261 -18.49821,8.76924 -10.17401,3.09553 -22.8564,6.13188 -28.18308,6.74746 -9.54083,1.10258 -9.77113,1.02776 -15.48513,-5.03085 z"
       id="path946"
       inkscape:connector-curvature="0"
       transform="matrix(0.26458334,0,0,0.26458334,-81.800848,-0.28813203)" />
    <path
       style="fill:#ffffff;fill-opacity:1;fill-rule:nonzero;stroke:none;stroke-width:15.77392673;stroke-miterlimit:4;stroke-dasharray:none;stroke-opacity:1"
       d="m 965.01689,348.99113 c -7.86174,-2.27011 -16.5643,-5.26701 -19.33903,-6.65979 -2.77473,-1.39277 -9.94612,-3.73898 -15.93642,-5.21378 -5.9903,-1.47481 -12.36696,-3.47114 -14.17036,-4.43629 -3.15398,-1.68796 -3.12344,-1.83602 0.80152,-3.88598 4.01243,-2.09565 18.69111,-4.57937 40.23602,-6.8082 14.19344,-1.46831 19.46593,-3.40814 17.07937,-6.28377 -0.98142,-1.18254 -9.0983,-6.65639 -18.03751,-12.16413 -17.36306,-10.69795 -26.34832,-19.53327 -29.46325,-28.9716 -1.58134,-4.79152 -1.39247,-7.63964 1.03921,-15.67095 1.63449,-5.39835 4.75204,-11.48762 6.92788,-13.53173 2.17585,-2.0441 3.95609,-4.64962 3.95609,-5.79005 0,-4.24901 17.11105,-17.2421 32.68806,-24.82132 17.54189,-8.53526 20.52131,-9.10178 27.87324,-5.29995 5.12459,2.65002 7.08009,7.48892 9.29179,22.99214 1.481,10.38137 0.5067,11.57756 -7.1923,8.83032 -9.992,-3.56548 -17.23287,-2.86874 -26.71679,2.57078 -11.55572,6.6278 -19.32286,16.63599 -20.41235,26.30193 -1.0523,9.33592 2.21545,13.34157 18.10145,22.18906 25.83204,14.3868 40.90209,36.17149 34.44119,49.78689 -5.1263,10.80283 -19.33067,13.17199 -41.16781,6.86642 z"
       id="path948"
       inkscape:connector-curvature="0"
       transform="matrix(0.26458334,0,0,0.26458334,-81.800848,-0.28813203)" />
    <path
       style="fill:#ffffff;fill-opacity:1;fill-rule:nonzero;stroke:none;stroke-width:15.77392673;stroke-miterlimit:4;stroke-dasharray:none;stroke-opacity:1"
       d="m 1043.1999,352.63981 c -3.8527,-4.02088 -8.7359,-10.88643 -10.8515,-15.25677 -8.3797,-17.3101 -1.7904,-43.69975 17.3544,-69.50316 l 7.7982,-10.51034 h 9.9589 9.9589 l 8.7307,9.66951 c 10.2988,11.4063 13.3998,17.84905 13.3998,27.83992 0,11.2093 -8.8502,38.63825 -14.9533,46.34409 -2.8746,3.62947 -5.2265,7.70906 -5.2265,9.06577 0,2.46742 -19.3459,9.66168 -25.981,9.66168 -1.751,0 -6.3359,-3.28982 -10.1886,-7.3107 z m 22.1546,-20.07579 c 7.3601,-4.12708 16.5272,-19.67131 18.3598,-31.13183 0.8735,-5.46234 0.4171,-7.34928 -2.4779,-10.24425 -4.6416,-4.64165 -7.2331,-4.47623 -13.5833,0.86707 -8.0197,6.74818 -12.2442,16.53608 -13.1546,30.47867 -0.7809,11.9573 -0.7191,12.19085 3.2087,12.13241 2.2027,-0.0328 5.644,-0.97871 7.6473,-2.10207 z"
       id="path950"
       inkscape:connector-curvature="0"
       transform="matrix(0.26458334,0,0,0.26458334,-81.800848,-0.28813203)" />
    <path
       style="fill:#ffffff;fill-opacity:1;fill-rule:nonzero;stroke:none;stroke-width:15.77392673;stroke-miterlimit:4;stroke-dasharray:none;stroke-opacity:1"
       d="m 1197.3546,338.89838 c -6.4937,-5.46413 -11.3181,-17.21211 -16.2791,-39.64148 -5.7799,-26.13215 -6.5884,-26.82547 -14.0377,-12.03798 -4.6958,9.32172 -7.1531,18.75755 -9.5249,36.576 -1.9353,14.53847 -5.0135,18.13111 -13.1208,15.31318 -20.3367,-7.06866 -22.0347,-11.63745 -22.0964,-59.45584 l -0.044,-34.05273 6.3602,-7.9e-4 c 7.6228,-9.5e-4 15.6534,3.16061 25.233,9.93394 6.4821,4.58322 7.7287,4.88068 14.6523,3.49637 12.8099,-2.56122 16.3121,-1.99967 22.7429,3.64665 11.5998,10.18481 19.2985,32.25782 19.2985,55.33144 0,22.0917 -4.0779,28.55348 -13.184,20.89124 z"
       id="path952"
       inkscape:connector-curvature="0"
       transform="matrix(0.26458334,0,0,0.26458334,-81.800848,-0.28813203)" />
    <path
       style="fill:#ffffff;fill-opacity:1;fill-rule:nonzero;stroke:none;stroke-width:15.77392673;stroke-miterlimit:4;stroke-dasharray:none;stroke-opacity:1"
       d="M 161.18568,344.90386 C 102.65295,332.4619 50.701874,289.39575 27.611304,234.17404 21.608467,219.8181 15.303488,195.68065 13.938826,181.83148 c -1.107912,-11.24356 -1.05359,-11.45485 3.840988,-14.9401 2.730636,-1.94438 10.921366,-5.5348 18.201622,-7.9787 9.851146,-3.30692 14.850797,-6.10654 19.546871,-10.94552 7.36808,-7.59231 14.781546,-10.04749 23.622328,-7.82323 5.886403,1.48096 6.713399,1.16664 14.147481,-5.3771 10.351884,-9.11209 22.662354,-12.91667 32.886414,-10.16361 3.97921,1.07149 10.04683,3.38269 13.48359,5.13599 3.43677,1.75331 8.22043,3.18784 10.63036,3.18784 4.98933,0 10.15822,2.35792 15.19343,6.93085 3.39797,3.08602 3.63987,3.06032 12.43175,-1.32086 10.32123,-5.14329 22.71997,-6.8396 30.40662,-4.16002 4.61434,1.60857 6.27721,1.29883 12.45094,-2.31921 9.85436,-5.77505 17.12752,-5.45207 25.09374,1.11436 4.24343,3.49779 8.70415,5.49603 13.16619,5.89795 3.71161,0.33432 8.6025,2.0663 10.86864,3.84884 2.26613,1.78255 8.05413,3.72761 12.8622,4.32238 7.29903,0.90289 10.26863,0.36864 17.99107,-3.23671 13.05725,-6.096 24.96557,-5.91497 36.23823,0.55088 4.66999,2.67866 9.45642,6.03367 10.6365,7.45559 1.18009,1.42191 8.10282,4.56923 15.38387,6.99404 7.28103,2.42481 15.26659,6.00424 17.74567,7.95428 4.30525,3.38651 4.46054,4.04165 3.46195,14.60597 -1.38857,14.69025 -8.18221,39.5264 -15.31305,55.98136 -23.79023,54.89779 -76.7028,96.44544 -137.68699,108.11364 -18.12733,3.46833 -51.88306,3.10375 -70.04356,-0.75653 z m 84.92359,-9.30226 c 17.8772,-5.14233 38.74337,-14.75652 52.9176,-24.38206 10.02993,-6.8112 32.00807,-26.31282 32.0038,-28.39757 -10e-4,-0.58764 -11.91994,-1.05637 -26.48607,-1.04163 l -26.48388,0.0268 -10.70456,7.96785 c -42.47068,31.61265 -95.03485,31.61327 -136.70466,0.002 l -11.19515,-8.4929 -25.380857,0.89961 c -13.959471,0.49479 -25.380854,1.44287 -25.380854,2.10686 0,1.80938 14.719654,15.1843 25.224828,22.92037 19.594083,14.42923 48.805083,27.3155 71.863573,31.70225 20.70768,3.93951 60.87558,2.28372 80.32623,-3.3112 z m -21.86152,-32.13492 c 13.84219,-3.30404 32.2323,-12.58966 42.05657,-21.23537 l 8.18646,-7.20439 27.85064,-0.0323 c 33.52887,-0.0389 37.56949,-1.12991 45.02368,-12.15704 13.24979,-19.60064 29.01388,-60.65208 29.06066,-75.67714 0.0135,-4.50047 0.56057,-4.4263 -8.60546,-1.16789 -47.91623,17.03355 -218.50958,21.20111 -305.078341,7.453 -11.135713,-1.76848 -24.946306,-4.67808 -30.690209,-6.46579 L 21.608291,183.7294 v 4.59962 c 0,7.06804 6.009005,28.96003 11.604688,42.27816 7.915837,18.84025 21.839124,39.8206 27.806962,41.901 7.538058,2.62779 37.286264,3.84344 49.714809,2.03159 l 10.92948,-1.59331 8.11181,7.2932 c 10.15798,9.1329 22.41246,16.16676 36.23519,20.79834 20.57513,6.89413 36.70985,7.56701 58.23652,2.42869 z m 74.83366,-112.50953 c 44.7835,-4.40776 79.0378,-11.93521 79.0378,-17.36873 0,-2.03636 -14.11025,-8.07214 -22.53726,-9.64051 -3.72315,-0.69292 -9.17905,-3.56644 -12.61242,-6.64275 -13.52481,-12.1182 -25.96805,-14.0972 -40.93872,-6.51099 -7.61921,3.86095 -10.04523,4.28924 -19.36595,3.41885 -6.86578,-0.64114 -12.42681,-2.25626 -15.63568,-4.54118 -3.57863,-2.54821 -6.95676,-3.40343 -12.00413,-3.039 -6.19064,0.44698 -7.37031,-0.0653 -9.94265,-4.31808 -3.7807,-6.25044 -6.15017,-7.64893 -13.01292,-7.68031 -4.15214,-0.019 -6.91401,1.34717 -10.51357,5.20052 l -4.88207,5.22627 -6.75743,-2.70379 c -12.29942,-4.92126 -19.10479,-3.67612 -36.46518,6.67179 l -5.39182,3.21387 -5.90322,-6.44481 c -5.15794,-5.63116 -6.70647,-6.37464 -12.26556,-5.88891 -4.68534,0.40939 -8.48373,-0.71064 -14.41066,-4.24927 -9.43081,-5.63059 -20.98333,-6.52328 -29.15078,-2.25255 -2.88621,1.50919 -8.485709,6.14151 -12.44333,10.29405 -7.007914,7.35306 -7.318584,7.48651 -11.9058,5.11437 -8.800356,-4.55084 -14.855783,-3.20571 -22.494325,4.99681 -5.556134,5.96635 -8.930076,7.95298 -17.103904,10.07103 -12.648844,3.27765 -22.455195,7.30392 -22.455195,9.2196 0,7.2692 48.425016,16.46345 106.785114,20.27483 33.59431,2.19398 140.77543,0.68851 172.36966,-2.42111 z"
       id="path954"
       inkscape:connector-curvature="0"
       transform="matrix(0.26458334,0,0,0.26458334,-81.800848,-0.28813203)" />
    <path
       style="fill:#ffffff;fill-opacity:1;fill-rule:nonzero;stroke:none;stroke-width:15.77392673;stroke-miterlimit:4;stroke-dasharray:none;stroke-opacity:1"
       d="m 179.68389,363.23867 c -19.3065,-1.30117 -33.6759,-4.20432 -43.42196,-8.77286 -7.58471,-3.55538 -13.13879,-9.92799 -11.27755,-12.93956 1.61684,-2.61608 5.43136,-2.12123 6.57255,0.85265 1.44233,3.75865 14.20789,8.94891 28.94515,11.76862 16.67935,3.19129 61.82245,3.23476 78.31222,0.0754 15.57228,-2.98356 26.24725,-7.22412 28.42389,-11.29121 2.03933,-3.81052 6.61839,-4.19946 6.61839,-0.56216 0,4.30305 -7.22078,10.16837 -17.04206,13.84298 -16.1123,6.02838 -48.3548,8.96547 -77.13063,7.02612 z"
       id="path956"
       inkscape:connector-curvature="0"
       transform="matrix(0.26458334,0,0,0.26458334,-81.800848,-0.28813203)" />
    <path
       style="fill:#ffffff;fill-opacity:1;fill-rule:nonzero;stroke:none;stroke-width:15.77392673;stroke-miterlimit:4;stroke-dasharray:none;stroke-opacity:1"
       d=""
       id="path958"
       inkscape:connector-curvature="0"
       transform="matrix(0.26458334,0,0,0.26458334,-81.800848,-0.28813203)" />
    <path
       style="fill:#ffffff;fill-opacity:1;fill-rule:nonzero;stroke:none;stroke-width:15.77392673;stroke-miterlimit:4;stroke-dasharray:none;stroke-opacity:1"
       d="M 53.787072,234.94111 C 51.560728,232.25853 43.46981,214.20267 43.46981,211.9169 c 0,-0.89854 1.167251,-1.63371 2.593891,-1.63371 2.455582,0 12.536689,18.50944 12.539679,23.02351 0.002,3.12969 -2.789215,4.07691 -4.816308,1.63441 z"
       id="path960"
       inkscape:connector-curvature="0"
       transform="matrix(0.26458334,0,0,0.26458334,-81.800848,-0.28813203)" />
    <path
       style="fill:#ffffff;fill-opacity:1;fill-rule:nonzero;stroke:none;stroke-width:15.77392673;stroke-miterlimit:4;stroke-dasharray:none;stroke-opacity:1"
       d="m 185.44497,181.7385 c -0.90101,-0.90101 -4.60431,-2.66509 -8.22954,-3.92018 -3.62524,-1.25509 -6.85511,-3.07327 -7.17748,-4.0404 -1.06748,-3.20241 4.58647,-3.81947 11.9841,-1.30792 6.42808,2.1824 8.26627,2.18036 15.50992,-0.0171 10.18313,-3.08928 10.74006,-3.09603 10.74006,-0.13018 0,1.31956 -4.25355,4.34654 -9.45232,6.72662 -10.64246,4.87228 -11.09974,4.96422 -13.37474,2.68921 z"
       id="path962"
       inkscape:connector-curvature="0"
       transform="matrix(0.26458334,0,0,0.26458334,-81.800848,-0.28813203)" />
    <path
       style="fill:#ffffff;fill-opacity:1;fill-rule:nonzero;stroke:none;stroke-width:15.77392673;stroke-miterlimit:4;stroke-dasharray:none;stroke-opacity:1"
       d="m 86.685305,167.38159 c -3.918114,-4.91053 -4.272155,-6.07375 -2.102069,-6.90649 1.435286,-0.55077 3.933914,-0.41488 5.552507,0.30198 1.618593,0.71686 6.453608,1.11282 10.744477,0.87991 11.4069,-0.61916 11.61061,2.48786 0.48568,7.40783 -5.250621,2.32207 -9.64161,4.22193 -9.757751,4.2219 -0.11614,-2e-5 -2.33142,-2.65734 -4.922844,-5.90513 z"
       id="path964"
       inkscape:connector-curvature="0"
       transform="matrix(0.26458334,0,0,0.26458334,-81.800848,-0.28813203)" />
    <path
       style="fill:#ffffff;fill-opacity:1;fill-rule:nonzero;stroke:none;stroke-width:15.77392673;stroke-miterlimit:4;stroke-dasharray:none;stroke-opacity:1"
       d="m 147.73244,89.039318 c 0,-1.151128 1.16746,-3.382993 2.59436,-4.959699 5.14927,-5.689881 4.90841,-13.793667 -0.7278,-24.486356 -2.87246,-5.449482 -5.22428,-12.064019 -5.22627,-14.69897 -0.005,-6.056698 4.48037,-15.654764 7.93442,-16.980206 4.18144,-1.604567 4.64968,0.345204 1.61247,6.714298 -4.03544,8.462404 -3.532,13.40965 2.4239,23.819478 4.30235,7.519721 5.08195,10.408521 4.3273,16.034838 -0.50627,3.774476 -2.3804,8.82006 -4.16475,11.21241 -3.51736,4.715859 -8.77363,6.71937 -8.77363,3.344207 z"
       id="path966"
       inkscape:connector-curvature="0"
       transform="matrix(0.26458334,0,0,0.26458334,-81.800848,-0.28813203)" />
    <path
       style="fill:#ffffff;fill-opacity:1;fill-rule:nonzero;stroke:none;stroke-width:15.77392673;stroke-miterlimit:4;stroke-dasharray:none;stroke-opacity:1"
       d="m 189.77382,98.713751 c 0,-1.244016 1.61793,-3.703437 3.5954,-5.46538 9.76902,-8.704261 10.59783,-22.517342 2.29039,-38.171825 -8.82808,-16.635588 -7.82,-30.961547 3.01233,-42.808263 3.54129,-3.8729155 7.91843,-5.0671773 7.91843,-2.160471 0,0.89279 -2.27023,5.203043 -5.04497,9.57834 -7.00742,11.049568 -6.80143,19.307701 0.84083,33.708739 7.00525,13.200647 7.78855,23.80512 2.52104,34.130295 -5.35009,10.487044 -15.13345,17.720144 -15.13345,11.188565 z"
       id="path968"
       inkscape:connector-curvature="0"
       transform="matrix(0.26458334,0,0,0.26458334,-81.800848,-0.28813203)" />
    <path
       style="fill:#ffffff;fill-opacity:1;fill-rule:nonzero;stroke:none;stroke-width:15.77392673;stroke-miterlimit:4;stroke-dasharray:none;stroke-opacity:1"
       d="m 240.22348,89.822917 c 0,-0.584511 1.60636,-3.661907 3.5697,-6.838655 4.37514,-7.079129 3.61681,-16.319186 -1.98497,-24.186152 -5.35713,-7.523405 -6.11941,-19.317456 -1.70307,-26.349964 3.69061,-5.876852 8.56044,-7.326618 8.47313,-2.522483 -0.0294,1.618593 -1.16453,4.411836 -2.52248,6.207207 -3.78406,5.002965 -2.96796,11.87826 2.57596,21.701552 6.53867,11.58589 6.76372,20.66064 0.69134,27.877253 -3.87508,4.605265 -9.09961,6.965734 -9.09961,4.111242 z"
       id="path970"
       inkscape:connector-curvature="0"
       transform="matrix(0.26458334,0,0,0.26458334,-81.800848,-0.28813203)" />
  </g>
</svg>
