<?xml version="1.0" encoding="UTF-8" standalone="no"?>
<svg
   xmlns:osb="http://www.openswatchbook.org/uri/2009/osb"
   xmlns:dc="http://purl.org/dc/elements/1.1/"
   xmlns:cc="http://creativecommons.org/ns#"
   xmlns:rdf="http://www.w3.org/1999/02/22-rdf-syntax-ns#"
   xmlns:svg="http://www.w3.org/2000/svg"
   xmlns="http://www.w3.org/2000/svg"
   xmlns:sodipodi="http://sodipodi.sourceforge.net/DTD/sodipodi-0.dtd"
   xmlns:inkscape="http://www.inkscape.org/namespaces/inkscape"
   id="svg8"
   version="1.1"
   viewBox="0 0 323 106"
   height="106mm"
   width="323mm"
   sodipodi:docname="logo_white.svg"
   inkscape:version="0.92.3 (2405546, 2018-03-11)">
  <sodipodi:namedview
     pagecolor="#ffffff"
     bordercolor="#666666"
     borderopacity="1"
     objecttolerance="10"
     gridtolerance="10"
     guidetolerance="10"
     inkscape:pageopacity="0"
     inkscape:pageshadow="2"
     inkscape:window-width="1280"
     inkscape:window-height="961"
     id="namedview7"
     showgrid="false"
     width="298mm"
     inkscape:zoom="0.5946522"
     inkscape:cx="564.69325"
     inkscape:cy="135.23448"
     inkscape:window-x="-8"
     inkscape:window-y="-8"
     inkscape:window-maximized="1"
     inkscape:current-layer="svg8"
     showguides="false" />
  <defs
     id="defs2">
    <linearGradient
       id="linearGradient842"
       osb:paint="solid">
      <stop
         style="stop-color:#000000;stop-opacity:1;"
         offset="0"
         id="stop840" />
    </linearGradient>
  </defs>
  <metadata
     id="metadata5">
    <rdf:RDF>
      <cc:Work
         rdf:about="">
        <dc:format>image/svg+xml</dc:format>
        <dc:type
           rdf:resource="http://purl.org/dc/dcmitype/StillImage" />
        <dc:title />
      </cc:Work>
    </rdf:RDF>
  </metadata>
  <g
     id="layer1"
     transform="matrix(1.0288519,0,0,1.0288519,74.328508,-1.9547016)"
     style="fill:none;fill-opacity:1;stroke:none;stroke-width:3.19616675;stroke-miterlimit:4;stroke-dasharray:none;stroke-opacity:1">
    <path
       id="path1377"
       d="M -80.282145,54.339292 V 0.0997119 H 81.64286 243.56786 V 54.339292 108.57886 H 81.64286 -80.282145 Z m 62.044794,39.55959 c 5.774875,-0.59558 9.7494513,-1.85852 11.5073063,-3.6565 0.837245,-0.85635 1.057235,-2.0347 0.46509,-2.49119 -0.531556,-0.40978 -1.643301,0.008 -1.736738,0.65293 -0.162582,1.12185 -3.2132733,2.34321 -7.8391743,3.13845 -3.79164,0.65183 -12.543044,0.78916 -16.685649,0.26185 -5.8547,-0.74525 -10.01399,-2.16436 -10.357739,-3.53396 -0.128612,-0.51243 -0.30243,-0.60817 -0.983822,-0.54189 -0.687133,0.0668 -0.8421,0.2069 -0.912979,0.8252 -0.469165,4.09263 12.793094,6.76325 26.543705,5.34511 z m 92.246958,-1.72335 c 2.744002,-0.91932 3.461081,-1.33486 2.740025,-1.58779 -0.37488,-0.1315 -0.262131,-0.38394 0.701953,-1.57161 0.631711,-0.77823 1.368628,-1.69803 1.637596,-2.04402 0.268965,-0.34599 0.643046,-1.31124 0.831292,-2.14501 0.188245,-0.83377 0.647528,-2.35217 1.020625,-3.37423 1.059071,-2.90119 1.354209,-5.33624 0.851815,-7.02798 -0.227105,-0.76475 -0.611756,-1.69756 -0.854781,-2.07292 -1.021062,-1.57708 -4.439291,-5.33032 -4.954601,-5.44021 -0.30711,-0.0655 -1.510872,-0.16304 -2.67503,-0.21679 l -2.116649,-0.0977 -1.264311,1.3455 c -2.343489,2.49399 -5.280761,7.42556 -6.15936,10.34134 -0.665858,2.20976 -0.800076,5.93333 -0.272058,7.54766 0.649465,1.98561 2.340145,4.52306 4.062542,6.09724 1.450684,1.32584 1.529128,1.36059 2.746079,1.21646 0.689004,-0.0816 2.356194,-0.51806 3.704863,-0.96991 z m -3.935889,-8.15011 c 0.341905,-5.27735 2.836138,-9.23327 5.673886,-8.99895 0.858782,0.0709 1.068822,0.22249 1.483162,1.07037 0.422013,0.86358 0.444222,1.17309 0.176662,2.46192 -0.528373,2.54517 -3.031379,6.62905 -4.548825,7.42183 -0.392956,0.2053 -1.214252,0.37327 -1.825101,0.37327 h -1.110636 z m 27.483806,8.15011 c 2.744006,-0.91932 3.461086,-1.33486 2.740026,-1.58779 -0.374881,-0.1315 -0.26213,-0.38394 0.70195,-1.57161 2.04405,-2.51812 2.14812,-2.69002 2.38009,-3.93175 0.12586,-0.67366 0.57345,-2.12213 0.99466,-3.21882 1.12949,-2.94085 1.48604,-5.69145 0.96513,-7.44556 -0.22631,-0.76206 -0.60975,-1.69267 -0.85208,-2.06803 -0.80695,-1.24991 -4.41647,-5.30656 -4.83612,-5.43521 -0.227441,-0.0697 -1.455629,-0.15998 -2.729309,-0.20056 l -2.315782,-0.0738 -1.061424,1.19063 c -1.882603,2.11176 -3.355909,4.30513 -4.709652,7.01145 -1.613956,3.22653 -1.863204,4.08946 -2.075537,7.18584 -0.130932,1.90928 -0.07057,2.71564 0.284565,3.80141 0.649464,1.98561 2.340144,4.52306 4.062542,6.09724 1.450684,1.32584 1.529127,1.36059 2.746079,1.21646 0.689004,-0.0816 2.356194,-0.51806 3.704862,-0.96991 z m -4.00382,-7.34302 c 0.01019,-3.37412 1.147855,-6.68974 2.923047,-8.51895 1.808893,-1.86394 3.838269,-1.82814 4.467619,0.0788 0.55717,1.68825 -0.58277,4.88568 -2.787453,7.81856 -1.229064,1.63501 -2.11105,2.14291 -3.721246,2.14291 H 93.54911 l 0.0046,-1.52135 z m 22.384106,7.26784 c 0.454,-0.49541 1.08175,-1.60409 1.39498,-2.46372 1.00267,-2.75174 1.41947,-3.54753 1.85494,-3.54163 0.23256,0.003 1.48837,0.24128 2.79068,0.52917 1.30232,0.28789 2.93496,0.52344 3.6281,0.52344 2.16443,0 6.1195,-1.83426 5.20501,-2.41395 -0.19417,-0.12308 -1.12694,-0.22702 -2.07283,-0.23097 -2.96975,-0.0124 -6.54098,-1.29718 -7.11643,-2.56015 -0.59071,-1.29648 -0.1808,-4.93125 0.75286,-6.67582 0.4967,-0.92808 5.42186,-7.51307 5.93998,-7.94179 0.51376,-0.42512 1.21734,-1.96672 1.21734,-2.66729 0,-0.56798 -2.4552,-2.8521 -3.29128,-3.06194 -0.33234,-0.0834 -1.00053,-0.11311 -1.48488,-0.066 -0.69533,0.0676 -0.99534,0.28876 -1.42568,1.05087 -0.29977,0.53087 -1.06973,1.60244 -1.71103,2.38125 -0.64131,0.77881 -1.6061,2.09206 -2.14399,2.91832 l -0.97798,1.5023 -0.14919,-3.5583 c -0.13382,-3.19167 -0.21907,-3.67753 -0.82739,-4.71556 -1.15756,-1.97523 -3.14098,-3.32885 -4.11436,-2.80791 -0.65676,0.35148 -0.73536,0.62988 -1.06151,3.75952 -0.15648,1.50158 -0.4516,3.56359 -0.65581,4.58224 -0.20422,1.01864 -0.44035,3.24357 -0.52473,4.94428 -0.0844,1.7007 -0.2564,3.36758 -0.38226,3.70416 -0.12586,0.33659 -0.19788,3.17182 -0.16004,6.30051 0.0742,6.13478 0.4991,8.75276 1.7488,10.77481 0.53672,0.86843 0.63946,0.91683 1.65671,0.78039 0.78599,-0.10543 1.31173,-0.39341 1.90999,-1.04621 z m 83.21971,0.0752 c 2.744,-0.91932 3.4611,-1.33486 2.74003,-1.58779 -0.37489,-0.1315 -0.26212,-0.38394 0.70196,-1.57161 2.04404,-2.51812 2.1481,-2.69002 2.38009,-3.93175 0.12584,-0.67366 0.57343,-2.12213 0.99465,-3.21882 1.12951,-2.94085 1.48606,-5.69145 0.96512,-7.44556 -0.2263,-0.76206 -0.60973,-1.69267 -0.85206,-2.06803 -0.80696,-1.24991 -4.41648,-5.30656 -4.83614,-5.43521 -0.22743,-0.0697 -1.45563,-0.15998 -2.72931,-0.20056 l -2.31576,-0.0738 -1.06143,1.19063 c -1.88259,2.11176 -3.35592,4.30513 -4.70967,7.01145 -1.61395,3.22653 -1.86319,4.08946 -2.07552,7.18584 -0.13094,1.90928 -0.0706,2.71564 0.28456,3.80141 0.64947,1.98561 2.34013,4.52306 4.06254,6.09724 1.45069,1.32584 1.52914,1.36059 2.74609,1.21646 0.689,-0.0816 2.35619,-0.51806 3.70485,-0.96991 z m -4.0038,-7.34302 c 0.0103,-3.37412 1.14784,-6.68974 2.92303,-8.51895 1.80891,-1.86394 3.83826,-1.82814 4.46763,0.0788 0.55716,1.68825 -0.58278,4.88568 -2.78747,7.81856 -1.22907,1.63501 -2.11103,2.14291 -3.72123,2.14291 h -0.88657 l 0.005,-1.52135 z m -15.05919,6.24338 c 1.43524,-0.48681 2.37924,-1.28091 2.90877,-2.4469 0.60158,-1.32464 0.62162,-2.04808 0.10494,-3.78795 -0.96755,-3.25809 -4.36893,-6.69717 -8.97879,-9.07834 -4.46703,-2.30738 -5.46927,-3.50311 -4.92722,-5.87847 0.77047,-3.37631 5.66173,-7.4691 8.8829,-7.43283 1.51467,0.0171 4.36398,0.77163 4.36398,1.15569 0,0.42151 0.72401,0.29141 0.89774,-0.16132 0.33492,-0.8728 0.1396,-3.67292 -0.39228,-5.62359 -0.70982,-2.60326 -0.79552,-2.7548 -1.69378,-2.99503 -0.41302,-0.11046 -0.84622,-0.35471 -0.96265,-0.54279 -0.38526,-0.62229 -2.95143,-0.40393 -4.10645,0.34943 -0.56024,0.36541 -1.73299,0.94646 -2.60612,1.2912 -3.06101,1.20861 -7.25828,4.08343 -8.17441,5.59887 -0.2335,0.38625 -0.42455,0.94004 -0.42455,1.23064 0,0.31852 -0.35086,0.73536 -0.88347,1.04961 -0.60336,0.35599 -1.01485,0.88858 -1.29782,1.67978 -0.22789,0.63719 -0.61518,1.6943 -0.86064,2.34915 -0.30257,0.80721 -0.39513,1.56994 -0.28742,2.36853 0.44567,3.30424 3.00519,5.97164 8.8856,9.2601 2.96083,1.65576 3.96875,2.33726 3.96875,2.68343 0,0.48438 -1.34644,0.75723 -5.75289,1.16578 -7.21664,0.6691 -10.12211,1.34579 -10.12211,2.35747 0,0.57482 1.66104,1.21106 4.9331,1.88959 2.25868,0.46837 3.24377,0.80238 3.83584,1.30057 0.43816,0.36869 1.0407,0.67035 1.33896,0.67035 0.29826,0 1.74764,0.35034 3.22084,0.77853 1.47321,0.42819 2.91668,0.8311 3.20772,0.89535 1.09898,0.24261 4.05695,0.16637 4.92146,-0.12685 z m -198.979163,-1.16373 c 10.2481463,-1.42937 19.79723939,-6.15575 27.7222143,-13.72128 3.4464227,-3.29011 8.0287287,-9.8708 9.5640397,-13.73499 0.447188,-1.12553 0.679772,-1.44637 0.863107,-1.19063 0.187757,0.2619 0.21448,0.23614 0.106106,-0.1023 -0.07967,-0.2488 0.146479,-1.28624 0.502558,-2.30541 1.120026,-3.20576 1.976054,-6.40065 2.413966,-9.00945 0.60121,-3.58165 0.590087,-4.86274 -0.04836,-5.56921 -0.816725,-0.90377 -2.92602,-1.8661 -5.815932,-2.65345 -2.348394,-0.63981 -2.787115,-0.85751 -3.90259,-1.93654 -1.485522,-1.437 -3.208338,-2.35933 -5.2583695,-2.81515 -2.134116,-0.47452 -4.0579544,-0.15706 -6.56073811,1.08259 l -2.10510449,1.04268 -2.3313895,-0.1782 c -1.9435441,-0.14856 -2.4726051,-0.29062 -3.1802441,-0.85391 -0.489595,-0.38972 -0.732181,-0.7478 -0.573183,-0.84606 0.15162,-0.0937 -0.06171,-0.17117 -0.474062,-0.17214 -0.412355,-10e-4 -1.370422,-0.11814 -2.1290383,-0.26038 -0.758619,-0.14224 -1.317138,-0.15803 -1.241158,-0.0351 0.396685,0.64185 -0.352224,0.077 -1.249635,-0.94251 -1.078386,-1.22511 -2.777215,-2.01413 -4.312976,-2.00315 -1.00517,0.007 -2.659375,0.74271 -3.759803,1.67175 -0.792091,0.66873 -0.877726,0.68434 -1.85742,0.33869 -2.810666,-0.99167 -5.668259,-0.68447 -8.50019,0.91377 -0.771271,0.43528 -1.534689,0.7096 -1.696482,0.60961 -0.171545,-0.10602 -0.220186,-0.0621 -0.116684,0.10537 0.09762,0.15795 0.05648,0.36197 -0.09141,0.45337 -0.147894,0.0914 -0.268898,0.041 -0.268898,-0.11197 0,-0.48385 -1.590257,-1.71911 -2.852074,-2.2154 -0.802711,-0.31571 -1.539002,-0.42325 -2.169086,-0.31679 -0.787834,0.1331 -1.222478,-5.3e-4 -2.49696,-0.76805 -2.113862,-1.2729 -4.92537,-1.8903 -6.817389,-1.49709 -2.166618,0.45029 -3.916249,1.38349 -5.713455,3.04738 l -1.641142,1.51941 -1.240621,-0.42272 c -1.607959,-0.54789 -2.154541,-0.53305 -3.859198,0.10474 -1.367027,0.51147 -2.99731,1.90301 -3.59077,3.06493 -0.21181,0.4147 -0.950485,0.72383 -3.007845,1.25875 -3.160217,0.82168 -5.927314,2.12229 -6.651133,3.12621 -0.4893,0.67865 -0.491734,0.80263 -0.07533,3.83646 2.268674,16.52919 12.283419,30.15944 27.442703,37.35002 3.271777,1.55192 4.277477,1.93077 7.777512,2.92984 1.828234,0.52185 5.474769,1.23997 7.276042,1.43287 2.55905,0.27406 9.241703,0.14703 11.920427,-0.22659 z m -11.258969,-1.87578 c -0.980424,-0.1091 -4.323188,-0.67366 -6.02067,-1.01683 -3.106082,-0.62794 -10.645972,-3.68058 -10.334732,-4.18418 0.09636,-0.15591 0.03264,-0.18546 -0.152789,-0.0709 -0.623011,0.38505 -6.129401,-3.26564 -9.787409,-6.48897 -3.532298,-3.11256 -3.759046,-2.8316 2.275602,-2.81963 2.879019,0.006 5.871002,-0.11001 6.648848,-0.25717 l 1.414269,-0.26756 1.486014,1.30037 c 6.01019,5.25939 14.238619,7.93008 21.893372,7.10592 6.184551,-0.66587 12.467646,-3.4164 16.8523163,-7.37739 l 0.9914831,-0.89568 3.5064334,0.32339 c 2.5756421,0.23755 4.3488267,0.25099 6.6798694,0.0506 1.7453928,-0.15001 3.2336741,-0.21014 3.3072918,-0.13362 0.2452767,0.25495 -4.3294592,4.35896 -6.8776058,6.16992 -5.8954278,4.18986 -11.7717102,6.7143 -18.7854172,8.07016 -2.209218,0.42708 -10.783983,0.74886 -13.096876,0.49149 z m 1.932506,-8.83779 c -5.862635,-0.68355 -11.156926,-3.07266 -15.470283,-6.98112 l -1.631524,-1.47838 -1.940351,0.27838 c -2.724261,0.39085 -7.443809,0.50579 -9.480974,0.23089 -0.945885,-0.12763 -2.434166,-0.30017 -3.307291,-0.38342 -1.815107,-0.17306 -1.705168,-0.0731 -4.208538,-3.82565 -1.784191,-2.6745 -3.48314,-5.89946 -4.251257,-8.0698 -0.257511,-0.7276 -0.62024,-1.6801 -0.806063,-2.11666 -0.552002,-1.29684 -2.117253,-8.33438 -1.853686,-8.33438 0.06161,0 1.040899,0.29323 2.176198,0.65162 7.896122,2.49264 23.175503,3.84358 43.471472,3.84358 20.8057814,0 36.982475,-1.48666 43.98698,-4.04245 l 1.785938,-0.65165 -0.0042,0.56247 c -0.0069,0.94191 -0.973191,5.19132 -1.722194,7.57393 -1.306904,4.15733 -5.16794,11.45402 -7.22267,13.64962 -0.983303,1.05071 -7.2363069,1.56688 -12.8791155,1.06314 -4.0384022,-0.36051 -3.8917911,-0.39044 -5.6024012,1.14364 -4.4655403,4.00469 -9.4050283,6.20676 -15.4925403,6.90671 -2.433357,0.27979 -2.989898,0.27774 -5.547554,-0.0205 z M 6.9576928,66.765242 c 1.2754584,-1.24699 3.9749072,-5.33553 5.2797292,-7.99657 1.006684,-2.05303 1.135808,-2.49312 0.874657,-2.98108 -0.223962,-0.41848 -0.482013,-0.5389 -0.95929,-0.44767 -0.514458,0.0984 -0.909558,0.63583 -1.863188,2.53462 -1.289719,2.56798 -3.1075574,5.39311 -4.6789046,7.27155 -1.0297875,1.23104 -1.1441563,1.60479 -0.6440885,2.10486 0.5156253,0.51563 1.116928,0.36895 1.9910849,-0.48571 z m -68.6056108,-5.16881 c 0.228675,-0.22868 0.415774,-0.49436 0.415774,-0.59042 0,-0.096 -0.625079,-1.5751 -1.389063,-3.28677 -1.27331,-2.8528 -1.448209,-3.11227 -2.098837,-3.11376 -0.486664,-0.001 -0.764514,0.17086 -0.883916,0.54706 -0.195895,0.61721 0.04743,1.31087 1.522333,4.33985 1.260395,2.58843 1.62988,2.90787 2.433709,2.10404 z m 21.053274,-10.88618 c -4.091839,-0.17424 -13.14985,-0.9351 -16.873538,-1.41734 -8.309685,-1.07616 -14.54022,-2.73056 -13.940128,-3.70153 0.344044,-0.55667 2.756255,-1.54069 5.149082,-2.10047 3.744385,-0.87597 3.804535,-0.90083 4.233334,-1.74963 1.466862,-2.9036 4.120227,-3.74271 6.570345,-2.07781 1.137187,0.77274 1.310396,0.68851 3.070974,-1.49334 3.016004,-3.73769 7.508862,-4.34871 11.235642,-1.52801 1.29036,0.97664 1.437516,1.02472 2.368717,0.77397 1.055997,-0.28435 2.40797,-0.039 3.141991,0.57018 0.22397,0.18588 0.690176,0.78619 1.03601,1.33403 0.852578,1.35057 1.586151,1.31073 3.589121,-0.19493 2.823813,-2.1227 5.598187,-2.45913 8.64362,-1.04816 1.340943,0.62127 1.418495,0.62837 2.027283,0.1858 0.348152,-0.2531 0.636743,-0.55798 0.641318,-0.67752 0.0046,-0.11953 0.157141,-0.36253 0.339042,-0.53999 2.008871,-1.95985 4.672547,-1.48607 5.785068,1.02897 0.558797,1.26325 0.927303,1.40993 2.264746,0.90143 1.073552,-0.40816 2.2893653,-0.0893 3.4924813,0.91584 1.017574,0.85015 1.154584,0.88575 4.1105461,1.06777 l 3.05788199,0.18831 1.5256272,-0.93193 c 1.92511111,-1.17595 3.61651831,-1.6008 5.45740451,-1.3708 2.0729444,0.259 4.3449349,1.62147 5.5334429,3.31831 0.305782,0.43656 1.067779,0.74074 3.01267,1.20263 3.008405,0.71447 5.646071,1.80689 5.646071,2.33838 0,0.2022 -0.589722,0.62132 -1.310494,0.93139 -3.98098,1.71257 -14.9109833,3.24089 -28.5874227,3.99733 -4.2342793,0.2342 -26.2549443,0.28859 -31.2208353,0.0771 z m 14.143694,-2.97762 c 0.62819,-0.43221 1.629659,-0.86379 2.22549,-0.95906 1.23408,-0.19734 1.745888,-0.66506 1.549506,-1.41602 -0.07449,-0.28484 7.94e-4,-0.56375 0.167211,-0.6198 0.166452,-0.056 -0.114077,-0.11427 -0.6234,-0.12939 -0.509323,-0.0151 -1.804138,0.27549 -2.877371,0.64578 -1.6716,0.57674 -2.050886,0.62629 -2.645833,0.34561 -2.596674,-1.22504 -4.639591,-1.12548 -4.479404,0.21831 0.07092,0.59496 0.262618,0.71338 1.577676,0.97463 0.862542,0.17135 1.871708,0.59478 2.38125,0.99915 1.129051,0.89599 1.3433,0.89134 2.724875,-0.0592 z m -25.017942,-2.65858 c 0.696592,-0.47201 1.507281,-0.78893 2.018125,-0.78893 0.974439,0 1.537608,-0.51641 1.283978,-1.17736 -0.270375,-0.70458 -1.329187,-0.98515 -2.513912,-0.66613 -0.571259,0.15382 -1.173364,0.19642 -1.338011,0.0947 -0.183296,-0.11329 -0.226166,-0.0666 -0.110572,0.12044 0.27441,0.44401 -0.340289,0.37459 -0.805887,-0.091 -0.486981,-0.48698 -1.541816,-0.77241 -2.084674,-0.56409 -0.796319,0.30557 -0.781098,1.02349 0.03676,1.73407 0.431555,0.37494 0.990744,1.00913 1.24264,1.40932 0.575025,0.91352 0.830445,0.90554 2.271549,-0.071 z m 97.922168,43.59615 c 2.047544,-0.97414 5.961692,-4.77151 7.368074,-7.14824 0.957951,-1.61891 1.20668,-3.24091 0.558419,-3.64156 -0.597646,-0.36937 -1.466366,-0.0584 -5.016077,1.7954 -1.81901,0.94997 -3.783541,1.96915 -4.365625,2.26483 -1.558568,0.79172 -3.596463,0.76104 -4.479039,-0.0674 -1.44332,-1.35487 -1.495983,-3.90462 -0.162647,-7.8747 1.528765,-4.55199 4.620906,-8.45874 8.011965,-10.12269 2.255276,-1.10663 3.353379,-1.02402 6.331341,0.47634 2.464695,1.24176 2.927255,1.17854 3.420415,-0.46748 0.415025,-1.38523 0.180239,-1.95959 -2.174248,-5.31886 -1.073574,-1.53172 -2.249609,-3.35171 -2.613412,-4.04443 -0.794792,-1.51336 -1.104029,-1.61622 -4.348646,-1.44651 -2.174296,0.11373 -2.66704,0.23965 -4.407475,1.12632 -5.135803,2.61644 -7.834884,5.50107 -10.916949,11.66741 -2.263944,4.52952 -2.906086,10.52615 -1.517438,14.17056 1.095163,2.87417 4.85064,7.36022 7.17528,8.57112 2.603447,1.35613 4.380236,1.37106 7.136062,0.0599 z m 188.184264,-0.39811 c 1.21272,-1.36248 1.60033,-5.8728 0.84635,-9.84757 -0.50218,-2.64725 -1.70765,-6.26053 -2.5922,-7.76991 -0.99933,-1.70522 -3.10102,-3.54519 -4.30872,-3.77214 -0.89966,-0.16907 -2.5015,0.004 -5.29129,0.57123 -0.70242,0.14286 -0.99042,0.0231 -1.88262,-0.78296 -0.57933,-0.52339 -1.45632,-1.14117 -1.94884,-1.37283 -0.49252,-0.23166 -1.3122,-0.64881 -1.82152,-0.927 -0.70173,-0.38328 -1.45989,-0.5059 -3.12989,-0.50621 l -2.20382,-5.3e-4 0.13914,0.7276 c 0.4377,2.28863 0.44022,3.27455 0.0161,6.309 -0.40463,2.89484 -0.4241,3.76986 -0.15145,6.80771 0.41045,4.5735 0.9312,6.97811 1.68736,7.79162 0.78078,0.84005 3.09602,2.1709 3.78214,2.17408 0.29503,0.001 0.81174,0.19531 1.14824,0.431 0.46982,0.32908 0.75192,0.36467 1.21568,0.15336 1.07018,-0.48761 1.67915,-2.26914 2.1123,-6.17954 0.42188,-3.80897 0.88789,-5.39694 2.35593,-8.02838 1.5146,-2.71492 1.90177,-2.37798 2.81866,2.45309 0.82333,4.33823 1.31212,6.09951 2.2869,8.24026 1.47854,3.24716 3.73308,4.8633 4.92156,3.528 z m -90.55301,-5.06205 c 0.94588,-0.25712 3.47436,-0.99438 5.61882,-1.63839 l 3.89904,-1.17091 0.004,-0.81742 c 0.006,-1.28655 -0.65278,-1.43251 -6.42502,-1.42436 -8.63119,0.0122 -11.27669,0.47634 -11.5087,2.01927 -0.0886,0.58903 1.83911,2.92432 2.70207,3.27342 0.93028,0.37633 3.89904,0.25071 5.71022,-0.24161 z M -25.7324,26.756482 c 1.380869,-1.03699 2.799853,-3.67256 3.031824,-5.63119 0.221774,-1.87252 -0.475266,-4.36592 -1.737413,-6.21496 -2.236512,-3.2765 -2.109086,-6.2697301 0.384405,-9.0297201 0.959707,-1.06228 1.026388,-1.2308 0.760841,-1.92281 -0.280834,-0.73184 -1.348147,-0.47322 -2.367603,0.57368 -1.404421,1.44223 -2.281983,3.34067 -2.437013,5.27201 -0.177536,2.2117101 0.261075,3.7667901 1.672077,5.9283101 1.481343,2.26928 1.914689,3.96431 1.48709,5.81677 -0.347678,1.50623 -1.526587,3.38226 -2.544598,4.04928 -0.724403,0.47465 -0.874411,1.18555 -0.358937,1.70102 0.487828,0.48783 0.867455,0.39021 2.109327,-0.54239 z m -10.904625,-2.64584 c 1.183386,-1.15232 1.598631,-2.24042 1.598631,-4.18903 0,-1.26021 -0.158377,-1.91733 -0.703508,-2.91891 -0.38693,-0.71092 -0.785567,-1.29258 -0.885857,-1.29258 -0.100293,0 -0.395256,-0.47214 -0.655473,-1.04919 -0.60836,-1.34911 -0.418502,-2.88093 0.525997,-4.24384 0.823804,-1.1887601 0.719888,-2.1153001 -0.237242,-2.1153001 -1.097092,0 -2.426195,1.9928801 -2.709992,4.0634201 -0.201869,1.47278 0.21857,2.78648 1.524712,4.76412 0.801145,1.21303 1.024697,1.80654 1.024697,2.72048 0,1.30908 -0.489993,2.68784 -1.149641,3.2349 -0.514443,0.42663 -0.582833,1.51865 -0.10713,1.7106 0.649258,0.26198 0.903271,0.16399 1.774806,-0.68467 z m 23.565698,0.326 c 1.540364,-1.09684 2.345962,-3.37194 1.973858,-5.57441 -0.105712,-0.62571 -0.694495,-1.824 -1.397535,-2.84427 -1.048343,-1.52139 -1.215594,-1.94714 -1.220197,-3.10614 -0.0044,-1.09728 0.148346,-1.55206 0.834353,-2.48489 0.660688,-0.8983901 0.783595,-1.2466101 0.576556,-1.6334701 -0.358622,-0.67009 -1.358996,-0.61875 -2.01953,0.10364 -1.902233,2.0803701 -2.103224,5.1331001 -0.48513,7.3683701 2.031598,2.80649 2.213827,4.44561 0.70322,6.32536 -1.098457,1.36688 -1.075597,2.25272 0.06087,2.35882 0.123058,0.0115 0.561147,-0.21937 0.973535,-0.51301 z"
       style="fill:none;fill-opacity:1;stroke:none;stroke-width:3.11679173;stroke-miterlimit:4;stroke-dasharray:none;stroke-opacity:1"
       inkscape:connector-curvature="0" />
  </g>
  <path
     style="fill:#000000;fill-opacity:1;fill-rule:nonzero;stroke:none;stroke-width:5.99023724;stroke-miterlimit:4;stroke-dasharray:none;stroke-opacity:1"
     d="m 118.0602,89.193603 c -3.21438,-1.590348 -7.07062,-6.593098 -7.8887,-10.234117 -0.79895,-3.555885 0.25928,-8.873508 2.74724,-13.80494 3.33799,-6.61627 9.91386,-11.595806 15.35582,-11.628093 2.23141,-0.01324 2.52666,0.237604 5.26861,4.476215 4.26426,6.59189 3.90339,8.578426 -1.15211,6.342135 -2.63435,-1.165295 -3.12285,-1.203104 -5.0187,-0.388426 -6.16643,2.649806 -11.88667,13.849473 -9.18197,17.977371 1.42791,2.179256 3.36077,2.036391 8.67823,-0.641435 4.42723,-2.229522 6.38618,-2.741397 6.38618,-1.66872 0,1.329918 -4.35594,6.789394 -6.70549,8.404277 -3.60614,2.478549 -5.35131,2.718197 -8.48911,1.165733 z"
     id="path815"
     inkscape:connector-curvature="0" />
  <path
     style="fill:#000000;fill-opacity:1;fill-rule:nonzero;stroke:none;stroke-width:5.99023724;stroke-miterlimit:4;stroke-dasharray:none;stroke-opacity:1"
     d="m 145.41192,91.439255 c -2.54383,-2.897253 -3.2166,-4.661285 -3.21597,-8.432317 5.4e-4,-3.54085 2.64224,-9.575985 5.73166,-13.094644 2.8068,-3.196767 5.90521,-3.294237 8.73427,-0.27476 2.9825,3.183254 4.05349,5.058652 4.05349,7.098042 0,2.645831 -2.34125,10.173299 -3.72525,11.977225 -0.64145,0.836091 -1.32898,1.968623 -1.52782,2.516742 -0.36837,1.015403 -4.38147,2.515821 -6.72895,2.515821 -0.71316,0 -2.2078,-1.03775 -3.32143,-2.306109 z m 7.49752,-5.524919 c 1.9103,-2.033418 4.12262,-7.299441 3.66815,-8.731355 -1.54665,-4.87304 -7.94435,1.363923 -7.98194,7.781385 -0.0122,2.084882 0.1782,2.394816 1.4712,2.394816 0.81688,0 2.09604,-0.650181 2.84259,-1.444846 z"
     id="path817"
     inkscape:connector-curvature="0" />
  <path
     style="fill:#000000;fill-opacity:1;fill-rule:nonzero;stroke:none;stroke-width:5.99023724;stroke-miterlimit:4;stroke-dasharray:none;stroke-opacity:1"
     d="m 169.09021,91.282816 c -1.0727,-1.3544 -2.27042,-3.294202 -2.6616,-4.310671 -1.50064,-3.899372 0.80695,-11.335258 5.28037,-17.015302 1.66048,-2.108376 2.21689,-2.39482 4.65187,-2.39482 2.56361,0 2.9565,0.239516 5.37459,3.276512 2.22013,2.788363 2.6088,3.72491 2.6088,6.286205 0,6.135476 -4.1168,14.390946 -7.86598,15.773767 -3.75532,1.385083 -5.27453,1.052847 -7.38805,-1.615691 z m 7.56411,-5.174372 c 1.75281,-1.752801 3.85821,-6.06684 3.85821,-7.905586 0,-0.849085 -0.45849,-1.924302 -1.01886,-2.389371 -2.3976,-1.989831 -6.13778,2.563307 -6.99241,8.512261 -0.42469,2.956222 -0.3933,3.033434 1.23327,3.033434 0.91798,0 2.23189,-0.562831 2.91979,-1.250738 z"
     id="path819"
     inkscape:connector-curvature="0" />
  <path
     style="fill:#000000;fill-opacity:1;fill-rule:nonzero;stroke:none;stroke-width:5.99023724;stroke-miterlimit:4;stroke-dasharray:none;stroke-opacity:1"
     d="m 191.47409,92.124358 c -1.40724,-3.088561 -1.58439,-12.246231 -0.43191,-22.327171 0.60232,-5.268598 1.38351,-9.932453 1.73598,-10.364122 0.45353,-0.555445 0.9903,-0.597832 1.83639,-0.145019 1.78564,0.955645 2.68044,3.056625 3.09111,7.257925 l 0.36887,3.77358 2.75491,-3.933236 c 2.96949,-4.239587 4.73446,-4.965312 6.72538,-2.765369 1.56067,1.72452 1.3602,2.414207 -2.05096,7.056056 -4.13557,5.627633 -4.55555,6.534067 -4.55555,9.832201 0,2.445308 0.22969,2.920054 1.7562,3.629816 0.96591,0.449107 3.19309,1.02221 4.94929,1.27356 l 3.19309,0.457005 -1.91586,0.818926 c -2.31182,0.98818 -4.23762,1.110585 -7.78201,0.494628 l -2.67307,-0.464537 -1.79726,3.353727 c -2.10749,3.932627 -4.00658,4.681387 -5.2046,2.05203 z"
     id="path821"
     inkscape:connector-curvature="0" />
  <path
     style="fill:#000000;fill-opacity:1;fill-rule:nonzero;stroke:none;stroke-width:5.99023724;stroke-miterlimit:4;stroke-dasharray:none;stroke-opacity:1"
     d="m 216.90581,82.56109 c -2.35829,-2.510286 -1.0734,-3.082148 7.50867,-3.341871 6.87024,-0.207918 10.11143,0.319951 8.97044,1.460947 -0.75011,0.750108 -10.93257,3.485926 -12.9743,3.485926 -1.30721,0 -2.5178,-0.554379 -3.50481,-1.605002 z"
     id="path823"
     inkscape:connector-curvature="0" />
  <path
     style="fill:#000000;fill-opacity:1;fill-rule:nonzero;stroke:none;stroke-width:5.99023724;stroke-miterlimit:4;stroke-dasharray:none;stroke-opacity:1"
     d="m 251.39913,90.808951 c -1.58058,-0.491852 -3.30485,-1.091477 -3.83171,-1.332494 -0.52686,-0.24102 -2.53278,-0.88785 -4.4576,-1.4374 -1.92482,-0.54955 -3.5054,-1.286562 -3.5124,-1.637802 -0.007,-0.35124 2.57368,-1.013636 5.73484,-1.471989 3.16116,-0.458355 6.75339,-0.98837 7.98273,-1.177813 l 2.23516,-0.344444 -1.59655,-1.266205 c -0.87809,-0.696413 -3.43658,-2.465423 -5.68552,-3.931131 -5.1931,-3.384513 -6.97141,-6.383077 -5.90212,-9.952066 0.39606,-1.321925 1.29735,-2.925892 2.00286,-3.564373 0.70551,-0.638482 1.28275,-1.545598 1.28275,-2.015817 0,-1.881332 10.423,-7.887753 13.68769,-7.887753 2.65788,0 3.6288,1.393092 4.02455,5.774474 0.31528,3.490679 0.23427,4.015299 -0.5275,3.415695 -3.74476,-2.947648 -11.25227,0.267022 -13.31058,5.699513 -0.94896,2.504575 -0.0574,3.874482 4.30884,6.620856 8.55599,5.381699 11.80045,10.8727 8.42107,14.252071 -1.53571,1.53571 -6.37839,1.650202 -10.85651,0.256678 z"
     id="path825"
     inkscape:connector-curvature="0" />
  <path
     style="fill:#000000;fill-opacity:1;fill-rule:nonzero;stroke:none;stroke-width:5.99023724;stroke-miterlimit:4;stroke-dasharray:none;stroke-opacity:1"
     d="m 273.01027,91.989165 c -3.08976,-3.353469 -3.73001,-4.805441 -3.7236,-8.444132 0.007,-3.962509 1.92452,-8.750322 5.30179,-13.238006 1.81581,-2.412811 2.32384,-2.707646 4.69593,-2.725256 2.37215,-0.01762 2.94038,0.298949 5.25327,2.926518 1.43477,1.629971 2.77536,3.916233 3.00071,5.117341 0.5156,2.748406 -2.35133,12.288162 -4.19408,13.955821 -0.71033,0.642829 -1.29148,1.509816 -1.29148,1.926641 0,0.786607 -4.00791,2.237272 -6.18116,2.237272 -0.68381,0 -1.97145,-0.790291 -2.86138,-1.756199 z m 7.4883,-6.863849 c 4.40313,-5.772813 3.69188,-12.200656 -0.96863,-8.753952 -2.14025,1.582824 -3.37462,4.210532 -3.73378,7.948428 -0.28018,2.915859 -0.22518,3.03939 1.35325,3.03939 1.12967,0 2.17926,-0.700068 3.34916,-2.233866 z"
     id="path827"
     inkscape:connector-curvature="0" />
  <path
     style="fill:#000000;fill-opacity:1;fill-rule:nonzero;stroke:none;stroke-width:5.99023724;stroke-miterlimit:4;stroke-dasharray:none;stroke-opacity:1"
     d="m 312.74293,87.889807 c -1.53005,-1.642287 -2.91299,-5.267871 -3.85636,-10.109894 -0.37637,-1.931821 -0.95271,-3.942068 -1.28077,-4.467217 -0.51133,-0.818532 -0.73563,-0.772957 -1.57153,0.319309 -1.11503,1.45705 -2.90534,6.927539 -2.91063,8.893798 -0.003,0.72654 -0.30284,2.398649 -0.66866,3.715799 -0.78004,2.808878 -2.28157,3.120043 -5.52187,1.14432 -2.79258,-1.702748 -3.43753,-4.552606 -3.32297,-14.683031 0.0929,-8.21742 0.11458,-8.333958 1.54771,-8.333958 0.79941,0 3.10155,0.86695 5.11591,1.926552 3.16248,1.663562 4.08748,1.870162 6.77624,1.513484 2.95212,-0.39161 3.22161,-0.298766 5.18941,1.787719 2.62089,2.778927 4.29875,8.030951 4.29875,13.455722 0,6.404036 -1.06777,7.765007 -3.79523,4.837397 z"
     id="path829"
     inkscape:connector-curvature="0" />
  <path
     style="fill:#000000;fill-opacity:1;fill-rule:nonzero;stroke:none;stroke-width:5.99023724;stroke-miterlimit:4;stroke-dasharray:none;stroke-opacity:1"
     d="m 43.528963,94.577126 c -6.055409,-0.80314 -11.175814,-3.131442 -11.175814,-5.081757 0,-1.126203 0.925075,-1.094836 1.886807,0.06398 0.421277,0.507608 2.25258,1.441588 4.069558,2.075507 2.703336,0.943158 5.27621,1.1462 14.160103,1.117462 11.436579,-0.037 15.444764,-0.807165 17.282839,-3.320883 1.014987,-1.388079 2.071848,-0.492547 1.170489,0.991813 -1.048105,1.726024 -4.698836,3.232387 -9.523588,3.929617 -4.314892,0.623548 -13.94839,0.744442 -17.870394,0.224261 z"
     id="path833"
     inkscape:connector-curvature="0" />
  <path
     style="fill:#000000;fill-opacity:1;fill-rule:nonzero;stroke:none;stroke-width:5.99023724;stroke-miterlimit:4;stroke-dasharray:none;stroke-opacity:1"
     d="M 43.528963,90.250663 C 33.094379,88.325058 24.989991,83.986473 17.345624,76.233733 9.732386,68.512563 5.2966318,59.791171 3.7168896,49.437492 3.0229977,44.889702 3.6555216,44.007135 8.807086,42.335093 c 1.886277,-0.612227 4.148039,-1.761207 5.026138,-2.553288 2.515644,-2.269213 4.315599,-2.96035 6.59574,-2.532593 1.537138,0.288369 2.344121,0.110279 2.981764,-0.658033 1.306718,-1.574499 5.456366,-3.516435 7.480088,-3.500504 0.979904,0.0077 3.03438,0.582469 4.565507,1.277237 1.531126,0.694764 3.439091,1.263211 4.239924,1.263211 0.800831,0 2.130387,0.54604 2.954568,1.21342 1.474559,1.194025 1.538955,1.19279 4.028478,-0.07727 1.971612,-1.005843 3.318883,-1.219156 6.104657,-0.966549 2.479035,0.22479 3.945865,0.05274 4.785675,-0.561349 1.743572,-1.274933 5.005685,-1.08942 6.888685,0.391747 0.893059,0.702479 2.161069,1.277236 2.817805,1.277236 0.656735,0 1.775602,0.407319 2.486357,0.905156 2.513678,1.760648 5.794859,1.902033 9.286107,0.400141 3.99895,-1.720304 7.197079,-1.344569 10.431104,1.22551 1.236959,0.983013 3.761338,2.278598 5.609725,2.87908 5.051222,1.640978 5.766822,2.512168 5.241542,6.381143 -1.126064,8.294098 -4.28792,15.795064 -9.700854,23.013652 -7.873012,10.499304 -19.927559,17.298591 -33.418711,18.8496 -6.619016,0.760956 -8.044475,0.728454 -13.682422,-0.311978 z m 18.067883,-1.967592 c 7.859231,-1.583809 18.861982,-7.448367 23.657165,-12.609463 l 1.492107,-1.605968 -6.920361,-0.239808 c -6.758986,-0.234216 -6.974761,-0.198273 -9.253128,1.541338 -3.619521,2.76364 -10.02205,5.483915 -14.60145,6.203792 -7.433604,1.168555 -16.074771,-1.141262 -21.999656,-5.880594 -2.530206,-2.023921 -2.539113,-2.02568 -9.259963,-1.830259 -3.700025,0.107586 -6.86917,0.336769 -7.042544,0.509298 -0.79058,0.786719 9.339858,8.090546 14.684133,10.586938 3.396897,1.586747 8.844075,3.326866 12.133741,3.876167 3.846661,0.642307 12.583588,0.360724 17.109956,-0.551441 z m 0.293719,-9.849223 c 2.02036,-0.761926 5.101219,-2.51396 6.846357,-3.893408 l 3.172967,-2.50809 7.52255,-0.0094 c 4.744,-0.0059 8.106913,-0.305094 9.104631,-0.809923 2.176245,-1.101144 7.373995,-11.199136 8.963451,-17.41386 0.698852,-2.732501 1.198413,-5.034729 1.110124,-5.116063 -0.0883,-0.08134 -2.219294,0.377977 -4.735566,1.020693 -9.090331,2.321887 -16.889792,2.850715 -42.04408,2.850715 -25.019788,0 -32.930079,-0.529459 -41.884428,-2.803441 -4.402264,-1.117967 -4.4153584,-1.117366 -4.4078013,0.202454 0.023526,4.108638 5.0065763,16.08447 8.3896623,20.162982 1.276674,1.539107 1.624027,1.601331 9.655,1.729512 8.15047,0.130091 8.380606,0.173091 10.638587,1.987651 3.109968,2.499239 7.357478,4.634507 11.222798,5.641822 4.378625,1.141085 11.925415,0.663089 16.445748,-1.041632 z M 71.000439,50.933154 C 85.3994,49.997273 96.542747,48.150113 98.444775,46.38389 99.29836,45.59125 97.995815,44.827895 93.66048,43.580055 91.728659,43.02402 89.860702,42.216208 89.509462,41.784923 87.129066,38.86203 82.791059,38.006159 79.378226,39.786074 c -2.338401,1.219562 -8.002726,1.205301 -9.628329,-0.02425 -0.6818,-0.515691 -2.033786,-0.937618 -3.004409,-0.937618 -1.030927,0 -2.428651,-0.663889 -3.36131,-1.596545 -1.948263,-1.948263 -2.893309,-1.993701 -5.115234,-0.245934 -1.569113,1.234263 -1.960723,1.282381 -4.545979,0.558554 -2.62835,-0.735893 -3.079291,-0.669582 -6.359189,0.935123 l -3.530233,1.727182 -1.981203,-1.667074 c -1.223149,-1.029211 -2.420413,-1.527676 -3.129087,-1.302749 -0.631333,0.200378 -2.107347,-0.220636 -3.280029,-0.935586 -1.263246,-0.770162 -3.244036,-1.300878 -4.860543,-1.302293 -2.289887,-0.0019 -3.166759,0.40168 -5.455881,2.511718 -1.992712,1.836821 -2.978099,2.355574 -3.657784,1.925634 -1.852284,-1.171683 -4.289806,-0.654805 -5.89211,1.249425 -1.073268,1.275507 -2.788341,2.201286 -5.474133,2.954882 -4.7601625,1.335633 -6.0816863,2.551352 -3.74084,3.441342 4.201341,1.597345 12.41142,2.787901 28.226379,4.093147 6.141982,0.506911 27.055183,0.370284 36.412127,-0.237886 z"
     id="path837"
     inkscape:connector-curvature="0" />
  <path
     style="fill:#000000;fill-opacity:1;fill-rule:nonzero;stroke:none;stroke-width:2.99511862;stroke-miterlimit:4;stroke-dasharray:none;stroke-opacity:1"
     d="m 82.857637,67.658927 c -0.303369,-0.365534 0.01732,-1.004957 1.642843,-3.275574 1.110888,-1.551755 2.657512,-4.012009 3.436943,-5.467229 1.512244,-2.823397 2.252486,-3.53607 2.883336,-2.775943 0.469241,0.565404 -0.242261,2.270464 -2.512429,6.02083 -2.650807,4.379186 -4.680265,6.426227 -5.450693,5.497916 z"
     id="path839"
     inkscape:connector-curvature="0" />
  <path
     style="fill:#000000;fill-opacity:1;fill-rule:nonzero;stroke:none;stroke-width:2.99511862;stroke-miterlimit:4;stroke-dasharray:none;stroke-opacity:1"
     d="m 48.362173,48.101391 c -0.429763,-0.301019 -1.503482,-0.782707 -2.386038,-1.070419 -1.179176,-0.384408 -1.60465,-0.683779 -1.60465,-1.129065 0,-0.839251 1.170768,-0.944965 3.338259,-0.301428 1.680018,0.498801 1.893309,0.49392 4.165503,-0.09534 2.062755,-0.53495 2.431521,-0.556986 2.65952,-0.158926 0.295536,0.515968 -0.267956,1.386632 -0.897422,1.386632 -0.217178,0 -1.241329,0.429247 -2.275891,0.953883 -2.22435,1.127986 -2.02101,1.099871 -2.999281,0.414666 z"
     id="path841"
     inkscape:connector-curvature="0" />
  <path
     style="fill:#000000;fill-opacity:1;fill-rule:nonzero;stroke:none;stroke-width:11.15385056;stroke-miterlimit:4;stroke-dasharray:none;stroke-opacity:1"
     d=""
     id="path843"
     inkscape:connector-curvature="0"
     transform="scale(0.26458334)" />
  <path
     style="fill:#000000;fill-opacity:1;fill-rule:nonzero;stroke:none;stroke-width:11.15385056;stroke-miterlimit:4;stroke-dasharray:none;stroke-opacity:1"
     d=""
     id="path845"
     inkscape:connector-curvature="0"
     transform="scale(0.26458334)" />
  <path
     style="fill:#000000;fill-opacity:1;fill-rule:nonzero;stroke:none;stroke-width:2.99511862;stroke-miterlimit:4;stroke-dasharray:none;stroke-opacity:1"
     d="m 22.578644,44.513398 c -0.570764,-0.687501 -1.037755,-1.475203 -1.037755,-1.750444 0,-0.648857 1.231669,-0.65648 2.14993,-0.01329 0.580191,0.406382 0.939149,0.425778 2.165424,0.116998 2.448753,-0.616604 4.246339,0.738859 1.885081,1.421438 -0.51251,0.148155 -1.463213,0.543299 -2.112677,0.878099 -1.615463,0.83278 -1.860167,0.780407 -3.050003,-0.652785 z"
     id="path847"
     inkscape:connector-curvature="0" />
  <path
     style="fill:#000000;fill-opacity:1;fill-rule:nonzero;stroke:none;stroke-width:2.99511862;stroke-miterlimit:4;stroke-dasharray:none;stroke-opacity:1"
     d="m 49.691579,27.178763 c -0.579153,-0.57915 -0.44828,-1.007922 0.616365,-2.019367 1.468648,-1.395256 2.29715,-3.232574 2.29715,-5.09424 0,-1.318442 -0.295872,-2.170382 -1.64216,-4.728446 -1.374596,-2.611855 -1.64216,-3.3946 -1.64216,-4.804064 0,-2.3116256 0.811137,-4.4901581 2.225352,-5.9768082 2.020349,-2.1238275 3.422502,-1.3069273 1.633599,0.9517433 -2.425716,3.0627179 -2.549086,5.6971179 -0.425748,9.0913599 2.338549,3.738264 2.309599,7.274346 -0.08798,10.746894 -1.001839,1.451019 -2.458616,2.348732 -2.974417,1.832928 z"
     id="path849"
     inkscape:connector-curvature="0" />
  <path
     style="fill:#000000;fill-opacity:1;fill-rule:nonzero;stroke:none;stroke-width:2.99511862;stroke-miterlimit:4;stroke-dasharray:none;stroke-opacity:1"
     d="m 38.638882,24.405415 c -0.100312,-0.162308 0.178584,-0.973998 0.619773,-1.803757 1.156524,-2.175126 1.054081,-3.539072 -0.475077,-6.325281 -0.702482,-1.279954 -1.277236,-2.729328 -1.277236,-3.220831 0,-2.187786 1.508223,-4.9590951 2.698878,-4.9590951 0.691483,0 0.617974,1.0201268 -0.184443,2.5595981 -0.896091,1.719189 -0.66802,3.43601 0.711681,5.357209 0.772187,1.075253 1.076953,1.885071 1.18083,3.137685 0.18338,2.211311 -0.05875,3.067621 -1.251549,4.426139 -0.977565,1.113386 -1.671156,1.397401 -2.022857,0.828333 z"
     id="path851"
     inkscape:connector-curvature="0" />
  <path
     style="fill:#000000;fill-opacity:1;fill-rule:nonzero;stroke:none;stroke-width:2.99511862;stroke-miterlimit:4;stroke-dasharray:none;stroke-opacity:1"
     d="m 62.731752,24.214711 c 0,-0.267196 0.392163,-1.078409 0.871475,-1.802697 1.225934,-1.85251 1.124374,-3.278503 -0.410612,-5.765375 -1.889313,-3.06093 -1.853526,-5.756425 0.106096,-7.9913974 0.541943,-0.6180934 1.51821,-0.7405064 1.83376,-0.2299336 0.111785,0.1808715 -0.167113,0.9608257 -0.619773,1.733232 -1.144785,1.95343 -1.049944,3.036111 0.514172,5.869593 1.49267,2.704049 1.716112,4.546381 0.772667,6.370802 -0.976311,1.887974 -3.067785,3.125887 -3.067785,1.815776 z"
     id="path853"
     inkscape:connector-curvature="0" />
  <path
     style="fill:#000000;fill-opacity:1;fill-rule:nonzero;stroke:none;stroke-width:2.99511862;stroke-miterlimit:4;stroke-dasharray:none;stroke-opacity:1"
     d="m 13.940491,61.975953 c -0.66527,-0.801601 -2.61749,-5.183741 -2.61749,-5.875468 0,-0.389736 0.158182,-0.806373 0.351516,-0.92586 0.575073,-0.355413 1.427216,0.814219 2.65798,3.648283 0.901336,2.075497 1.077834,2.769106 0.792209,3.113265 -0.455439,0.548769 -0.753482,0.558782 -1.184215,0.03978 z"
     id="path855"
     inkscape:connector-curvature="0" />
</svg>
