<?xml version="1.0" encoding="UTF-8" standalone="no"?>
<svg
   xmlns:dc="http://purl.org/dc/elements/1.1/"
   xmlns:cc="http://creativecommons.org/ns#"
   xmlns:rdf="http://www.w3.org/1999/02/22-rdf-syntax-ns#"
   xmlns:svg="http://www.w3.org/2000/svg"
   xmlns="http://www.w3.org/2000/svg"
   id="svg4"
   version="1.1"
   fill="none"
   viewBox="0 0 24 24"
   height="24"
   width="24">
  <metadata
     id="metadata10">
    <rdf:RDF>
      <cc:Work
         rdf:about="">
        <dc:format>image/svg+xml</dc:format>
        <dc:type
           rdf:resource="http://purl.org/dc/dcmitype/StillImage" />
        <dc:title></dc:title>
      </cc:Work>
    </rdf:RDF>
  </metadata>
  <defs
     id="defs8">
    <radialGradient
       gradientUnits="userSpaceOnUse"
       gradientTransform="matrix(-0.30295548,-0.10322945,0.15631246,-0.45874682,17.149017,33.404687)"
       r="24.528"
       cy="40.567001"
       cx="39.234001"
       id="a">
      <stop
         id="stop5"
         offset="0"
         stop-color="#f60" />
      <stop
         id="stop7"
         offset="1"
         stop-color="#dc0000" />
    </radialGradient>
    <filter
       id="b">
      <feGaussianBlur
         id="feGaussianBlur2"
         stdDeviation=".81407" />
    </filter>
  </defs>
  <path
     style="fill:#0e232e;filter:url(#b)"
     id="path12"
     d="M 34.53125,6.96875 C 33.81879,7.91101 33.13037,8.84104 32.4375,9.78125 31.65401,8.9167 30.86578,8.05214 30.0625,7.1875 L 29.65625,7.25 c -0.50562,1.06104 -1.01302,2.13239 -1.5,3.1875 -0.92681,-0.67814 -1.86693,-1.35687 -2.8125,-2.03125 l -0.375,0.125 c -0.28137,1.14 -0.54835,2.27598 -0.8125,3.40625 C 23.10208,11.45502 22.04111,10.97484 20.96875,10.5 L 20.625,10.71875 c -0.04624,1.17548 -0.09366,2.33747 -0.125,3.5 -1.14496,-0.26374 -2.30753,-0.5288 -3.46875,-0.78125 l -0.21875,0.21875 c 0.19358,1.17488 0.38801,2.34089 0.59375,3.5 -1.18606,-0.0283 -2.3937,-0.04885 -3.59375,-0.0625 -0.06128,0.08507 -0.1273,0.16411 -0.1875,0.25 0.43205,1.12752 0.87149,2.23449 1.3125,3.34375 -1.19,0.21523 -2.39299,0.45481 -3.59375,0.6875 -0.02868,0.06424 -0.06561,0.12297 -0.09375,0.1875 0.66331,1.03822 1.33137,2.07568 2,3.09375 -1.13658,0.45606 -2.29382,0.89934 -3.4375,1.375 -0.01375,0.0627 -0.01799,0.12462 -0.03125,0.1875 0.86377,0.88868 1.72878,1.7572 2.59375,2.625 -1.0411,0.6884 -2.08092,1.3842 -3.125,2.09375 -4e-4,0.03134 2.8e-4,0.06238 0,0.09375 1.04397,0.70967 2.08393,1.40506 3.125,2.09375 -0.89735,0.90005 -1.79162,1.82821 -2.6875,2.75 0.00415,0.0215 0.02704,0.04102 0.03125,0.0625 1.17397,0.48855 2.36443,0.93792 3.53125,1.40625 -0.7018,1.06833 -1.39783,2.16054 -2.09375,3.25 1.26246,0.24505 2.52988,0.46103 3.78125,0.6875 -0.47759,1.20032 -0.9389,2.40469 -1.40625,3.625 1.29372,-0.01418 2.59614,-0.03212 3.875,-0.0625 -0.22256,1.25305 -0.44729,2.5113 -0.65625,3.78125 1.25521,-0.27233 2.51224,-0.55877 3.75,-0.84375 0.03456,1.28695 0.07341,2.57403 0.125,3.875 1.17946,-0.52151 2.3402,-1.0633 3.5,-1.59375 0.29101,1.24581 0.62705,2.49383 0.9375,3.75 1.04281,-0.74292 2.07172,-1.50236 3.09375,-2.25 0.53515,1.15979 1.10027,2.33416 1.65625,3.5 0.88425,-0.95085 1.76271,-1.89245 2.625,-2.84375 0.76316,1.03582 1.52753,2.05622 2.3125,3.09375 0.66998,-1.1016 1.32016,-2.21488 1.96875,-3.3125 0.94854,0.85436 1.90477,1.71075 2.875,2.5625 0.43938,-1.22742 0.86243,-2.43718 1.28125,-3.65625 1.10727,0.64959 2.21558,1.29491 3.34375,1.9375 0.18123,-1.27632 0.36813,-2.54829 0.53125,-3.8125 1.21193,0.41206 2.42556,0.81764 3.65625,1.21875 -0.07953,-1.28936 -0.18652,-2.56965 -0.28125,-3.84375 1.27412,0.16026 2.5533,0.29186 3.84375,0.4375 -0.3376,-1.24736 -0.71297,-2.4898 -1.0625,-3.71875 1.29145,-0.10012 2.57013,-0.22559 3.875,-0.34375 C 54.20221,41.63283 53.58695,40.50318 53,39.375 c 1.23389,-0.35513 2.47562,-0.71874 3.71875,-1.09375 -0.7967,-1.00627 -1.60587,-2.01488 -2.40625,-3 1.13363,-0.5944 2.26757,-1.19684 3.40625,-1.8125 -0.99477,-0.83525 -2.0059,-1.65546 -3,-2.46875 0.99419,-0.81318 2.00515,-1.6336 3,-2.46875 -1.13861,-0.61578 -2.27269,-1.21798 -3.40625,-1.8125 0.80049,-0.98504 1.60944,-1.99381 2.40625,-3 C 55.47566,23.34361 54.23385,22.98026 53,22.625 c 0.58707,-1.12812 1.20209,-2.25789 1.78125,-3.40625 -1.30486,-0.11829 -2.58356,-0.24349 -3.875,-0.34375 0.34345,-1.20709 0.69942,-2.43103 1.03125,-3.65625 l -0.0625,-0.0625 c -1.25949,0.14212 -2.50654,0.28123 -3.75,0.4375 0.09103,-1.22257 0.2046,-2.45013 0.28125,-3.6875 C 48.35774,11.86937 48.2988,11.84902 48.25,11.8125 47.07282,12.19625 45.90915,12.57477 44.75,12.96875 44.59637,11.77709 44.42044,10.5783 44.25,9.375 L 44.03125,9.28125 C 42.97196,9.8848 41.91478,10.484 40.875,11.09375 40.48834,9.96791 40.09286,8.85265 39.6875,7.71875 39.58352,7.69222 39.47951,7.6502 39.375,7.625 38.47734,8.41337 37.59643,9.20964 36.71875,10 36.1244,8.99392 35.51996,7.97889 34.90625,6.96875 c -0.12447,-0.00645 -0.25005,0.00458 -0.375,0 z m 22.1875,16.75 0.09375,0.03125 -0.03125,-0.09375 z m 1,4.8125 0.125,0.0625 c -0.0069,-0.06327 0.0074,-0.12438 0,-0.1875 -0.04516,0.03792 -0.07983,0.08708 -0.125,0.125 z m 0,4.9375 c 0.05653,0.04747 0.09974,0.10879 0.15625,0.15625 0.0079,-0.08212 0.02412,-0.16765 0.03125,-0.25 z m -1,4.8125 c 0.05998,0.07576 0.12756,0.143 0.1875,0.21875 0.02861,-0.0913 0.03495,-0.18948 0.0625,-0.28125 z m -1.9375,4.5 c 0.0507,0.10055 0.07435,0.21198 0.125,0.3125 0.06437,-0.11476 0.12495,-0.22786 0.1875,-0.34375 z m -2.8125,4.0625 c 0.02794,0.10322 0.0346,0.20931 0.0625,0.3125 0.07689,-0.08842 0.17438,-0.16047 0.25,-0.25 -0.10597,-0.01194 -0.20649,-0.05054 -0.3125,-0.0625 z M 48.40625,50.25 c 0.0065,0.10474 -0.0064,0.2078 0,0.3125 0.0956,-0.07279 0.18677,-0.14459 0.28125,-0.21875 z m -4.1875,2.59375 c -0.01503,0.10582 -0.04746,0.20673 -0.0625,0.3125 C 44.26935,53.10208 44.38788,53.05585 44.5,53 Z m -4.625,1.71875 c -0.0337,0.09414 -0.06004,0.18715 -0.09375,0.28125 0.10497,-0.02589 0.20807,-0.06651 0.3125,-0.09375 -0.07286,-0.06393 -0.14588,-0.12353 -0.21875,-0.1875 z m -4.84375,0.75 c -0.0468,0.07696 -0.10944,0.14183 -0.15625,0.21875 0.10405,-0.0041 0.20879,0.0054 0.3125,0 C 34.85164,55.45909 34.80462,55.38469 34.75,55.3125 Z m -4.9375,-0.25 c -0.05054,0.05435 -0.10571,0.10192 -0.15625,0.15625 0.08563,0.01398 0.16407,0.04941 0.25,0.0625 C 29.87194,55.20934 29.8468,55.13444 29.8125,55.0625 Z m -4.75,-1.25 c -0.05456,0.03887 -0.1017,0.08615 -0.15625,0.125 L 25.09375,54 c -0.01525,-0.06167 -0.016,-0.12581 -0.03125,-0.1875 z m -4.4375,-2.15625 -0.125,0.0625 0.125,0.0625 c -0.0017,-0.04192 0.0017,-0.08308 0,-0.125 z M 16.75,48.625 16.59375,48.65625 c 0.03632,0.03532 0.08846,0.05865 0.125,0.09375 0.007,-0.04257 0.02425,-0.08243 0.03125,-0.125 z M 13.53125,44.90625 H 13.4375 c 0.01653,0.02424 0.04589,0.03833 0.0625,0.0625 0.0084,-0.02184 0.02289,-0.04066 0.03125,-0.0625 z m -2.375,-4.3125 h -0.0625 c 0.0051,0.01221 0.02613,0.01905 0.03125,0.03125 z"
     transform="matrix(0.43320344,0,0,0.43320344,-2.4668089,-1.6363685)" />
  <path
     style="fill:url(#a);stroke:#f5f2f2;stroke-width:0.16952333;stroke-linecap:square;stroke-linejoin:bevel;stroke-opacity:0.92308003"
     id="path14"
     d="m 12.146896,1.3020494 c -0.301946,0.399338 -0.5937,0.7934911 -0.887344,1.191958 C 10.927504,2.127607 10.593445,1.7611993 10.253011,1.3947573 10.195158,1.4031254 10.138383,1.4118739 10.080847,1.421251 9.8665606,1.8709258 9.6515249,2.3249749 9.4451375,2.7721353 9.0523496,2.4847335 8.6539202,2.197081 8.253179,1.9112773 L 8.0942527,1.9642458 C 7.9750017,2.4473872 7.8618589,2.9288204 7.749912,3.4078379 7.3031468,3.2033608 6.8534988,2.9998538 6.3990274,2.7986139 l -0.1456881,0.0927 C 6.2337492,3.3894918 6.2136457,3.8819487 6.2003705,4.3746373 5.7151295,4.2628607 5.2224256,4.1505286 4.7302882,4.0435372 4.6989628,4.0725997 4.6685524,4.1068149 4.6375874,4.136238 4.7196355,4.6341612 4.8020286,5.1283266 4.8892247,5.6195659 4.3865659,5.6075841 3.874759,5.5988546 3.3661699,5.5930722 3.340209,5.6291332 3.3122119,5.6626265 3.2867075,5.6990291 3.4698069,6.1768792 3.6560519,6.6460222 3.8429551,7.116135 3.3386265,7.2073524 2.8287897,7.3088852 2.3198966,7.4075006 c -0.012171,0.027216 -0.027808,0.052111 -0.039731,0.079468 0.281117,0.4400044 0.564243,0.8796861 0.8476122,1.3111516 -0.4816916,0.1932785 -0.9721399,0.3811439 -1.4568369,0.5827345 -0.00589,0.026575 -0.00761,0.052817 -0.013314,0.079473 0.3660693,0.376628 0.7326675,0.7447153 1.0992502,1.1124893 -0.4412223,0.29175 -0.8819083,0.586635 -1.3243975,0.887349 -1.674e-4,0.0133 1.179e-4,0.02643 0,0.03974 0.4424433,0.300762 0.8831827,0.595473 1.3243975,0.887344 -0.3803033,0.381445 -0.7592984,0.77481 -1.1389816,1.165467 0.00176,0.009 0.01141,0.01731 0.013314,0.0265 0.4975351,0.207054 1.0020614,0.397496 1.4965685,0.595979 -0.2974285,0.452763 -0.5924111,0.915653 -0.8873443,1.377375 0.5350374,0.10385 1.0721819,0.195385 1.6025217,0.291366 -0.2024078,0.508702 -0.3979117,1.019124 -0.5959791,1.536299 0.548286,-0.006 1.1002617,-0.0137 1.6422527,-0.0265 -0.094316,0.531057 -0.1895658,1.064311 -0.2781238,1.602526 0.5319675,-0.115411 1.0647035,-0.236811 1.5892763,-0.357587 0.014645,0.545418 0.031115,1.090893 0.052969,1.642252 0.499863,-0.22102 0.9917907,-0.450636 1.4833231,-0.675442 0.1233212,0.527986 0.26575,1.056903 0.3973186,1.589275 0.4419531,-0.314851 0.8780127,-0.636708 1.3111521,-0.953564 0.2267991,0.491523 0.466305,0.989232 0.7019327,1.483324 0.374753,-0.402979 0.747044,-0.802036 1.112491,-1.205204 0.323431,0.438985 0.64738,0.871441 0.98005,1.311153 0.283944,-0.466864 0.559493,-0.938683 0.834373,-1.403862 0.401996,0.362082 0.807252,0.72503 1.218443,1.086007 0.186219,-0.520187 0.365503,-1.032895 0.543004,-1.549546 0.469269,0.275301 0.938983,0.548793 1.417106,0.821127 0.07679,-0.540913 0.156017,-1.079983 0.225147,-1.615767 0.513626,0.174636 1.02797,0.346521 1.549545,0.516516 -0.03369,-0.546441 -0.07904,-1.089038 -0.119193,-1.62901 0.539983,0.06792 1.082106,0.123702 1.629007,0.18542 -0.143083,-0.528639 -0.302161,-1.055194 -0.450296,-1.576031 0.547325,-0.04243 1.089239,-0.09561 1.642253,-0.145688 -0.245402,-0.486708 -0.506149,-0.965461 -0.754907,-1.443591 0.522934,-0.150501 1.049182,-0.304607 1.57603,-0.463541 -0.337647,-0.426463 -0.680581,-0.85392 -1.019787,-1.271422 0.480441,-0.251908 0.961015,-0.507227 1.443596,-0.768147 -0.421591,-0.353986 -0.850116,-0.701596 -1.271421,-1.046271 0.421344,-0.344631 0.849793,-0.692332 1.271421,-1.046274 C 21.491388,10.179409 21.010758,9.9241887 20.530343,9.6722267 20.869594,9.2547593 21.212438,8.8272348 21.550129,8.4008053 21.023297,8.2418232 20.497013,8.0878315 19.974099,7.937266 20.222906,7.4591609 20.483551,6.9803529 20.729007,6.4936743 20.175997,6.4435275 19.634076,6.3904629 19.086753,6.347974 19.23231,5.8363988 19.383171,5.3176879 19.523803,4.7984284 l -0.0265,-0.026493 c -0.533779,0.060234 -1.062286,0.1191943 -1.589276,0.1854197 0.03856,-0.5181329 0.08672,-1.0383845 0.119194,-1.56279 -0.02055,-0.015596 -0.04553,-0.024249 -0.06623,-0.039731 -0.4989,0.1626336 -0.992071,0.3230545 -1.483327,0.4900252 -0.06511,-0.5050357 -0.139679,-1.013092 -0.211903,-1.5230579 -0.03033,-0.014646 -0.0622,-0.025333 -0.09269,-0.039732 C 15.724132,2.5378567 15.276094,2.7918031 14.835426,3.050219 14.671554,2.5730805 14.503949,2.1004267 14.332154,1.6198724 14.288101,1.6086501 14.243997,1.5908112 14.199724,1.580141 13.819288,1.9142577 13.44595,2.2517221 13.073986,2.5866834 12.822094,2.1602998 12.56593,1.7301201 12.305836,1.3020173 c -0.05275,-0.00265 -0.105969,0.00191 -0.158926,0 z m 9.403217,7.098769 0.03974,0.013311 c -0.0042,-0.013311 -0.0088,-0.0264 -0.01331,-0.039734 -0.0077,0.00968 -0.01883,0.016741 -0.0265,0.026492 z m 0.423811,2.0395706 c 0.0175,0.0094 0.03552,0.01712 0.05296,0.0265 -0.003,-0.02683 0.0031,-0.0527 0,-0.07946 -0.01913,0.01598 -0.03383,0.0369 -0.05296,0.05296 z m 0,2.092548 c 0.02397,0.02012 0.04228,0.0461 0.06623,0.06623 0.0032,-0.0348 0.01025,-0.07105 0.01331,-0.105958 -0.02628,0.01428 -0.05317,0.02552 -0.07946,0.03974 z m -0.423811,2.039567 c 0.02543,0.03211 0.05405,0.06059 0.07946,0.0927 0.01216,-0.03869 0.01485,-0.0803 0.0265,-0.119195 -0.03509,0.01059 -0.07085,0.01598 -0.105958,0.0265 z m -0.821123,1.907133 c 0.02147,0.04263 0.0315,0.08985 0.05296,0.13243 0.02727,-0.04863 0.05295,-0.09656 0.07946,-0.145685 z m -1.19196,1.721715 c 0.01179,0.04375 0.01465,0.0887 0.0265,0.132434 0.0326,-0.03749 0.07391,-0.06802 0.105957,-0.105958 -0.0449,-0.0052 -0.0875,-0.0214 -0.132433,-0.0265 z m -1.509813,1.443594 c 0.0027,0.0444 -0.0027,0.08806 0,0.132432 l 0.119195,-0.0927 c -0.04025,-0.01313 -0.07893,-0.02661 -0.119195,-0.03974 z m -1.774693,1.09925 c -0.0062,0.04482 -0.02012,0.08762 -0.0265,0.132432 0.04792,-0.02296 0.09816,-0.04255 0.145689,-0.06623 -0.03993,-0.02273 -0.07927,-0.04348 -0.119197,-0.06623 z m -1.960108,0.728419 c -0.01428,0.03992 -0.02544,0.07932 -0.03974,0.119194 0.04448,-0.01108 0.08817,-0.02819 0.132431,-0.03974 z m -2.052815,0.317855 c -0.01984,0.03263 -0.04638,0.06011 -0.06623,0.0927 0.0441,-0.0019 0.08848,0.0023 0.132431,0 -0.02314,-0.0306 -0.04307,-0.06212 -0.06623,-0.0927 z m -2.092548,-0.105957 c -0.02141,0.02303 -0.0448,0.04321 -0.06622,0.06624 0.03629,0.0059 0.06954,0.02094 0.105957,0.0265 -0.01446,-0.03049 -0.02519,-0.06221 -0.03973,-0.0927 z M 8.1339688,21.154752 c -0.023121,0.01656 -0.043093,0.03652 -0.066225,0.05297 0.025945,0.0099 0.053406,0.01674 0.079468,0.0265 -0.00642,-0.02614 -0.00688,-0.05332 -0.013311,-0.07946 z m -1.8806449,-0.913833 -0.052968,0.0265 c 0.016547,0.01048 0.036422,0.01598 0.052968,0.0265 -7.607e-4,-0.01768 7.61e-4,-0.03521 0,-0.05296 z m -1.642253,-1.284666 -0.066225,0.01331 c 0.015405,0.01503 0.037488,0.02486 0.052968,0.03974 0.00304,-0.01807 0.010261,-0.03495 0.013314,-0.05297 z M 3.2469422,17.380225 h -0.039731 c 0.00703,0.01025 0.019457,0.01617 0.026493,0.0265 l 0.013314,-0.0265 z M 2.2403997,15.552556 h -0.026493 c 0.00207,0.0052 0.011036,0.008 0.013314,0.01331 0.00342,-0.0052 0.00989,-0.008 0.013314,-0.01331 z" />
</svg>
